<?xml version="1.0" standalone="no"?>
<!DOCTYPE svg PUBLIC "-//W3C//DTD SVG 1.1//EN" "http://www.w3.org/Graphics/SVG/1.1/DTD/svg11.dtd" >
<svg>
<metadata>
Created by FontForge 20120731 at Thu Sep 18 13:12:20 2014
 By World Wide Web Server
Copyright (c) 2012 Linotype GmbH, www.linotype.com. All rights reserved. This font software may not be reproduced, modified, disclosed or transferred without the express written approval of Linotype GmbH. Avenir is a trademark of Linotype GmbH registered in the U.S. Patent and Trademark Office and may be registered in certain other jurisdictions. This typeface is original artwork of Adrian Frutiger, Akira Kobayashi. The design may be protected in certain jurisdictions.
</metadata>
<defs>
<font id="AvenirNextRoundedStd-Med" horiz-adv-x="250" >
  <font-face 
    font-family="Avenir Next Rounded Std Medium"
    font-weight="500"
    font-stretch="normal"
    units-per-em="1000"
    panose-1="2 11 6 3 2 2 2 2 2 4"
    ascent="750"
    descent="-250"
    x-height="474"
    cap-height="716"
    bbox="-198 -258 1015 951"
    underline-thickness="50"
    underline-position="125"
    stemh="81"
    stemv="81"
    unicode-range="U+000D-FB02"
  />
<missing-glyph horiz-adv-x="512" 
d="M222 146v8c0 27 19 32 28 32s28 -5 28 -32v-8c0 -27 -19 -32 -28 -32s-28 5 -28 32zM50 50h412v617h-412v-617zM0 32v654c0 22 10 32 31 32h450c21 0 31 -10 31 -32v-654c0 -22 -10 -32 -31 -32h-450c-21 0 -31 10 -31 32zM223 254c0 69 16 97 59 137c45 42 48 64 48 89
c0 47 -33 79 -74 79c-36 0 -66 -20 -79 -75c-5 -20 -18 -23 -26 -23c-15 0 -25 12 -25 25c0 3 0 5 2 14c17 76 66 109 131 109c71 0 124 -47 124 -125c0 -43 -9 -75 -65 -128c-40 -38 -47 -47 -47 -102c0 -23 -16 -27 -24 -27s-24 4 -24 27z" />
    <glyph glyph-name="fi" unicode="fi" horiz-adv-x="568" 
d="M194 397v-353c0 -44 -31 -52 -47 -52s-47 8 -47 52v353h-59c-37 0 -43 26 -43 39c0 12 6 38 43 38h59v99c0 111 49 195 172 195c52 0 67 -18 67 -43c0 -18 -12 -38 -45 -38h-15c-68 0 -85 -47 -85 -114v-99h76c37 0 43 -26 43 -38c0 -13 -6 -39 -43 -39h-76zM507 645
c0 -34 -29 -60 -63 -60s-62 27 -62 60c0 34 28 61 62 61s63 -26 63 -61zM491 430v-386c0 -44 -31 -52 -47 -52s-47 8 -47 52v386c0 44 31 52 47 52s47 -8 47 -52z" />
    <glyph glyph-name="fl" unicode="fl" horiz-adv-x="569" 
d="M194 397v-353c0 -44 -31 -52 -47 -52s-47 8 -47 52v353h-59c-37 0 -43 26 -43 39c0 12 6 38 43 38h59v99c0 111 49 195 172 195c52 0 67 -18 67 -43c0 -18 -12 -38 -45 -38h-15c-68 0 -85 -47 -85 -114v-99h76c37 0 43 -26 43 -38c0 -13 -6 -39 -43 -39h-76zM397 44v668
c0 44 31 52 47 52s47 -8 47 -52v-668c0 -44 -31 -52 -47 -52s-47 8 -47 52z" />
    <glyph glyph-name=".notdef" horiz-adv-x="512" 
d="M222 146v8c0 27 19 32 28 32s28 -5 28 -32v-8c0 -27 -19 -32 -28 -32s-28 5 -28 32zM50 50h412v617h-412v-617zM0 32v654c0 22 10 32 31 32h450c21 0 31 -10 31 -32v-654c0 -22 -10 -32 -31 -32h-450c-21 0 -31 10 -31 32zM223 254c0 69 16 97 59 137c45 42 48 64 48 89
c0 47 -33 79 -74 79c-36 0 -66 -20 -79 -75c-5 -20 -18 -23 -26 -23c-15 0 -25 12 -25 25c0 3 0 5 2 14c17 76 66 109 131 109c71 0 124 -47 124 -125c0 -43 -9 -75 -65 -128c-40 -38 -47 -47 -47 -102c0 -23 -16 -27 -24 -27s-24 4 -24 27z" />
    <glyph glyph-name=".null" horiz-adv-x="490" 
 />
    <glyph glyph-name=".null" horiz-adv-x="490" 
 />
    <glyph glyph-name="CR" unicode="&#xd;" horiz-adv-x="0" 
 />
    <glyph glyph-name="space" unicode=" " 
 />
    <glyph glyph-name="exclam" unicode="!" horiz-adv-x="334" 
d="M117 255v405c0 48 34 56 50 56c15 0 49 -8 49 -56v-405c0 -48 -34 -56 -49 -56c-16 0 -50 8 -50 56zM234 60c0 -35 -29 -66 -67 -66c-37 0 -67 30 -67 65c0 36 29 66 67 66s67 -29 67 -65z" />
    <glyph glyph-name="quotedbl" unicode="&#x22;" horiz-adv-x="423" 
d="M251 495v176c0 38 27 45 41 45c13 0 41 -7 41 -45v-176c0 -38 -28 -45 -41 -45c-14 0 -41 7 -41 45zM90 495v176c0 38 27 45 41 45c13 0 41 -7 41 -45v-176c0 -38 -28 -45 -41 -45c-14 0 -41 7 -41 45z" />
    <glyph glyph-name="numbersign" unicode="#" horiz-adv-x="574" 
d="M241 425l-20 -141h118l19 141h-117zM306 48l23 163h-118l-26 -182c-4 -30 -23 -37 -37 -37c-20 0 -36 13 -36 35c0 3 0 9 2 21l23 163h-65c-35 0 -40 25 -40 37c0 11 5 36 40 36h75l19 141h-66c-35 0 -40 25 -40 36c0 12 5 37 40 37h77l25 181c4 30 23 37 37 37
c21 0 37 -13 37 -35c0 -3 0 -9 -2 -21l-23 -162h118l25 181c4 30 23 37 37 37c21 0 37 -13 37 -35c0 -3 0 -9 -2 -21l-23 -162h58c35 0 40 -25 40 -37c0 -11 -5 -36 -40 -36h-68l-20 -141h61c35 0 40 -25 40 -36c0 -12 -5 -37 -40 -37h-70l-26 -182c-4 -30 -23 -37 -37 -37
c-21 0 -37 13 -37 35c0 3 0 9 2 21z" />
    <glyph glyph-name="dollar" unicode="$" horiz-adv-x="595" 
d="M270 418v223c-58 -4 -107 -44 -107 -110c0 -63 44 -95 107 -113zM321 309v-240c57 3 111 41 111 120c0 63 -47 99 -111 120zM84 58c-16 14 -22 29 -22 41c0 24 21 42 44 42c14 0 25 -5 39 -19c36 -35 91 -52 125 -53v254c-105 30 -202 77 -202 202c0 117 96 188 202 194
v49c0 24 17 29 25 29c9 0 26 -5 26 -29v-48c59 -2 115 -19 156 -50c17 -13 23 -26 23 -39c0 -24 -17 -41 -41 -41c-10 0 -22 4 -38 15c-34 24 -66 35 -100 36v-238c101 -34 208 -81 208 -213c0 -126 -95 -199 -208 -201v-52c0 -24 -17 -29 -26 -29c-8 0 -25 5 -25 29v52
c-72 2 -136 25 -186 69z" />
    <glyph glyph-name="percent" unicode="%" horiz-adv-x="870" 
d="M475 165c0 98 79 177 177 177s177 -79 177 -177s-79 -177 -177 -177s-177 79 -177 177zM746 165c0 52 -42 94 -94 94s-94 -42 -94 -94s42 -94 94 -94s94 42 94 94zM41 543c0 98 79 177 177 177s177 -79 177 -177s-79 -177 -177 -177s-177 79 -177 177zM312 543
c0 52 -42 94 -94 94s-94 -42 -94 -94s42 -94 94 -94s94 42 94 94zM204 35l397 676c12 20 25 24 36 24c19 0 37 -14 37 -36c0 -5 -2 -15 -8 -26l-397 -676c-11 -19 -25 -24 -36 -24c-19 0 -37 14 -37 36c0 5 2 15 8 26z" />
    <glyph glyph-name="ampersand" unicode="&#x26;" horiz-adv-x="723" 
d="M594 10l-95 92c-56 -78 -124 -115 -221 -115c-123 0 -230 70 -230 201c0 104 70 166 158 205c-51 55 -80 106 -80 162c0 114 91 171 189 171s183 -57 183 -166c0 -89 -72 -148 -150 -186l142 -137l81 129c12 19 28 25 41 25c25 0 45 -18 45 -43c0 -9 -3 -20 -11 -33
l-92 -139l105 -100c15 -15 19 -27 19 -37c0 -25 -19 -47 -46 -47c-13 0 -26 6 -38 18zM280 67c65 0 110 27 156 97l-170 168c-74 -29 -118 -72 -118 -142c0 -75 65 -123 132 -123zM221 554c0 -42 26 -81 69 -124c63 28 117 68 117 128c0 51 -38 90 -91 90
c-54 0 -95 -38 -95 -94z" />
    <glyph glyph-name="quotesingle" unicode="'" horiz-adv-x="262" 
d="M90 495v176c0 38 27 45 41 45c13 0 41 -7 41 -45v-176c0 -38 -28 -45 -41 -45c-14 0 -41 7 -41 45z" />
    <glyph glyph-name="parenleft" unicode="(" horiz-adv-x="315" 
d="M34 288c0 157 52 308 128 420c14 20 27 24 38 24c23 0 39 -17 39 -39c0 -6 -1 -16 -9 -28c-66 -107 -111 -239 -111 -377s45 -270 111 -377c8 -12 9 -22 9 -28c0 -22 -16 -39 -39 -39c-11 0 -24 4 -38 24c-76 112 -128 263 -128 420z" />
    <glyph glyph-name="parenright" unicode=")" horiz-adv-x="315" 
d="M281 288c0 -157 -52 -308 -128 -420c-13 -20 -27 -24 -37 -24c-23 0 -40 17 -40 39c0 6 1 16 9 28c66 107 111 239 111 377s-45 270 -111 377c-8 12 -9 22 -9 28c0 22 17 39 40 39c10 0 24 -4 37 -24c76 -112 128 -263 128 -420z" />
    <glyph glyph-name="asterisk" unicode="*" horiz-adv-x="454" 
d="M222 459l-62 -84c-11 -15 -24 -21 -35 -21c-23 0 -41 17 -41 39c0 6 1 16 11 30l60 80l-93 30c-27 9 -32 27 -32 40c0 22 17 39 39 39c4 0 13 -1 23 -4l90 -29v93c0 37 27 44 40 44s40 -7 40 -44v-93l90 29c12 4 18 4 22 4c22 0 39 -17 39 -39c0 -13 -7 -32 -35 -41
l-89 -29l60 -80c10 -14 11 -24 11 -30c0 -22 -18 -39 -41 -39c-11 0 -24 6 -35 21z" />
    <glyph glyph-name="plus" unicode="+" horiz-adv-x="666" 
d="M559 262h-185v-185c0 -38 -27 -45 -41 -45s-41 7 -41 45v185h-185c-39 0 -45 28 -45 41s6 41 45 41h185v185c0 38 27 45 41 45s41 -7 41 -45v-185h185c39 0 45 -28 45 -41s-6 -41 -45 -41z" />
    <glyph glyph-name="comma" unicode="," horiz-adv-x="260" 
d="M181 58l-52 -161c-11 -32 -29 -38 -45 -38c-24 0 -45 16 -45 42c0 4 0 13 4 25l48 158c10 35 33 41 47 41c26 0 47 -18 47 -44c0 -4 -1 -13 -4 -23z" />
    <glyph glyph-name="hyphen" unicode="-" horiz-adv-x="320" 
d="M239 204h-158c-38 0 -45 27 -45 41c0 13 7 39 45 39h158c38 0 45 -26 45 -39c0 -14 -7 -41 -45 -41z" />
    <glyph glyph-name="period" unicode="." horiz-adv-x="260" 
d="M197 60c0 -35 -29 -66 -67 -66c-37 0 -67 30 -67 65c0 36 29 66 67 66s67 -29 67 -65z" />
    <glyph glyph-name="slash" unicode="/" horiz-adv-x="380" 
d="M360 676l-279 -679c-10 -23 -26 -27 -37 -27c-20 0 -36 15 -36 36c0 6 1 12 6 24l278 680c10 24 27 28 38 28c19 0 36 -13 36 -36c0 -6 -1 -13 -6 -26z" />
    <glyph glyph-name="zero" unicode="0" horiz-adv-x="595" 
d="M539 354c0 -207 -73 -372 -241 -372c-169 0 -242 165 -242 372c0 206 73 372 242 372c168 0 241 -166 241 -372zM440 354c0 119 -27 291 -142 291c-117 0 -143 -172 -143 -291c0 -120 26 -290 143 -290c115 0 142 170 142 290z" />
    <glyph glyph-name="one" unicode="1" horiz-adv-x="595" 
d="M282 46v544l-105 -88c-11 -10 -24 -13 -33 -13c-23 0 -42 18 -42 43c0 11 4 26 21 39l149 121c23 18 38 24 52 24c19 0 55 -8 55 -61v-609c0 -46 -32 -54 -48 -54s-49 8 -49 54z" />
    <glyph glyph-name="two" unicode="2" horiz-adv-x="595" 
d="M83 595c34 77 113 131 212 131c118 0 224 -69 224 -201c0 -91 -52 -153 -114 -214l-227 -224h304c41 0 48 -29 48 -43s-7 -44 -48 -44h-365c-57 0 -65 35 -65 52s7 34 32 59l258 262c43 44 78 90 78 150c0 74 -56 122 -126 122c-57 0 -100 -32 -123 -86
c-12 -27 -30 -39 -49 -39c-24 0 -46 16 -46 45c0 10 3 21 7 30z" />
    <glyph glyph-name="three" unicode="3" horiz-adv-x="595" 
d="M145 135c31 -45 76 -71 134 -71c71 0 142 45 142 135c0 99 -93 130 -170 130c-39 0 -46 27 -46 41c0 13 7 41 46 41c74 0 151 26 151 117c0 71 -58 117 -125 117c-48 0 -85 -21 -112 -59c-10 -15 -24 -24 -39 -24c-25 0 -45 17 -45 43c0 11 5 23 16 37
c43 55 107 84 184 84c118 0 218 -67 218 -192c0 -79 -52 -142 -125 -161v-2c83 -17 144 -82 144 -173c0 -141 -116 -216 -237 -216c-93 0 -168 34 -213 102c-10 16 -13 26 -13 36c0 26 21 44 46 44c14 0 27 -5 44 -29z" />
    <glyph glyph-name="four" unicode="4" horiz-adv-x="595" 
d="M357 242v333h-2l-226 -333h228zM451 242h63c41 0 47 -29 47 -41c0 -13 -6 -42 -47 -42h-63v-114c0 -45 -31 -53 -47 -53s-47 8 -47 53v114h-270c-54 0 -64 37 -64 55c0 14 6 31 19 51l283 409c25 36 47 42 66 42s60 -11 60 -72v-402z" />
    <glyph glyph-name="five" unicode="5" horiz-adv-x="595" 
d="M79 72c-11 14 -15 26 -15 37c0 25 20 44 45 44c13 0 27 -4 42 -25c28 -40 71 -64 122 -64c83 0 148 61 148 152c0 107 -78 155 -166 155c-28 0 -56 -5 -86 -13c-12 -3 -21 -6 -30 -6c-11 0 -40 5 -39 45l6 255c1 38 19 56 57 56h288c40 0 47 -29 47 -43s-7 -43 -47 -43
h-253l-6 -186c26 9 62 13 91 13c136 0 237 -86 237 -223c0 -148 -106 -244 -247 -244c-86 0 -152 34 -194 90z" />
    <glyph glyph-name="six" unicode="6" horiz-adv-x="595" 
d="M374 635l-143 -212l2 -2c20 12 57 19 87 19c124 0 221 -93 221 -222c0 -141 -105 -236 -244 -236c-141 0 -245 99 -245 233c0 77 28 136 69 201l175 272c14 22 30 28 44 28c26 0 48 -18 48 -45c0 -8 -3 -19 -14 -36zM150 214c0 -83 59 -150 147 -150c87 0 146 63 146 151
c0 85 -57 148 -145 148c-89 0 -148 -62 -148 -149z" />
    <glyph glyph-name="seven" unicode="7" horiz-adv-x="595" 
d="M514 616l-272 -588c-14 -29 -33 -36 -48 -36c-27 0 -51 17 -51 48c0 6 1 16 8 31l264 551h-312c-40 0 -47 29 -47 43s7 43 47 43h359c54 0 61 -38 61 -53c0 -11 -2 -22 -9 -39z" />
    <glyph glyph-name="eight" unicode="8" horiz-adv-x="595" 
d="M510 535c0 -77 -45 -139 -109 -160v-2c76 -19 134 -89 134 -180c0 -133 -109 -211 -237 -211c-129 0 -238 78 -238 211c0 94 61 160 134 180v2c-63 22 -109 80 -109 158c0 117 96 193 213 193c116 0 212 -73 212 -191zM414 530c0 68 -53 116 -116 116
c-67 0 -116 -48 -116 -116c0 -65 49 -115 116 -115c64 0 116 50 116 115zM436 198c0 77 -58 134 -138 134c-81 0 -139 -56 -139 -134c0 -80 57 -135 139 -135c80 0 138 55 138 135z" />
    <glyph glyph-name="nine" unicode="9" horiz-adv-x="595" 
d="M475 292l-175 -272c-15 -22 -30 -28 -44 -28c-26 0 -48 18 -48 45c0 8 2 20 13 36l144 213l-1 1c-21 -12 -59 -19 -89 -19c-124 0 -221 93 -221 222c0 141 106 236 245 236c140 0 244 -99 244 -233c0 -77 -28 -136 -68 -201zM446 494c0 83 -59 151 -147 151
c-87 0 -147 -64 -147 -152c0 -85 58 -148 146 -148c89 0 148 62 148 149z" />
    <glyph glyph-name="colon" unicode=":" horiz-adv-x="300" 
d="M217 415c0 -36 -29 -66 -67 -66c-37 0 -67 29 -67 65s29 66 67 66s67 -29 67 -65zM217 60c0 -35 -29 -66 -67 -66c-37 0 -67 30 -67 65c0 36 29 66 67 66s67 -29 67 -65z" />
    <glyph glyph-name="semicolon" unicode=";" horiz-adv-x="300" 
d="M217 415c0 -35 -29 -66 -67 -66c-37 0 -67 30 -67 65c0 36 29 67 67 67s67 -30 67 -66zM197 58l-52 -161c-11 -32 -29 -38 -45 -38c-24 0 -45 16 -45 42c0 4 0 12 4 25l48 158c10 35 33 41 48 41c25 0 46 -18 46 -44c0 -4 -1 -13 -4 -23z" />
    <glyph glyph-name="less" unicode="&#x3c;" horiz-adv-x="666" 
d="M530 68l-427 192c-26 11 -32 28 -32 43c0 14 6 31 32 43l427 192c13 6 20 7 27 7c22 0 38 -17 38 -38c0 -12 -5 -27 -27 -37l-368 -167l368 -167c22 -10 27 -25 27 -37c0 -21 -16 -38 -38 -38c-7 0 -14 1 -27 7z" />
    <glyph glyph-name="equal" unicode="=" horiz-adv-x="666" 
d="M550 345h-434c-38 0 -45 28 -45 41s7 40 45 40h434c38 0 45 -27 45 -40s-7 -41 -45 -41zM550 180h-434c-38 0 -45 27 -45 40s7 41 45 41h434c38 0 45 -28 45 -41s-7 -40 -45 -40z" />
    <glyph glyph-name="greater" unicode="&#x3e;" horiz-adv-x="666" 
d="M563 260l-427 -192c-13 -6 -20 -7 -27 -7c-22 0 -38 17 -38 38c0 12 5 27 27 37l368 167l-368 167c-22 10 -27 25 -27 37c0 21 16 38 38 38c7 0 14 -1 27 -7l427 -192c26 -11 32 -28 32 -43c0 -14 -6 -31 -32 -43z" />
    <glyph glyph-name="question" unicode="?" horiz-adv-x="500" 
d="M326 60c0 -35 -29 -66 -67 -66c-37 0 -67 30 -67 65c0 36 29 66 67 66s67 -29 67 -65zM301 246c0 -46 -32 -53 -47 -53s-47 7 -47 53c0 73 26 109 73 152l37 35c27 26 51 51 51 99c0 64 -45 105 -109 105c-52 0 -91 -30 -109 -79c-11 -28 -29 -35 -45 -35
c-26 0 -46 18 -46 46c0 6 1 20 8 34c35 75 106 120 198 120c111 0 203 -65 203 -185c0 -85 -39 -123 -96 -171c-39 -33 -71 -59 -71 -121z" />
    <glyph glyph-name="at" unicode="@" horiz-adv-x="800" 
d="M412 478c-71 0 -110 -87 -110 -158c0 -34 13 -89 72 -89c82 0 112 92 112 151c0 47 -16 96 -74 96zM701 76c-78 -64 -177 -94 -286 -94c-229 0 -382 154 -382 371c0 213 171 373 382 373c182 0 354 -106 354 -321c0 -161 -93 -245 -196 -245c-56 0 -87 32 -87 70h-5
c-16 -30 -60 -70 -123 -70c-90 0 -144 67 -144 163c0 113 78 226 198 226c51 0 89 -25 101 -57h2l4 17c6 26 23 33 36 33c21 0 38 -13 38 -36c0 -4 0 -7 -2 -17l-30 -143c-4 -18 -10 -51 -10 -71c0 -23 6 -45 40 -45c59 0 100 70 100 167c0 167 -116 257 -277 257
c-176 0 -294 -131 -294 -303c0 -182 125 -297 303 -297c94 0 163 25 232 78c11 8 20 11 28 11c20 0 35 -15 35 -35c0 -10 -5 -22 -17 -32z" />
    <glyph glyph-name="A" unicode="A" horiz-adv-x="711" 
d="M590 30l-61 144h-350l-61 -145c-13 -31 -34 -37 -48 -37c-27 0 -51 18 -51 48c0 8 2 17 8 30l266 596c19 44 44 50 64 50s44 -6 64 -50l263 -594c6 -14 7 -23 7 -30c0 -31 -24 -50 -51 -50c-16 0 -37 7 -50 38zM355 590l-139 -329h277z" />
    <glyph glyph-name="B" unicode="B" horiz-adv-x="642" 
d="M185 625v-216h129c76 0 139 33 139 110c0 76 -61 106 -155 106h-113zM185 325v-241h124c84 0 176 26 176 122c0 83 -59 119 -167 119h-133zM319 0h-174c-40 0 -59 19 -59 59v590c0 40 19 59 59 59h185c107 0 222 -44 222 -179c0 -78 -50 -134 -124 -154v-2
c91 -11 157 -73 157 -172c0 -136 -118 -201 -266 -201z" />
    <glyph glyph-name="C" unicode="C" horiz-adv-x="708" 
d="M423 -18c-217 0 -373 155 -373 373c0 221 162 371 377 371c83 0 165 -27 216 -74c17 -16 20 -30 20 -40c0 -26 -19 -47 -47 -47c-12 0 -24 4 -42 20c-32 29 -86 54 -147 54c-164 0 -269 -129 -269 -284c0 -159 103 -285 266 -285c64 0 123 21 169 69c16 16 28 20 40 20
c24 0 44 -17 44 -44c0 -13 -5 -28 -19 -42c-50 -52 -129 -91 -235 -91z" />
    <glyph glyph-name="D" unicode="D" horiz-adv-x="761" 
d="M329 0h-184c-40 0 -59 19 -59 59v590c0 40 19 59 59 59h184c181 0 382 -103 382 -354c0 -242 -201 -354 -382 -354zM185 622v-535h124c171 0 296 98 296 267c0 175 -125 268 -296 268h-124z" />
    <glyph glyph-name="E" unicode="E" horiz-adv-x="601" 
d="M479 324h-294v-236h330c42 0 48 -30 48 -44s-6 -44 -48 -44h-370c-40 0 -59 19 -59 59v590c0 40 19 59 59 59h354c43 0 49 -30 49 -44c0 -13 -6 -43 -49 -43h-314v-212h294c42 0 48 -29 48 -42s-6 -43 -48 -43z" />
    <glyph glyph-name="F" unicode="F" horiz-adv-x="568" 
d="M185 316v-268c0 -47 -33 -56 -49 -56c-17 0 -50 9 -50 56v601c0 40 19 59 59 59h342c43 0 49 -30 49 -44c0 -13 -6 -43 -49 -43h-302v-220h281c42 0 48 -30 48 -42c0 -13 -6 -43 -48 -43h-281z" />
    <glyph glyph-name="G" unicode="G" horiz-adv-x="776" 
d="M694 330v-244c0 -34 -13 -50 -49 -64c-68 -26 -137 -40 -217 -40c-221 0 -378 155 -378 373c0 221 162 371 377 371c93 0 168 -24 221 -65c19 -15 24 -29 24 -41c0 -27 -19 -47 -45 -47c-10 0 -23 3 -38 14c-41 30 -95 52 -161 52c-166 0 -270 -129 -270 -284
c0 -158 104 -284 273 -284c66 0 124 13 165 35v197h-118c-40 0 -47 29 -47 43c0 13 7 41 47 41h158c39 0 58 -18 58 -57z" />
    <glyph glyph-name="H" unicode="H" horiz-adv-x="729" 
d="M544 412v248c0 47 33 56 50 56c16 0 49 -9 49 -56v-612c0 -47 -33 -56 -49 -56c-17 0 -50 9 -50 56v276h-359v-276c0 -47 -33 -56 -49 -56c-17 0 -50 9 -50 56v612c0 47 33 56 50 56c16 0 49 -9 49 -56v-248h359z" />
    <glyph glyph-name="I" unicode="I" horiz-adv-x="271" 
d="M185 660v-612c0 -47 -33 -56 -49 -56c-17 0 -50 9 -50 56v612c0 47 33 56 50 56c16 0 49 -9 49 -56z" />
    <glyph glyph-name="J" unicode="J" horiz-adv-x="495" 
d="M415 217c0 -98 -35 -235 -201 -235c-84 0 -140 37 -173 88c-10 15 -15 30 -15 42c0 25 20 45 47 45c14 0 30 -4 45 -30c22 -38 52 -57 91 -57c85 0 107 68 107 151v439c0 47 33 56 49 56c17 0 50 -9 50 -56v-443z" />
    <glyph glyph-name="K" unicode="K" horiz-adv-x="659" 
d="M609 84c17 -17 20 -30 20 -43c0 -25 -19 -49 -50 -49c-12 0 -29 6 -43 21l-349 353h-2v-318c0 -47 -33 -56 -49 -56c-17 0 -50 9 -50 56v612c0 47 33 56 50 56c16 0 49 -9 49 -56v-264h2l332 301c16 14 30 19 41 19c27 0 47 -19 47 -44c0 -11 -3 -27 -21 -42l-288 -246z
" />
    <glyph glyph-name="L" unicode="L" horiz-adv-x="511" 
d="M86 59v601c0 47 33 56 50 56c16 0 49 -9 49 -56v-572h275c42 0 49 -30 49 -44s-7 -44 -49 -44h-315c-40 0 -59 19 -59 59z" />
    <glyph glyph-name="M" unicode="M" horiz-adv-x="903" 
d="M817 47c0 -47 -33 -55 -49 -55s-50 8 -50 55v461h-2l-207 -471c-16 -38 -41 -45 -59 -45s-43 7 -60 45l-205 469h-3v-460c0 -46 -32 -54 -48 -54s-48 8 -48 54v602c0 57 41 68 62 68c20 0 47 -7 69 -57l235 -540h2l234 540c22 50 49 57 68 57c21 0 61 -11 61 -68v-601z
" />
    <glyph glyph-name="N" unicode="N" horiz-adv-x="772" 
d="M549 43l-362 506h-2v-501c0 -47 -33 -56 -49 -56c-17 0 -50 9 -50 56v594c0 62 42 74 63 74c23 0 44 -9 74 -51l362 -502h2v497c0 47 33 56 50 56c16 0 49 -9 49 -56v-594c0 -62 -42 -74 -63 -74c-24 0 -44 9 -74 51z" />
    <glyph glyph-name="O" unicode="O" horiz-adv-x="849" 
d="M800 355c0 -218 -160 -373 -376 -373c-215 0 -374 155 -374 373c0 221 159 371 374 371c216 0 376 -150 376 -371zM692 355c0 155 -103 284 -268 284c-163 0 -267 -129 -267 -284c0 -158 105 -284 267 -284c164 0 268 126 268 284z" />
    <glyph glyph-name="P" unicode="P" horiz-adv-x="595" 
d="M185 624v-229h105c97 0 165 32 165 116c0 85 -70 113 -163 113h-107zM145 708h157c153 0 253 -59 253 -197c0 -142 -111 -200 -258 -200h-112v-263c0 -47 -33 -56 -49 -56c-17 0 -50 9 -50 56v601c0 40 19 59 59 59z" />
    <glyph glyph-name="Q" unicode="Q" horiz-adv-x="848" 
d="M679 363c0 151 -102 276 -260 276c-156 0 -262 -123 -262 -276c0 -155 102 -276 261 -276c157 0 261 121 261 276zM785 363c0 -126 -60 -224 -146 -278v-2h157c39 0 46 -28 46 -41c0 -14 -7 -42 -46 -42h-378c-216 0 -368 143 -368 363c0 213 158 363 369 363
s366 -150 366 -363z" />
    <glyph glyph-name="R" unicode="R" horiz-adv-x="614" 
d="M185 624v-226h114c93 0 166 29 166 114s-73 112 -159 112h-121zM477 19l-186 296h-106v-267c0 -47 -33 -56 -49 -56c-17 0 -50 9 -50 56v601c0 40 19 59 59 59h168c137 0 252 -52 252 -196c0 -104 -70 -170 -171 -187l166 -250c9 -14 11 -25 11 -34
c0 -28 -20 -49 -50 -49c-14 0 -31 6 -44 27z" />
    <glyph glyph-name="S" unicode="S" horiz-adv-x="569" 
d="M139 124c40 -39 85 -57 133 -57c66 0 142 37 142 121c0 86 -78 109 -168 137s-184 69 -184 199c0 141 126 202 242 202c66 0 126 -20 166 -54c17 -15 22 -28 22 -40c0 -24 -19 -44 -45 -44c-9 0 -19 1 -37 15c-35 28 -70 40 -110 40c-64 0 -138 -35 -138 -115
c0 -77 65 -98 145 -124c95 -30 208 -66 208 -207c0 -147 -119 -215 -245 -215c-73 0 -144 22 -194 68c-17 15 -21 31 -21 43c0 25 19 47 47 47c11 0 23 -3 37 -16z" />
    <glyph glyph-name="T" unicode="T" horiz-adv-x="569" 
d="M49 708h471c43 0 49 -30 49 -44c0 -13 -6 -43 -49 -43h-186v-573c0 -47 -33 -56 -50 -56c-16 0 -49 9 -49 56v573h-186c-43 0 -49 30 -49 43c0 14 6 44 49 44z" />
    <glyph glyph-name="U" unicode="U" horiz-adv-x="712" 
d="M532 268v392c0 47 33 56 49 56c17 0 50 -9 50 -56v-398c0 -145 -88 -280 -275 -280c-186 0 -275 135 -275 280v398c0 47 33 56 50 56c16 0 49 -9 49 -56v-392c0 -97 44 -197 176 -197s176 100 176 197z" />
    <glyph glyph-name="V" unicode="V" horiz-adv-x="642" 
d="M622 637l-233 -589c-20 -50 -47 -56 -69 -56c-21 0 -50 6 -69 56l-231 589c-5 13 -7 24 -7 30c0 28 22 49 51 49c16 0 37 -7 50 -41l207 -547h3l205 548c13 33 33 40 50 40c28 0 50 -20 50 -48c0 -6 -1 -17 -7 -31z" />
    <glyph glyph-name="W" unicode="W" horiz-adv-x="988" 
d="M967 643l-177 -592c-15 -51 -48 -59 -69 -59c-20 0 -52 8 -68 59l-158 514h-2l-158 -514c-16 -51 -48 -59 -68 -59c-21 0 -53 8 -68 59l-177 590c-3 11 -4 20 -4 26c0 29 23 49 51 49c17 0 40 -8 51 -46l150 -526h2l156 509c17 56 47 63 68 63s50 -7 67 -63l155 -509h2
l150 527c11 38 35 45 52 45c26 0 49 -19 49 -49c0 -6 -1 -14 -4 -24z" />
    <glyph glyph-name="X" unicode="X" horiz-adv-x="668" 
d="M613 79c12 -17 16 -29 16 -39c0 -29 -23 -49 -51 -49c-13 0 -28 5 -45 28l-203 281l-201 -281c-16 -22 -32 -27 -45 -27c-27 0 -49 20 -49 48c0 10 4 22 16 39l218 296l-193 256c-12 16 -15 27 -15 38c0 26 23 47 49 47c13 0 29 -4 45 -26l179 -247l175 247
c16 23 31 26 44 26c26 0 46 -19 46 -45c0 -10 -3 -22 -13 -36l-192 -262z" />
    <glyph glyph-name="Y" unicode="Y" horiz-adv-x="624" 
d="M597 635l-236 -329v-258c0 -47 -33 -56 -49 -56c-17 0 -50 9 -50 56v258l-234 324c-12 17 -14 30 -14 38c0 28 22 48 51 48c14 0 30 -5 48 -31l201 -296l203 299c16 24 33 28 46 28c24 0 47 -17 47 -45c0 -9 -3 -22 -13 -36z" />
    <glyph glyph-name="Z" unicode="Z" horiz-adv-x="592" 
d="M518 0h-433c-51 0 -60 36 -60 53s8 34 27 59l380 509h-350c-41 0 -49 29 -49 43s8 44 49 44h421c49 0 58 -36 58 -53c0 -16 -7 -32 -25 -56l-383 -511h365c41 0 49 -30 49 -44s-8 -44 -49 -44z" />
    <glyph glyph-name="bracketleft" unicode="[" horiz-adv-x="315" 
d="M207 -156h-99c-33 0 -49 16 -49 49v790c0 33 16 49 49 49h99c32 0 37 -22 37 -33s-5 -33 -37 -33h-64v-756h64c32 0 37 -22 37 -33s-5 -33 -37 -33z" />
    <glyph glyph-name="backslash" unicode="\" horiz-adv-x="380" 
d="M87 711l279 -681c5 -12 6 -18 6 -24c0 -21 -16 -36 -36 -36c-11 0 -27 4 -37 27l-279 681c-5 12 -6 18 -6 24c0 21 16 36 36 36c11 0 27 -4 37 -27z" />
    <glyph glyph-name="bracketright" unicode="]" horiz-adv-x="315" 
d="M208 -156h-100c-32 0 -37 22 -37 33s5 33 37 33h64v756h-64c-32 0 -37 22 -37 33s5 33 37 33h100c33 0 48 -16 48 -49v-790c0 -33 -15 -49 -48 -49z" />
    <glyph glyph-name="asciicircum" unicode="^" horiz-adv-x="666" 
d="M381 683l185 -318c6 -11 8 -19 8 -26c0 -22 -17 -38 -38 -38c-11 0 -25 5 -37 26l-167 283l-165 -283c-12 -21 -26 -26 -37 -26c-21 0 -38 16 -38 38c0 7 2 15 8 26l185 318c16 27 33 33 48 33s32 -6 48 -33z" />
    <glyph glyph-name="underscore" unicode="_" horiz-adv-x="500" 
d="M465 -138h-430c-30 0 -35 22 -35 32c0 9 5 31 35 31h430c30 0 35 -22 35 -31c0 -10 -5 -32 -35 -32z" />
    <glyph glyph-name="grave" unicode="`" 
d="M74 703l75 -76c16 -16 18 -26 18 -35c0 -18 -14 -36 -35 -36c-10 0 -21 2 -36 17l-77 73c-17 15 -21 29 -21 38c0 22 16 38 38 38c9 0 22 -3 38 -19z" />
    <glyph glyph-name="a" unicode="a" horiz-adv-x="542" 
d="M376 226h-23c-93 0 -211 -10 -211 -90c0 -56 50 -74 97 -74c88 0 137 59 137 139v25zM380 40v28h-3c-34 -51 -88 -80 -159 -80c-75 0 -172 37 -172 146c0 143 170 160 330 160v13c0 70 -47 104 -117 104c-40 0 -76 -13 -112 -37c-10 -7 -20 -10 -28 -10
c-20 0 -36 16 -36 37c0 13 5 26 21 37c41 30 99 49 164 49c137 0 198 -81 198 -186v-261c0 -41 -29 -48 -42 -48c-14 0 -44 7 -44 48z" />
    <glyph glyph-name="b" unicode="b" horiz-adv-x="636" 
d="M489 238c0 89 -55 171 -158 171c-96 0 -160 -81 -160 -172s64 -171 160 -171c103 0 158 83 158 172zM83 42v670c0 44 31 52 47 52s47 -8 47 -52v-309h3c32 46 91 84 169 84c141 0 237 -109 237 -249c0 -139 -93 -251 -239 -251c-67 0 -134 31 -171 88h-2v-33
c0 -43 -31 -50 -45 -50c-15 0 -46 7 -46 50z" />
    <glyph glyph-name="c" unicode="c" horiz-adv-x="494" 
d="M395 98c13 10 23 14 33 14c24 0 39 -18 39 -38c0 -13 -4 -26 -22 -41c-37 -31 -89 -46 -142 -46c-147 0 -253 99 -253 250c0 149 108 250 253 250c50 0 102 -14 139 -44c18 -14 24 -29 24 -41c0 -25 -18 -41 -42 -41c-10 0 -19 3 -37 18s-47 29 -83 29
c-98 0 -155 -80 -155 -171c0 -90 55 -170 154 -170c38 0 67 11 92 31z" />
    <glyph glyph-name="d" unicode="d" horiz-adv-x="635" 
d="M147 238c0 -89 54 -172 157 -172c96 0 160 80 160 171s-64 172 -160 172c-103 0 -157 -82 -157 -171zM552 42c0 -43 -31 -50 -45 -50c-15 0 -46 7 -46 50v33h-2c-36 -57 -104 -88 -171 -88c-146 0 -239 112 -239 251c0 140 96 249 238 249c77 0 136 -38 169 -84h2v309
c0 44 32 52 47 52c16 0 47 -8 47 -52v-670z" />
    <glyph glyph-name="e" unicode="e" horiz-adv-x="573" 
d="M472 209h-326c3 -81 71 -144 154 -144c57 0 93 24 122 51c13 12 23 15 33 15c22 0 40 -15 40 -39c0 -8 -3 -21 -15 -34c-46 -47 -105 -71 -180 -71c-144 0 -250 100 -250 249c0 148 106 251 245 251c119 0 207 -69 225 -199c2 -14 2 -21 2 -31c0 -33 -17 -48 -50 -48z
M146 279h282c-2 75 -46 134 -133 134c-81 0 -143 -60 -149 -134z" />
    <glyph glyph-name="f" unicode="f" horiz-adv-x="310" 
d="M194 397v-353c0 -44 -31 -52 -47 -52s-47 8 -47 52v353h-59c-37 0 -43 26 -43 39c0 12 6 38 43 38h59v99c0 111 49 195 172 195c52 0 67 -18 67 -43c0 -18 -12 -38 -45 -38h-15c-68 0 -85 -47 -85 -114v-99h76c37 0 43 -26 43 -38c0 -13 -6 -39 -43 -39h-76z" />
    <glyph glyph-name="g" unicode="g" horiz-adv-x="632" 
d="M91 -174c-18 14 -24 29 -24 41c0 23 17 44 44 44c11 0 21 -3 36 -14c46 -36 94 -55 144 -55c125 0 167 77 167 175v61h-2c-35 -53 -100 -82 -167 -82c-145 0 -239 108 -239 244s93 247 238 247c68 0 135 -30 171 -89h2v34c0 43 31 50 46 50c14 0 45 -7 45 -50v-408
c0 -138 -65 -264 -262 -264c-72 0 -148 25 -199 66zM147 242c0 -87 58 -167 157 -167c97 0 161 73 161 167c0 90 -65 167 -161 167c-99 0 -157 -76 -157 -167z" />
    <glyph glyph-name="h" unicode="h" horiz-adv-x="584" 
d="M412 44v218c0 77 -20 145 -107 145c-74 0 -128 -62 -128 -156v-207c0 -44 -31 -52 -47 -52s-47 8 -47 52v668c0 44 31 52 47 52s47 -8 47 -52v-310h2c22 47 82 85 150 85c122 0 177 -87 177 -193v-250c0 -44 -31 -52 -47 -52s-47 8 -47 52z" />
    <glyph glyph-name="i" unicode="i" horiz-adv-x="259" 
d="M192 645c0 -34 -29 -60 -63 -60s-62 27 -62 60c0 34 28 61 62 61s63 -26 63 -61zM176 430v-386c0 -44 -31 -52 -47 -52s-47 8 -47 52v386c0 44 31 52 47 52s47 -8 47 -52z" />
    <glyph glyph-name="j" unicode="j" horiz-adv-x="260" 
d="M193 645c0 -34 -29 -60 -63 -60c-35 0 -63 27 -63 60c0 34 28 61 63 61c34 0 63 -26 63 -61zM83 -61v491c0 44 31 52 47 52s47 -8 47 -52v-490c0 -95 -29 -180 -151 -180c-38 0 -60 15 -60 43c0 23 15 38 40 38h12c53 0 65 41 65 98z" />
    <glyph glyph-name="k" unicode="k" horiz-adv-x="527" 
d="M407 14l-227 232h-3v-202c0 -44 -31 -52 -47 -52c-15 0 -47 8 -47 52v668c0 44 32 52 47 52c16 0 47 -8 47 -52v-444h3l212 197c13 12 26 17 37 17c26 0 45 -19 45 -44c0 -10 -4 -24 -20 -38l-163 -141l188 -182c16 -16 18 -30 18 -39c0 -26 -20 -46 -47 -46
c-14 0 -26 5 -43 22z" />
    <glyph glyph-name="l" unicode="l" horiz-adv-x="260" 
d="M83 44v668c0 44 31 52 47 52s47 -8 47 -52v-668c0 -44 -31 -52 -47 -52s-47 8 -47 52z" />
    <glyph glyph-name="m" unicode="m" horiz-adv-x="887" 
d="M81 44v388c0 43 30 50 45 50c14 0 44 -7 44 -50v-36h3c24 50 79 91 151 91c63 0 118 -28 147 -95c32 61 93 95 161 95c122 0 177 -87 177 -193v-250c0 -44 -31 -52 -47 -52s-47 8 -47 52v219c0 77 -23 145 -105 145c-86 0 -120 -78 -120 -152v-212c0 -44 -31 -52 -47 -52
s-47 8 -47 52v238c0 74 -25 126 -100 126c-69 0 -121 -62 -121 -156v-208c0 -44 -31 -52 -47 -52s-47 8 -47 52z" />
    <glyph glyph-name="n" unicode="n" horiz-adv-x="582" 
d="M170 432v-36h3c23 51 86 91 154 91c122 0 177 -87 177 -193v-250c0 -44 -31 -52 -47 -52s-47 8 -47 52v219c0 77 -21 145 -108 145c-74 0 -127 -62 -127 -156v-208c0 -44 -31 -52 -47 -52s-47 8 -47 52v388c0 43 30 50 45 50c14 0 44 -7 44 -50z" />
    <glyph glyph-name="o" unicode="o" horiz-adv-x="610" 
d="M561 238c0 -146 -111 -251 -256 -251s-255 105 -255 251s110 249 255 249s256 -103 256 -249zM463 238c0 90 -56 171 -158 171c-101 0 -158 -81 -158 -171s57 -172 158 -172c102 0 158 82 158 172z" />
    <glyph glyph-name="p" unicode="p" horiz-adv-x="634" 
d="M487 238c0 89 -55 171 -158 171c-96 0 -160 -81 -160 -172s64 -171 160 -171c103 0 158 83 158 172zM584 238c0 -139 -93 -251 -239 -251c-67 0 -132 31 -167 84h-3v-267c0 -44 -31 -52 -47 -52s-47 8 -47 52v627c0 44 31 51 46 51s46 -7 46 -51v-31h3
c31 50 93 87 171 87c141 0 237 -109 237 -249z" />
    <glyph glyph-name="q" unicode="q" horiz-adv-x="633" 
d="M147 238c0 -89 54 -172 157 -172c96 0 160 80 160 171s-64 172 -160 172c-103 0 -157 -82 -157 -171zM458 -196v267h-2c-35 -53 -101 -84 -168 -84c-146 0 -239 112 -239 251c0 140 96 249 238 249c77 0 139 -37 171 -87h3v31c0 44 31 51 45 51c15 0 46 -7 46 -51v-627
c0 -44 -31 -52 -47 -52s-47 8 -47 52z" />
    <glyph glyph-name="r" unicode="r" horiz-adv-x="362" 
d="M170 432v-38h3c23 53 76 93 138 93c29 0 55 -12 55 -42c0 -33 -25 -45 -56 -45h-7c-74 0 -128 -55 -128 -157v-199c0 -44 -31 -52 -47 -52s-47 8 -47 52v388c0 43 30 50 45 50c14 0 44 -7 44 -50z" />
    <glyph glyph-name="s" unicode="s" horiz-adv-x="444" 
d="M318 377c-28 26 -59 36 -91 36c-43 0 -88 -17 -88 -62c0 -40 36 -55 108 -71c90 -20 159 -56 159 -140c0 -112 -93 -153 -189 -153c-57 0 -116 18 -156 53c-16 14 -20 29 -20 38c0 24 17 42 41 42c11 0 22 -4 35 -15c30 -26 63 -42 102 -42c47 0 94 17 94 69
c0 44 -43 60 -124 79c-63 15 -138 41 -138 131c0 102 89 145 179 145c51 0 102 -15 137 -45c18 -15 22 -29 22 -38c0 -22 -16 -41 -41 -41c-9 0 -19 4 -30 14z" />
    <glyph glyph-name="t" unicode="t" horiz-adv-x="329" 
d="M293 3c-15 -7 -38 -11 -61 -11c-90 0 -138 51 -138 148v257h-55c-37 0 -44 26 -44 38c0 13 7 39 44 39h55v92c0 44 31 52 47 52c15 0 46 -8 46 -52v-92h91c37 0 43 -26 43 -39c0 -12 -6 -38 -43 -38h-91v-247c0 -58 22 -79 57 -79c7 0 13 1 21 3c7 2 13 3 17 3
c23 0 37 -17 37 -37c0 -14 -8 -28 -26 -37z" />
    <glyph glyph-name="u" unicode="u" horiz-adv-x="582" 
d="M411 42v36h-3c-23 -51 -86 -91 -154 -91c-122 0 -177 87 -177 193v250c0 44 31 52 47 52s47 -8 47 -52v-219c0 -77 21 -145 108 -145c74 0 127 62 127 156v208c0 44 31 52 47 52s47 -8 47 -52v-388c0 -43 -30 -50 -44 -50c-15 0 -45 7 -45 50z" />
    <glyph glyph-name="v" unicode="v" horiz-adv-x="504" 
d="M321 44c-18 -43 -47 -52 -69 -52s-51 9 -69 52l-155 366c-5 12 -6 20 -6 27c0 25 21 45 47 45c15 0 35 -5 48 -38l135 -342h2l136 342c12 32 32 38 47 38c26 0 46 -19 46 -44c0 -5 -1 -14 -6 -26z" />
    <glyph glyph-name="w" unicode="w" horiz-adv-x="773" 
d="M619 43c-15 -43 -43 -51 -63 -51s-49 8 -63 51l-106 314h-2l-104 -314c-14 -43 -43 -51 -62 -51c-20 0 -49 8 -64 51l-127 372c-3 9 -4 17 -4 22c0 28 21 45 48 45c17 0 36 -7 46 -40l102 -330h2l107 321c14 43 40 49 59 49c18 0 45 -6 59 -49l107 -321h2l102 331
c10 32 29 39 45 39c27 0 47 -18 47 -44c0 -4 -1 -14 -4 -23z" />
    <glyph glyph-name="x" unicode="x" horiz-adv-x="511" 
d="M466 75c13 -15 16 -27 16 -36c0 -26 -20 -47 -47 -47c-12 0 -25 3 -42 25l-137 169l-142 -172c-15 -19 -30 -22 -40 -22c-25 0 -44 18 -44 43c0 9 4 22 16 37l150 177l-131 153c-12 13 -16 26 -16 35c0 27 21 45 46 45c12 0 26 -3 42 -24l119 -150l122 153
c13 17 28 21 39 21c24 0 43 -17 43 -42c0 -8 -2 -21 -14 -35l-132 -155z" />
    <glyph glyph-name="y" unicode="y" horiz-adv-x="504" 
d="M477 413l-213 -525c-35 -86 -75 -128 -164 -128c-37 0 -67 15 -67 44c0 18 13 39 39 39c7 0 14 -1 24 -1c36 0 62 15 86 79l30 79l-184 410c-5 11 -6 21 -6 27c0 26 21 45 48 45c16 0 34 -6 47 -37l143 -342h2l127 340c12 32 31 39 47 39c27 0 47 -18 47 -43
c0 -6 -1 -13 -6 -26z" />
    <glyph glyph-name="z" unicode="z" horiz-adv-x="462" 
d="M394 0h-318c-44 0 -51 32 -51 47c0 13 5 29 22 49l257 301h-223c-37 0 -44 26 -44 39c0 12 7 38 44 38h294c45 0 52 -32 52 -47c0 -13 -5 -29 -22 -49l-258 -299h247c38 0 44 -27 44 -39c0 -13 -6 -40 -44 -40z" />
    <glyph glyph-name="braceleft" unicode="{" horiz-adv-x="315" 
d="M-3 288c0 20 11 34 33 42c34 13 49 41 49 101v166c0 90 42 135 131 135h22c35 0 41 -23 41 -35c0 -11 -5 -34 -38 -34h-16c-45 0 -56 -31 -56 -77v-166c0 -103 -58 -123 -93 -131v-2c35 -8 93 -28 93 -131v-166c0 -46 11 -77 56 -77h16c33 0 38 -23 38 -34
c0 -12 -6 -35 -41 -35h-22c-89 0 -131 45 -131 135v166c0 60 -15 88 -49 101c-22 8 -33 22 -33 42z" />
    <glyph glyph-name="bar" unicode="|" horiz-adv-x="222" 
d="M70 -213v926c0 38 27 45 41 45c13 0 41 -7 41 -45v-926c0 -38 -28 -45 -41 -45c-14 0 -41 7 -41 45z" />
    <glyph glyph-name="braceright" unicode="}" horiz-adv-x="315" 
d="M318 288c0 -20 -11 -34 -33 -42c-34 -13 -49 -41 -49 -101v-166c0 -90 -42 -135 -131 -135h-22c-35 0 -41 23 -41 35c0 11 5 34 38 34h16c45 0 56 31 56 77v166c0 103 58 123 93 131v2c-35 8 -93 28 -93 131v166c0 46 -11 77 -56 77h-16c-33 0 -38 23 -38 34
c0 12 6 35 41 35h22c89 0 131 -45 131 -135v-166c0 -60 15 -88 49 -101c22 -8 33 -22 33 -42z" />
    <glyph glyph-name="asciitilde" unicode="~" horiz-adv-x="666" 
d="M436 307c29 0 52 16 70 41c12 17 23 22 35 22c21 0 37 -15 37 -36c0 -9 -3 -20 -12 -34c-29 -44 -70 -76 -126 -76c-35 0 -67 8 -114 37c-41 25 -66 39 -96 39c-29 0 -52 -16 -69 -42c-12 -16 -23 -22 -35 -22c-22 0 -37 16 -37 36c0 9 3 21 12 34c29 44 70 77 126 77
c34 0 70 -10 112 -37c40 -25 68 -39 97 -39z" />
    <glyph glyph-name="uni00A0" unicode="&#xa0;" 
 />
    <glyph glyph-name="Agrave" unicode="&#xc0;" horiz-adv-x="711" 
d="M590 30l-61 144h-350l-61 -145c-13 -31 -34 -37 -48 -37c-27 0 -51 18 -51 48c0 8 2 17 8 30l266 596c19 44 44 50 64 50s44 -6 64 -50l263 -594c6 -14 7 -23 7 -30c0 -31 -24 -50 -51 -50c-16 0 -37 7 -50 38zM355 590l-139 -329h277zM293 903l75 -76
c16 -16 18 -26 18 -35c0 -18 -14 -36 -35 -36c-10 0 -21 2 -36 17l-77 73c-17 15 -21 29 -21 38c0 22 16 38 38 38c9 0 22 -3 38 -19z" />
    <glyph glyph-name="Aacute" unicode="&#xc1;" horiz-adv-x="711" 
d="M590 30l-61 144h-350l-61 -145c-13 -31 -34 -37 -48 -37c-27 0 -51 18 -51 48c0 8 2 17 8 30l266 596c19 44 44 50 64 50s44 -6 64 -50l263 -594c6 -14 7 -23 7 -30c0 -31 -24 -50 -51 -50c-16 0 -37 7 -50 38zM355 590l-139 -329h277zM346 827l75 76c16 16 29 19 38 19
c22 0 38 -16 38 -38c0 -9 -4 -23 -21 -38l-77 -73c-15 -15 -26 -17 -36 -17c-21 0 -35 18 -35 36c0 9 2 19 18 35z" />
    <glyph glyph-name="Acircumflex" unicode="&#xc2;" horiz-adv-x="711" 
d="M590 30l-61 144h-350l-61 -145c-13 -31 -34 -37 -48 -37c-27 0 -51 18 -51 48c0 8 2 17 8 30l266 596c19 44 44 50 64 50s44 -6 64 -50l263 -594c6 -14 7 -23 7 -30c0 -31 -24 -50 -51 -50c-16 0 -37 7 -50 38zM355 590l-139 -329h277zM356 851l-86 -81
c-11 -10 -19 -14 -29 -14c-18 0 -32 14 -32 32c0 7 2 17 14 28l81 80c21 21 35 26 51 26c17 0 30 -6 51 -26l81 -79c12 -12 14 -21 14 -29c0 -18 -15 -32 -33 -32c-8 0 -18 3 -29 14z" />
    <glyph glyph-name="Atilde" unicode="&#xc3;" horiz-adv-x="711" 
d="M590 30l-61 144h-350l-61 -145c-13 -31 -34 -37 -48 -37c-27 0 -51 18 -51 48c0 8 2 17 8 30l266 596c19 44 44 50 64 50s44 -6 64 -50l263 -594c6 -14 7 -23 7 -30c0 -31 -24 -50 -51 -50c-16 0 -37 7 -50 38zM355 590l-139 -329h277zM425 776c-26 0 -50 10 -75 23
c-28 14 -45 21 -62 21c-16 0 -28 -9 -38 -31c-8 -19 -19 -23 -30 -23c-19 0 -31 11 -31 31c0 4 1 13 5 23c15 39 45 68 93 68c26 0 48 -10 75 -23s44 -21 62 -21c16 0 28 9 38 31c8 19 19 23 30 23c18 0 30 -11 30 -30c0 -5 -1 -14 -5 -24c-15 -39 -44 -68 -92 -68z" />
    <glyph glyph-name="Adieresis" unicode="&#xc4;" horiz-adv-x="711" 
d="M590 30l-61 144h-350l-61 -145c-13 -31 -34 -37 -48 -37c-27 0 -51 18 -51 48c0 8 2 17 8 30l266 596c19 44 44 50 64 50s44 -6 64 -50l263 -594c6 -14 7 -23 7 -30c0 -31 -24 -50 -51 -50c-16 0 -37 7 -50 38zM355 590l-139 -329h277zM198 845c0 32 26 61 62 61
c35 0 62 -27 62 -61c0 -33 -27 -60 -62 -60c-36 0 -62 29 -62 60zM392 845c0 32 26 61 62 61c35 0 62 -27 62 -61c0 -33 -27 -60 -62 -60c-36 0 -62 29 -62 60z" />
    <glyph glyph-name="Aring" unicode="&#xc5;" horiz-adv-x="711" 
d="M590 30l-61 144h-350l-61 -145c-13 -31 -34 -37 -48 -37c-27 0 -51 18 -51 48c0 8 2 17 8 30l266 596c19 44 44 50 64 50s44 -6 64 -50l263 -594c6 -14 7 -23 7 -30c0 -31 -24 -50 -51 -50c-16 0 -37 7 -50 38zM355 590l-139 -329h277zM456 853c0 -57 -45 -99 -101 -99
c-55 0 -100 42 -100 98c0 57 44 99 100 99s101 -42 101 -98zM415 853c0 33 -27 58 -60 58s-59 -26 -59 -59c0 -32 26 -57 59 -57s60 25 60 58z" />
    <glyph glyph-name="AE" unicode="&#xc6;" horiz-adv-x="1015" 
d="M524 192h-295l-111 -170c-15 -24 -32 -30 -46 -30c-26 0 -49 19 -49 47c0 9 2 21 11 35l404 602c14 21 30 32 59 32h416c43 0 49 -30 49 -44c0 -13 -6 -43 -49 -43h-290v-212h270c42 0 48 -29 48 -42s-6 -43 -48 -43h-270v-236h306c42 0 48 -30 48 -44s-6 -44 -48 -44
h-346c-40 0 -59 19 -59 59v133zM510 621l-225 -343h239v343h-14z" />
    <glyph glyph-name="Ccedilla" unicode="&#xc7;" horiz-adv-x="708" 
d="M322 -169c7 0 14 -2 23 -5c16 -5 33 -7 49 -7c33 0 58 11 58 36c0 22 -16 35 -44 35c-9 0 -16 -1 -22 -2c-10 -2 -15 -3 -21 -3c-17 0 -24 10 -24 21c0 6 2 11 8 21l36 57c-197 16 -335 166 -335 371c0 221 162 371 377 371c83 0 165 -27 216 -74c17 -16 20 -30 20 -40
c0 -26 -19 -47 -47 -47c-12 0 -24 4 -42 20c-32 29 -86 54 -147 54c-164 0 -269 -129 -269 -284c0 -159 103 -285 266 -285c64 0 123 21 169 69c16 16 28 20 40 20c24 0 44 -17 44 -44c0 -13 -5 -28 -19 -42c-47 -49 -119 -86 -215 -90l-33 -50c8 1 18 2 27 2
c43 0 87 -21 87 -79c0 -68 -67 -91 -127 -91c-28 0 -55 5 -76 12c-20 7 -25 18 -25 28c0 12 10 26 26 26z" />
    <glyph glyph-name="Eth" unicode="&#xd0;" horiz-adv-x="761" 
d="M329 0h-184c-40 0 -59 19 -59 59v276h-38c-34 0 -39 23 -39 35c0 11 5 35 39 35h38v244c0 40 19 59 59 59h184c181 0 382 -103 382 -354c0 -242 -201 -354 -382 -354zM185 622v-217h207c33 0 39 -24 39 -35c0 -12 -6 -35 -39 -35h-207v-248h124c171 0 296 98 296 267
c0 175 -125 268 -296 268h-124z" />
    <glyph glyph-name="Egrave" unicode="&#xc8;" horiz-adv-x="601" 
d="M479 324h-294v-236h330c42 0 48 -30 48 -44s-6 -44 -48 -44h-370c-40 0 -59 19 -59 59v590c0 40 19 59 59 59h354c43 0 49 -30 49 -44c0 -13 -6 -43 -49 -43h-314v-212h294c42 0 48 -29 48 -42s-6 -43 -48 -43zM284 903l75 -76c16 -16 18 -26 18 -35
c0 -18 -14 -36 -35 -36c-10 0 -21 2 -36 17l-77 73c-17 15 -21 29 -21 38c0 22 16 38 38 38c9 0 22 -3 38 -19z" />
    <glyph glyph-name="Eacute" unicode="&#xc9;" horiz-adv-x="601" 
d="M479 324h-294v-236h330c42 0 48 -30 48 -44s-6 -44 -48 -44h-370c-40 0 -59 19 -59 59v590c0 40 19 59 59 59h354c43 0 49 -30 49 -44c0 -13 -6 -43 -49 -43h-314v-212h294c42 0 48 -29 48 -42s-6 -43 -48 -43zM292 827l75 76c16 16 29 19 38 19c22 0 38 -16 38 -38
c0 -9 -4 -23 -21 -38l-77 -73c-15 -15 -26 -17 -36 -17c-21 0 -35 18 -35 36c0 9 2 19 18 35z" />
    <glyph glyph-name="Ecircumflex" unicode="&#xca;" horiz-adv-x="601" 
d="M479 324h-294v-236h330c42 0 48 -30 48 -44s-6 -44 -48 -44h-370c-40 0 -59 19 -59 59v590c0 40 19 59 59 59h354c43 0 49 -30 49 -44c0 -13 -6 -43 -49 -43h-314v-212h294c42 0 48 -29 48 -42s-6 -43 -48 -43zM322 851l-86 -81c-11 -10 -19 -14 -29 -14
c-18 0 -32 14 -32 32c0 7 2 17 14 28l81 80c21 21 35 26 51 26c17 0 30 -6 51 -26l81 -79c12 -12 14 -21 14 -29c0 -18 -15 -32 -33 -32c-8 0 -18 3 -29 14z" />
    <glyph glyph-name="Edieresis" unicode="&#xcb;" horiz-adv-x="601" 
d="M479 324h-294v-236h330c42 0 48 -30 48 -44s-6 -44 -48 -44h-370c-40 0 -59 19 -59 59v590c0 40 19 59 59 59h354c43 0 49 -30 49 -44c0 -13 -6 -43 -49 -43h-314v-212h294c42 0 48 -29 48 -42s-6 -43 -48 -43zM162 845c0 32 26 61 62 61c35 0 62 -27 62 -61
c0 -33 -27 -60 -62 -60c-36 0 -62 29 -62 60zM356 845c0 32 26 61 62 61c35 0 62 -27 62 -61c0 -33 -27 -60 -62 -60c-36 0 -62 29 -62 60z" />
    <glyph glyph-name="Igrave" unicode="&#xcc;" horiz-adv-x="271" 
d="M185 660v-612c0 -47 -33 -56 -49 -56c-17 0 -50 9 -50 56v612c0 47 33 56 50 56c16 0 49 -9 49 -56zM77 903l75 -76c16 -16 18 -26 18 -35c0 -18 -14 -36 -35 -36c-10 0 -21 2 -36 17l-77 73c-17 15 -21 29 -21 38c0 22 16 38 38 38c9 0 22 -3 38 -19z" />
    <glyph glyph-name="Iacute" unicode="&#xcd;" horiz-adv-x="271" 
d="M185 660v-612c0 -47 -33 -56 -49 -56c-17 0 -50 9 -50 56v612c0 47 33 56 50 56c16 0 49 -9 49 -56zM118 827l75 76c16 16 29 19 38 19c22 0 38 -16 38 -38c0 -9 -4 -23 -21 -38l-77 -73c-15 -15 -26 -17 -36 -17c-21 0 -35 18 -35 36c0 9 2 19 18 35z" />
    <glyph glyph-name="Icircumflex" unicode="&#xce;" horiz-adv-x="271" 
d="M185 660v-612c0 -47 -33 -56 -49 -56c-17 0 -50 9 -50 56v612c0 47 33 56 50 56c16 0 49 -9 49 -56zM136 851l-86 -81c-11 -10 -19 -14 -29 -14c-18 0 -32 14 -32 32c0 7 2 17 14 28l81 80c21 21 35 26 51 26c17 0 30 -6 51 -26l81 -79c12 -12 14 -21 14 -29
c0 -18 -15 -32 -33 -32c-8 0 -18 3 -29 14z" />
    <glyph glyph-name="Idieresis" unicode="&#xcf;" horiz-adv-x="271" 
d="M185 660v-612c0 -47 -33 -56 -49 -56c-17 0 -50 9 -50 56v612c0 47 33 56 50 56c16 0 49 -9 49 -56zM-23 845c0 32 26 61 62 61c35 0 62 -27 62 -61c0 -33 -27 -60 -62 -60c-36 0 -62 29 -62 60zM171 845c0 32 26 61 62 61c35 0 62 -27 62 -61c0 -33 -27 -60 -62 -60
c-36 0 -62 29 -62 60z" />
    <glyph glyph-name="Lslash" unicode="&#x141;" horiz-adv-x="511" 
d="M86 59v162l-22 -19c-11 -10 -21 -13 -29 -13c-18 0 -33 13 -33 33c0 8 3 18 16 30l68 59v349c0 47 33 56 50 56c16 0 49 -9 49 -56v-275l158 138c11 10 21 12 28 12c18 0 33 -13 33 -32c0 -8 -3 -19 -16 -31l-203 -177v-207h275c42 0 49 -30 49 -44s-7 -44 -49 -44h-315
c-40 0 -59 19 -59 59z" />
    <glyph glyph-name="Ntilde" unicode="&#xd1;" horiz-adv-x="772" 
d="M549 43l-362 506h-2v-501c0 -47 -33 -56 -49 -56c-17 0 -50 9 -50 56v594c0 62 42 74 63 74c23 0 44 -9 74 -51l362 -502h2v497c0 47 33 56 50 56c16 0 49 -9 49 -56v-594c0 -62 -42 -74 -63 -74c-24 0 -44 9 -74 51zM456 776c-26 0 -50 10 -75 23c-28 14 -45 21 -62 21
c-16 0 -28 -9 -38 -31c-8 -19 -19 -23 -30 -23c-19 0 -31 11 -31 31c0 4 1 13 5 23c15 39 45 68 93 68c26 0 48 -10 75 -23s44 -21 62 -21c16 0 28 9 38 31c8 19 19 23 30 23c18 0 30 -11 30 -30c0 -5 -1 -14 -5 -24c-15 -39 -44 -68 -92 -68z" />
    <glyph glyph-name="Ograve" unicode="&#xd2;" horiz-adv-x="849" 
d="M800 355c0 -218 -160 -373 -376 -373c-215 0 -374 155 -374 373c0 221 159 371 374 371c216 0 376 -150 376 -371zM692 355c0 155 -103 284 -268 284c-163 0 -267 -129 -267 -284c0 -158 105 -284 267 -284c164 0 268 126 268 284zM392 903l75 -76c16 -16 18 -26 18 -35
c0 -18 -14 -36 -35 -36c-10 0 -21 2 -36 17l-77 73c-17 15 -21 29 -21 38c0 22 16 38 38 38c9 0 22 -3 38 -19z" />
    <glyph glyph-name="Oacute" unicode="&#xd3;" horiz-adv-x="849" 
d="M800 355c0 -218 -160 -373 -376 -373c-215 0 -374 155 -374 373c0 221 159 371 374 371c216 0 376 -150 376 -371zM692 355c0 155 -103 284 -268 284c-163 0 -267 -129 -267 -284c0 -158 105 -284 267 -284c164 0 268 126 268 284zM392 827l75 76c16 16 29 19 38 19
c22 0 38 -16 38 -38c0 -9 -4 -23 -21 -38l-77 -73c-15 -15 -26 -17 -36 -17c-21 0 -35 18 -35 36c0 9 2 19 18 35z" />
    <glyph glyph-name="Ocircumflex" unicode="&#xd4;" horiz-adv-x="849" 
d="M800 355c0 -218 -160 -373 -376 -373c-215 0 -374 155 -374 373c0 221 159 371 374 371c216 0 376 -150 376 -371zM692 355c0 155 -103 284 -268 284c-163 0 -267 -129 -267 -284c0 -158 105 -284 267 -284c164 0 268 126 268 284zM428 851l-86 -81
c-11 -10 -19 -14 -29 -14c-18 0 -32 14 -32 32c0 7 2 17 14 28l81 80c21 21 35 26 51 26c17 0 30 -6 51 -26l81 -79c12 -12 14 -21 14 -29c0 -18 -15 -32 -33 -32c-8 0 -18 3 -29 14z" />
    <glyph glyph-name="Otilde" unicode="&#xd5;" horiz-adv-x="849" 
d="M800 355c0 -218 -160 -373 -376 -373c-215 0 -374 155 -374 373c0 221 159 371 374 371c216 0 376 -150 376 -371zM692 355c0 155 -103 284 -268 284c-163 0 -267 -129 -267 -284c0 -158 105 -284 267 -284c164 0 268 126 268 284zM495 776c-26 0 -50 10 -75 23
c-28 14 -45 21 -62 21c-16 0 -28 -9 -38 -31c-8 -19 -19 -23 -30 -23c-19 0 -31 11 -31 31c0 4 1 13 5 23c15 39 45 68 93 68c26 0 48 -10 75 -23s44 -21 62 -21c16 0 28 9 38 31c8 19 19 23 30 23c18 0 30 -11 30 -30c0 -5 -1 -14 -5 -24c-15 -39 -44 -68 -92 -68z" />
    <glyph glyph-name="Odieresis" unicode="&#xd6;" horiz-adv-x="849" 
d="M800 355c0 -218 -160 -373 -376 -373c-215 0 -374 155 -374 373c0 221 159 371 374 371c216 0 376 -150 376 -371zM692 355c0 155 -103 284 -268 284c-163 0 -267 -129 -267 -284c0 -158 105 -284 267 -284c164 0 268 126 268 284zM267 845c0 32 26 61 62 61
c35 0 62 -27 62 -61c0 -33 -27 -60 -62 -60c-36 0 -62 29 -62 60zM461 845c0 32 26 61 62 61c35 0 62 -27 62 -61c0 -33 -27 -60 -62 -60c-36 0 -62 29 -62 60z" />
    <glyph glyph-name="Oslash" unicode="&#xd8;" horiz-adv-x="849" 
d="M800 355c0 -218 -160 -371 -376 -373c-93 0 -175 28 -238 79l-62 -67c-8 -8 -16 -12 -25 -12c-16 0 -28 12 -28 28c0 7 3 15 10 23l62 68c-59 63 -93 152 -93 254c0 221 159 371 374 371c89 0 168 -26 230 -71l63 67c8 9 16 12 24 12c17 0 29 -11 29 -27
c0 -8 -3 -16 -10 -24l-61 -66c64 -65 101 -155 101 -262zM154 355c0 -71 18 -132 57 -181l381 411c-42 35 -100 55 -168 55c-166 0 -270 -128 -270 -285zM696 355c0 72 -21 138 -62 189l-383 -414c44 -39 103 -61 173 -61c165 0 272 127 272 286z" />
    <glyph glyph-name="OE" unicode="&#x152;" horiz-adv-x="1003" 
d="M452 621c-171 0 -296 -92 -296 -267c0 -169 125 -266 296 -266h60v533h-60zM901 621h-290v-212h270c42 0 48 -29 48 -42s-6 -43 -48 -43h-270v-236h306c41 0 48 -30 48 -44s-7 -44 -48 -44h-485c-181 0 -382 112 -382 354c0 251 201 354 382 354h469c42 0 49 -30 49 -44
c0 -13 -7 -43 -49 -43z" />
    <glyph glyph-name="Scaron" unicode="&#x160;" horiz-adv-x="569" 
d="M139 124c40 -39 85 -57 133 -57c66 0 142 37 142 121c0 86 -78 109 -168 137s-184 69 -184 199c0 141 126 202 242 202c66 0 126 -20 166 -54c17 -15 22 -28 22 -40c0 -24 -19 -44 -45 -44c-9 0 -19 1 -37 15c-35 28 -70 40 -110 40c-64 0 -138 -35 -138 -115
c0 -77 65 -98 145 -124c95 -30 208 -66 208 -207c0 -147 -119 -215 -245 -215c-73 0 -144 22 -194 68c-17 15 -21 31 -21 43c0 25 19 47 47 47c11 0 23 -3 37 -16zM295 827l86 81c11 10 19 14 29 14c18 0 32 -14 32 -32c0 -7 -2 -17 -14 -28l-81 -80
c-21 -21 -35 -26 -51 -26c-17 0 -30 6 -51 26l-81 79c-12 12 -14 21 -14 29c0 18 15 32 33 32c8 0 18 -3 29 -14z" />
    <glyph glyph-name="Thorn" unicode="&#xde;" horiz-adv-x="595" 
d="M185 165v-117c0 -47 -33 -56 -49 -56c-17 0 -50 9 -50 56v612c0 47 33 56 50 56c16 0 49 -9 49 -56v-97h117c153 0 253 -60 253 -197c0 -142 -111 -201 -258 -201h-112zM185 250h102c97 0 165 32 165 116c0 85 -70 111 -163 111h-104v-227z" />
    <glyph glyph-name="Ugrave" unicode="&#xd9;" horiz-adv-x="712" 
d="M532 268v392c0 47 33 56 49 56c17 0 50 -9 50 -56v-398c0 -145 -88 -280 -275 -280c-186 0 -275 135 -275 280v398c0 47 33 56 50 56c16 0 49 -9 49 -56v-392c0 -97 44 -197 176 -197s176 100 176 197zM322 903l75 -76c16 -16 18 -26 18 -35c0 -18 -14 -36 -35 -36
c-10 0 -21 2 -36 17l-77 73c-17 15 -21 29 -21 38c0 22 16 38 38 38c9 0 22 -3 38 -19z" />
    <glyph glyph-name="Uacute" unicode="&#xda;" horiz-adv-x="712" 
d="M532 268v392c0 47 33 56 49 56c17 0 50 -9 50 -56v-398c0 -145 -88 -280 -275 -280c-186 0 -275 135 -275 280v398c0 47 33 56 50 56c16 0 49 -9 49 -56v-392c0 -97 44 -197 176 -197s176 100 176 197zM328 827l75 76c16 16 29 19 38 19c22 0 38 -16 38 -38
c0 -9 -4 -23 -21 -38l-77 -73c-15 -15 -26 -17 -36 -17c-21 0 -35 18 -35 36c0 9 2 19 18 35z" />
    <glyph glyph-name="Ucircumflex" unicode="&#xdb;" horiz-adv-x="712" 
d="M532 268v392c0 47 33 56 49 56c17 0 50 -9 50 -56v-398c0 -145 -88 -280 -275 -280c-186 0 -275 135 -275 280v398c0 47 33 56 50 56c16 0 49 -9 49 -56v-392c0 -97 44 -197 176 -197s176 100 176 197zM358 851l-86 -81c-11 -10 -19 -14 -29 -14c-18 0 -32 14 -32 32
c0 7 2 17 14 28l81 80c21 21 35 26 51 26c17 0 30 -6 51 -26l81 -79c12 -12 14 -21 14 -29c0 -18 -15 -32 -33 -32c-8 0 -18 3 -29 14z" />
    <glyph glyph-name="Udieresis" unicode="&#xdc;" horiz-adv-x="712" 
d="M532 268v392c0 47 33 56 49 56c17 0 50 -9 50 -56v-398c0 -145 -88 -280 -275 -280c-186 0 -275 135 -275 280v398c0 47 33 56 50 56c16 0 49 -9 49 -56v-392c0 -97 44 -197 176 -197s176 100 176 197zM198 845c0 32 26 61 62 61c35 0 62 -27 62 -61
c0 -33 -27 -60 -62 -60c-36 0 -62 29 -62 60zM392 845c0 32 26 61 62 61c35 0 62 -27 62 -61c0 -33 -27 -60 -62 -60c-36 0 -62 29 -62 60z" />
    <glyph glyph-name="Yacute" unicode="&#xdd;" horiz-adv-x="624" 
d="M597 635l-236 -329v-258c0 -47 -33 -56 -49 -56c-17 0 -50 9 -50 56v258l-234 324c-12 17 -14 30 -14 38c0 28 22 48 51 48c14 0 30 -5 48 -31l201 -296l203 299c16 24 33 28 46 28c24 0 47 -17 47 -45c0 -9 -3 -22 -13 -36zM297 827l75 76c16 16 29 19 38 19
c22 0 38 -16 38 -38c0 -9 -4 -23 -21 -38l-77 -73c-15 -15 -26 -17 -36 -17c-21 0 -35 18 -35 36c0 9 2 19 18 35z" />
    <glyph glyph-name="Ydieresis" unicode="&#x178;" horiz-adv-x="624" 
d="M597 635l-236 -329v-258c0 -47 -33 -56 -49 -56c-17 0 -50 9 -50 56v258l-234 324c-12 17 -14 30 -14 38c0 28 22 48 51 48c14 0 30 -5 48 -31l201 -296l203 299c16 24 33 28 46 28c24 0 47 -17 47 -45c0 -9 -3 -22 -13 -36zM155 845c0 32 26 61 62 61
c35 0 62 -27 62 -61c0 -33 -27 -60 -62 -60c-36 0 -62 29 -62 60zM349 845c0 32 26 61 62 61c35 0 62 -27 62 -61c0 -33 -27 -60 -62 -60c-36 0 -62 29 -62 60z" />
    <glyph glyph-name="Zcaron" unicode="&#x17d;" horiz-adv-x="592" 
d="M518 0h-433c-51 0 -60 36 -60 53s8 34 27 59l380 509h-350c-41 0 -49 29 -49 43s8 44 49 44h421c49 0 58 -36 58 -53c0 -16 -7 -32 -25 -56l-383 -511h365c41 0 49 -30 49 -44s-8 -44 -49 -44zM296 827l86 81c11 10 19 14 29 14c18 0 32 -14 32 -32c0 -7 -2 -17 -14 -28
l-81 -80c-21 -21 -35 -26 -51 -26c-17 0 -30 6 -51 26l-81 79c-12 12 -14 21 -14 29c0 18 15 32 33 32c8 0 18 -3 29 -14z" />
    <glyph glyph-name="agrave" unicode="&#xe0;" horiz-adv-x="542" 
d="M376 226h-23c-93 0 -211 -10 -211 -90c0 -56 50 -74 97 -74c88 0 137 59 137 139v25zM380 40v28h-3c-34 -51 -88 -80 -159 -80c-75 0 -172 37 -172 146c0 143 170 160 330 160v13c0 70 -47 104 -117 104c-40 0 -76 -13 -112 -37c-10 -7 -20 -10 -28 -10
c-20 0 -36 16 -36 37c0 13 5 26 21 37c41 30 99 49 164 49c137 0 198 -81 198 -186v-261c0 -41 -29 -48 -42 -48c-14 0 -44 7 -44 48zM234 703l75 -76c16 -16 18 -26 18 -35c0 -18 -14 -36 -35 -36c-10 0 -21 2 -36 17l-77 73c-17 15 -21 29 -21 38c0 22 16 38 38 38
c9 0 22 -3 38 -19z" />
    <glyph glyph-name="aacute" unicode="&#xe1;" horiz-adv-x="542" 
d="M376 226h-23c-93 0 -211 -10 -211 -90c0 -56 50 -74 97 -74c88 0 137 59 137 139v25zM380 40v28h-3c-34 -51 -88 -80 -159 -80c-75 0 -172 37 -172 146c0 143 170 160 330 160v13c0 70 -47 104 -117 104c-40 0 -76 -13 -112 -37c-10 -7 -20 -10 -28 -10
c-20 0 -36 16 -36 37c0 13 5 26 21 37c41 30 99 49 164 49c137 0 198 -81 198 -186v-261c0 -41 -29 -48 -42 -48c-14 0 -44 7 -44 48zM235 627l75 76c16 16 29 19 38 19c22 0 38 -16 38 -38c0 -9 -4 -23 -21 -38l-77 -73c-15 -15 -26 -17 -36 -17c-21 0 -35 18 -35 36
c0 9 2 19 18 35z" />
    <glyph glyph-name="acircumflex" unicode="&#xe2;" horiz-adv-x="542" 
d="M376 226h-23c-93 0 -211 -10 -211 -90c0 -56 50 -74 97 -74c88 0 137 59 137 139v25zM380 40v28h-3c-34 -51 -88 -80 -159 -80c-75 0 -172 37 -172 146c0 143 170 160 330 160v13c0 70 -47 104 -117 104c-40 0 -76 -13 -112 -37c-10 -7 -20 -10 -28 -10
c-20 0 -36 16 -36 37c0 13 5 26 21 37c41 30 99 49 164 49c137 0 198 -81 198 -186v-261c0 -41 -29 -48 -42 -48c-14 0 -44 7 -44 48zM272 651l-86 -81c-11 -10 -19 -14 -29 -14c-18 0 -32 14 -32 32c0 7 2 17 14 28l81 80c21 21 35 26 51 26c17 0 30 -6 51 -26l81 -79
c12 -12 14 -21 14 -29c0 -18 -15 -32 -33 -32c-8 0 -18 3 -29 14z" />
    <glyph glyph-name="atilde" unicode="&#xe3;" horiz-adv-x="542" 
d="M376 226h-23c-93 0 -211 -10 -211 -90c0 -56 50 -74 97 -74c88 0 137 59 137 139v25zM380 40v28h-3c-34 -51 -88 -80 -159 -80c-75 0 -172 37 -172 146c0 143 170 160 330 160v13c0 70 -47 104 -117 104c-40 0 -76 -13 -112 -37c-10 -7 -20 -10 -28 -10
c-20 0 -36 16 -36 37c0 13 5 26 21 37c41 30 99 49 164 49c137 0 198 -81 198 -186v-261c0 -41 -29 -48 -42 -48c-14 0 -44 7 -44 48zM338 576c-26 0 -50 10 -75 23c-28 14 -45 21 -62 21c-16 0 -28 -9 -38 -31c-8 -19 -19 -23 -30 -23c-19 0 -31 11 -31 31c0 4 1 13 5 23
c15 39 45 68 93 68c26 0 48 -10 75 -23s44 -21 62 -21c16 0 28 9 38 31c8 19 19 23 30 23c18 0 30 -11 30 -30c0 -5 -1 -14 -5 -24c-15 -39 -44 -68 -92 -68z" />
    <glyph glyph-name="adieresis" unicode="&#xe4;" horiz-adv-x="542" 
d="M376 226h-23c-93 0 -211 -10 -211 -90c0 -56 50 -74 97 -74c88 0 137 59 137 139v25zM380 40v28h-3c-34 -51 -88 -80 -159 -80c-75 0 -172 37 -172 146c0 143 170 160 330 160v13c0 70 -47 104 -117 104c-40 0 -76 -13 -112 -37c-10 -7 -20 -10 -28 -10
c-20 0 -36 16 -36 37c0 13 5 26 21 37c41 30 99 49 164 49c137 0 198 -81 198 -186v-261c0 -41 -29 -48 -42 -48c-14 0 -44 7 -44 48zM110 645c0 32 26 61 62 61c35 0 62 -27 62 -61c0 -33 -27 -60 -62 -60c-36 0 -62 29 -62 60zM304 645c0 32 26 61 62 61
c35 0 62 -27 62 -61c0 -33 -27 -60 -62 -60c-36 0 -62 29 -62 60z" />
    <glyph glyph-name="aring" unicode="&#xe5;" horiz-adv-x="542" 
d="M376 226h-23c-93 0 -211 -10 -211 -90c0 -56 50 -74 97 -74c88 0 137 59 137 139v25zM380 40v28h-3c-34 -51 -88 -80 -159 -80c-75 0 -172 37 -172 146c0 143 170 160 330 160v13c0 70 -47 104 -117 104c-40 0 -76 -13 -112 -37c-10 -7 -20 -10 -28 -10
c-20 0 -36 16 -36 37c0 13 5 26 21 37c41 30 99 49 164 49c137 0 198 -81 198 -186v-261c0 -41 -29 -48 -42 -48c-14 0 -44 7 -44 48zM368 653c0 -57 -45 -99 -101 -99c-55 0 -100 42 -100 98c0 57 44 99 100 99s101 -42 101 -98zM327 653c0 33 -27 58 -60 58
s-59 -26 -59 -59c0 -32 26 -57 59 -57s60 25 60 58z" />
    <glyph glyph-name="ae" unicode="&#xe6;" horiz-adv-x="878" 
d="M462 279h272c0 75 -45 134 -128 134c-77 0 -140 -60 -144 -134zM610 -13c-81 0 -154 36 -191 98c-38 -71 -115 -97 -201 -97c-75 0 -172 30 -172 133c0 140 134 158 330 158v11c0 89 -47 121 -117 121c-40 0 -77 -14 -113 -37c-11 -7 -20 -10 -28 -10
c-21 0 -37 16 -37 37c0 13 5 25 21 36c40 31 104 50 167 50c107 0 149 -51 165 -88c37 52 88 88 172 88c119 0 201 -69 219 -199c2 -14 2 -21 2 -31c0 -33 -17 -48 -50 -48h-314c3 -80 68 -144 149 -144c49 0 85 18 116 50c14 13 24 16 35 16c22 0 39 -15 39 -39
c0 -9 -3 -22 -15 -34c-47 -49 -102 -71 -177 -71zM374 209h-24c-117 0 -208 -9 -208 -76c0 -55 48 -72 98 -72c88 0 134 48 134 123v25z" />
    <glyph glyph-name="ccedilla" unicode="&#xe7;" horiz-adv-x="494" 
d="M196 -169c7 0 14 -2 23 -5c16 -5 33 -7 49 -7c33 0 58 11 58 36c0 22 -16 35 -44 35c-9 0 -16 -1 -22 -2c-10 -2 -15 -3 -21 -3c-17 0 -24 10 -24 21c0 6 2 11 8 21l40 63c-126 15 -213 110 -213 247c0 149 108 250 253 250c50 0 102 -14 139 -44c18 -14 24 -29 24 -41
c0 -25 -18 -41 -42 -41c-10 0 -19 3 -37 18s-47 29 -83 29c-98 0 -155 -80 -155 -171c0 -90 55 -170 154 -170c38 0 67 11 92 31c13 10 23 14 33 14c24 0 39 -18 39 -38c0 -13 -4 -26 -22 -41c-33 -28 -78 -42 -124 -45l-37 -55c8 1 18 2 27 2c43 0 87 -21 87 -79
c0 -68 -67 -91 -127 -91c-28 0 -55 5 -76 12c-20 7 -25 18 -25 28c0 12 10 26 26 26z" />
    <glyph glyph-name="eth" unicode="&#xf0;" horiz-adv-x="610" 
d="M443 695l-73 -35c114 -115 186 -254 186 -398c0 -142 -78 -275 -255 -275c-147 0 -255 104 -255 250s109 250 251 250c50 0 92 -15 130 -49l2 2c-40 72 -84 128 -139 181l-93 -45c-10 -5 -18 -6 -23 -6c-17 0 -29 13 -29 30c0 8 3 21 21 29l76 36l-43 37
c-18 16 -23 26 -23 37c0 23 18 41 41 41c11 0 22 -4 36 -16c22 -18 47 -40 70 -60l92 45c9 4 15 5 20 5c17 0 29 -13 29 -29c0 -9 -3 -22 -21 -30zM142 237c0 -90 57 -170 159 -170s158 80 158 170s-56 170 -158 170s-159 -80 -159 -170z" />
    <glyph glyph-name="egrave" unicode="&#xe8;" horiz-adv-x="573" 
d="M472 209h-326c3 -81 71 -144 154 -144c57 0 93 24 122 51c13 12 23 15 33 15c22 0 40 -15 40 -39c0 -8 -3 -21 -15 -34c-46 -47 -105 -71 -180 -71c-144 0 -250 100 -250 249c0 148 106 251 245 251c119 0 207 -69 225 -199c2 -14 2 -21 2 -31c0 -33 -17 -48 -50 -48z
M146 279h282c-2 75 -46 134 -133 134c-81 0 -143 -60 -149 -134zM245 703l75 -76c16 -16 18 -26 18 -35c0 -18 -14 -36 -35 -36c-10 0 -21 2 -36 17l-77 73c-17 15 -21 29 -21 38c0 22 16 38 38 38c9 0 22 -3 38 -19z" />
    <glyph glyph-name="eacute" unicode="&#xe9;" horiz-adv-x="573" 
d="M472 209h-326c3 -81 71 -144 154 -144c57 0 93 24 122 51c13 12 23 15 33 15c22 0 40 -15 40 -39c0 -8 -3 -21 -15 -34c-46 -47 -105 -71 -180 -71c-144 0 -250 100 -250 249c0 148 106 251 245 251c119 0 207 -69 225 -199c2 -14 2 -21 2 -31c0 -33 -17 -48 -50 -48z
M146 279h282c-2 75 -46 134 -133 134c-81 0 -143 -60 -149 -134zM271 627l75 76c16 16 29 19 38 19c22 0 38 -16 38 -38c0 -9 -4 -23 -21 -38l-77 -73c-15 -15 -26 -17 -36 -17c-21 0 -35 18 -35 36c0 9 2 19 18 35z" />
    <glyph glyph-name="ecircumflex" unicode="&#xea;" horiz-adv-x="573" 
d="M472 209h-326c3 -81 71 -144 154 -144c57 0 93 24 122 51c13 12 23 15 33 15c22 0 40 -15 40 -39c0 -8 -3 -21 -15 -34c-46 -47 -105 -71 -180 -71c-144 0 -250 100 -250 249c0 148 106 251 245 251c119 0 207 -69 225 -199c2 -14 2 -21 2 -31c0 -33 -17 -48 -50 -48z
M146 279h282c-2 75 -46 134 -133 134c-81 0 -143 -60 -149 -134zM301 651l-86 -81c-11 -10 -19 -14 -29 -14c-18 0 -32 14 -32 32c0 7 2 17 14 28l81 80c21 21 35 26 51 26c17 0 30 -6 51 -26l81 -79c12 -12 14 -21 14 -29c0 -18 -15 -32 -33 -32c-8 0 -18 3 -29 14z" />
    <glyph glyph-name="edieresis" unicode="&#xeb;" horiz-adv-x="573" 
d="M472 209h-326c3 -81 71 -144 154 -144c57 0 93 24 122 51c13 12 23 15 33 15c22 0 40 -15 40 -39c0 -8 -3 -21 -15 -34c-46 -47 -105 -71 -180 -71c-144 0 -250 100 -250 249c0 148 106 251 245 251c119 0 207 -69 225 -199c2 -14 2 -21 2 -31c0 -33 -17 -48 -50 -48z
M146 279h282c-2 75 -46 134 -133 134c-81 0 -143 -60 -149 -134zM140 645c0 32 26 61 62 61c35 0 62 -27 62 -61c0 -33 -27 -60 -62 -60c-36 0 -62 29 -62 60zM334 645c0 32 26 61 62 61c35 0 62 -27 62 -61c0 -33 -27 -60 -62 -60c-36 0 -62 29 -62 60z" />
    <glyph glyph-name="dotlessi" unicode="&#x131;" horiz-adv-x="259" 
d="M176 430v-386c0 -44 -31 -52 -47 -52s-47 8 -47 52v386c0 44 31 52 47 52s47 -8 47 -52z" />
    <glyph glyph-name="igrave" unicode="&#xec;" horiz-adv-x="259" 
d="M176 430v-386c0 -44 -31 -52 -47 -52s-47 8 -47 52v386c0 44 31 52 47 52s47 -8 47 -52zM69 703l75 -76c16 -16 18 -26 18 -35c0 -18 -14 -36 -35 -36c-10 0 -21 2 -36 17l-77 73c-17 15 -21 29 -21 38c0 22 16 38 38 38c9 0 22 -3 38 -19z" />
    <glyph glyph-name="iacute" unicode="&#xed;" horiz-adv-x="259" 
d="M176 430v-386c0 -44 -31 -52 -47 -52s-47 8 -47 52v386c0 44 31 52 47 52s47 -8 47 -52zM115 627l75 76c16 16 29 19 38 19c22 0 38 -16 38 -38c0 -9 -4 -23 -21 -38l-77 -73c-15 -15 -26 -17 -36 -17c-21 0 -35 18 -35 36c0 9 2 19 18 35z" />
    <glyph glyph-name="icircumflex" unicode="&#xee;" horiz-adv-x="259" 
d="M176 430v-386c0 -44 -31 -52 -47 -52s-47 8 -47 52v386c0 44 31 52 47 52s47 -8 47 -52zM132 651l-86 -81c-11 -10 -19 -14 -29 -14c-18 0 -32 14 -32 32c0 7 2 17 14 28l81 80c21 21 35 26 51 26c17 0 30 -6 51 -26l81 -79c12 -12 14 -21 14 -29c0 -18 -15 -32 -33 -32
c-8 0 -18 3 -29 14z" />
    <glyph glyph-name="idieresis" unicode="&#xef;" horiz-adv-x="259" 
d="M176 430v-386c0 -44 -31 -52 -47 -52s-47 8 -47 52v386c0 44 31 52 47 52s47 -8 47 -52zM-29 645c0 32 26 61 62 61c35 0 62 -27 62 -61c0 -33 -27 -60 -62 -60c-36 0 -62 29 -62 60zM165 645c0 32 26 61 62 61c35 0 62 -27 62 -61c0 -33 -27 -60 -62 -60
c-36 0 -62 29 -62 60z" />
    <glyph glyph-name="lslash" unicode="&#x142;" horiz-adv-x="260" 
d="M83 44v270l-26 -26c-10 -10 -19 -13 -26 -13c-19 0 -31 14 -31 32c0 7 1 16 12 27l71 71v307c0 44 31 52 47 52s47 -8 47 -52v-231l26 26c10 10 18 12 25 12c17 0 31 -13 31 -30c0 -7 -2 -17 -13 -28l-69 -70v-347c0 -44 -31 -52 -47 -52s-47 8 -47 52z" />
    <glyph glyph-name="ntilde" unicode="&#xf1;" horiz-adv-x="582" 
d="M170 432v-36h3c23 51 86 91 154 91c122 0 177 -87 177 -193v-250c0 -44 -31 -52 -47 -52s-47 8 -47 52v219c0 77 -21 145 -108 145c-74 0 -127 -62 -127 -156v-208c0 -44 -31 -52 -47 -52s-47 8 -47 52v388c0 43 30 50 45 50c14 0 44 -7 44 -50zM362 576
c-26 0 -50 10 -75 23c-28 14 -45 21 -62 21c-16 0 -28 -9 -38 -31c-8 -19 -19 -23 -30 -23c-19 0 -31 11 -31 31c0 4 1 13 5 23c15 39 45 68 93 68c26 0 48 -10 75 -23s44 -21 62 -21c16 0 28 9 38 31c8 19 19 23 30 23c18 0 30 -11 30 -30c0 -5 -1 -14 -5 -24
c-15 -39 -44 -68 -92 -68z" />
    <glyph glyph-name="ograve" unicode="&#xf2;" horiz-adv-x="610" 
d="M561 238c0 -146 -111 -251 -256 -251s-255 105 -255 251s110 249 255 249s256 -103 256 -249zM463 238c0 90 -56 171 -158 171c-101 0 -158 -81 -158 -171s57 -172 158 -172c102 0 158 82 158 172zM257 703l75 -76c16 -16 18 -26 18 -35c0 -18 -14 -36 -35 -36
c-10 0 -21 2 -36 17l-77 73c-17 15 -21 29 -21 38c0 22 16 38 38 38c9 0 22 -3 38 -19z" />
    <glyph glyph-name="oacute" unicode="&#xf3;" horiz-adv-x="610" 
d="M561 238c0 -146 -111 -251 -256 -251s-255 105 -255 251s110 249 255 249s256 -103 256 -249zM463 238c0 90 -56 171 -158 171c-101 0 -158 -81 -158 -171s57 -172 158 -172c102 0 158 82 158 172zM278 627l75 76c16 16 29 19 38 19c22 0 38 -16 38 -38
c0 -9 -4 -23 -21 -38l-77 -73c-15 -15 -26 -17 -36 -17c-21 0 -35 18 -35 36c0 9 2 19 18 35z" />
    <glyph glyph-name="ocircumflex" unicode="&#xf4;" horiz-adv-x="610" 
d="M561 238c0 -146 -111 -251 -256 -251s-255 105 -255 251s110 249 255 249s256 -103 256 -249zM463 238c0 90 -56 171 -158 171c-101 0 -158 -81 -158 -171s57 -172 158 -172c102 0 158 82 158 172zM307 651l-86 -81c-11 -10 -19 -14 -29 -14c-18 0 -32 14 -32 32
c0 7 2 17 14 28l81 80c21 21 35 26 51 26c17 0 30 -6 51 -26l81 -79c12 -12 14 -21 14 -29c0 -18 -15 -32 -33 -32c-8 0 -18 3 -29 14z" />
    <glyph glyph-name="otilde" unicode="&#xf5;" horiz-adv-x="610" 
d="M561 238c0 -146 -111 -251 -256 -251s-255 105 -255 251s110 249 255 249s256 -103 256 -249zM463 238c0 90 -56 171 -158 171c-101 0 -158 -81 -158 -171s57 -172 158 -172c102 0 158 82 158 172zM375 576c-26 0 -50 10 -75 23c-28 14 -45 21 -62 21
c-16 0 -28 -9 -38 -31c-8 -19 -19 -23 -30 -23c-19 0 -31 11 -31 31c0 4 1 13 5 23c15 39 45 68 93 68c26 0 48 -10 75 -23s44 -21 62 -21c16 0 28 9 38 31c8 19 19 23 30 23c18 0 30 -11 30 -30c0 -5 -1 -14 -5 -24c-15 -39 -44 -68 -92 -68z" />
    <glyph glyph-name="odieresis" unicode="&#xf6;" horiz-adv-x="610" 
d="M561 238c0 -146 -111 -251 -256 -251s-255 105 -255 251s110 249 255 249s256 -103 256 -249zM463 238c0 90 -56 171 -158 171c-101 0 -158 -81 -158 -171s57 -172 158 -172c102 0 158 82 158 172zM147 645c0 32 26 61 62 61c35 0 62 -27 62 -61c0 -33 -27 -60 -62 -60
c-36 0 -62 29 -62 60zM341 645c0 32 26 61 62 61c35 0 62 -27 62 -61c0 -33 -27 -60 -62 -60c-36 0 -62 29 -62 60z" />
    <glyph glyph-name="oslash" unicode="&#xf8;" horiz-adv-x="610" 
d="M146 38l-50 -51c-8 -9 -16 -11 -22 -11c-13 0 -25 9 -25 24c0 5 1 13 11 23l48 50c-37 43 -58 99 -58 164c0 146 110 250 255 250c61 0 116 -18 158 -51l52 53c8 9 16 11 22 11c13 0 25 -9 25 -24c0 -5 -1 -13 -11 -23l-50 -52c37 -42 60 -99 60 -164
c0 -146 -111 -250 -256 -250c-62 0 -117 19 -159 51zM144 237c0 -37 9 -76 28 -101l234 241c-24 22 -62 35 -101 35c-104 0 -161 -85 -161 -175zM467 238c0 36 -10 75 -29 100l-235 -240c26 -22 62 -35 101 -35c106 0 163 84 163 175z" />
    <glyph glyph-name="oe" unicode="&#x153;" horiz-adv-x="976" 
d="M463 238c0 90 -57 171 -158 171c-102 0 -159 -81 -159 -171s57 -172 159 -172c101 0 158 82 158 172zM549 279h283c-2 75 -47 134 -134 134c-81 0 -143 -60 -149 -134zM875 209h-327c5 -82 72 -144 155 -144c57 0 93 24 121 51c13 12 24 15 34 15c22 0 40 -15 40 -39
c0 -8 -3 -22 -15 -34c-47 -48 -106 -71 -181 -71c-88 0 -159 40 -199 102c-41 -62 -113 -102 -201 -102c-145 0 -252 105 -252 251s107 249 252 249c88 0 161 -41 202 -103c41 61 109 103 194 103c119 0 207 -69 225 -199c2 -14 2 -21 2 -31c0 -33 -17 -48 -50 -48z" />
    <glyph glyph-name="scaron" unicode="&#x161;" horiz-adv-x="444" 
d="M318 377c-28 26 -59 36 -91 36c-43 0 -88 -17 -88 -62c0 -40 36 -55 108 -71c90 -20 159 -56 159 -140c0 -112 -93 -153 -189 -153c-57 0 -116 18 -156 53c-16 14 -20 29 -20 38c0 24 17 42 41 42c11 0 22 -4 35 -15c30 -26 63 -42 102 -42c47 0 94 17 94 69
c0 44 -43 60 -124 79c-63 15 -138 41 -138 131c0 102 89 145 179 145c51 0 102 -15 137 -45c18 -15 22 -29 22 -38c0 -22 -16 -41 -41 -41c-9 0 -19 4 -30 14zM228 627l86 81c11 10 19 14 29 14c18 0 32 -14 32 -32c0 -7 -2 -17 -14 -28l-81 -80c-21 -21 -35 -26 -51 -26
c-17 0 -30 6 -51 26l-81 79c-12 12 -14 21 -14 29c0 18 15 32 33 32c8 0 18 -3 29 -14z" />
    <glyph glyph-name="germandbls" unicode="&#xdf;" horiz-adv-x="612" 
d="M80 44v481c0 121 57 243 227 243c114 0 203 -75 203 -186c0 -74 -42 -132 -111 -154v-2c101 -15 167 -95 167 -204c0 -139 -94 -234 -243 -234c-8 0 -22 1 -32 2c-29 3 -47 15 -47 41c0 17 10 39 42 39c6 0 21 -1 26 -1c94 0 157 59 157 157c0 95 -61 146 -149 154
c-38 3 -43 29 -43 42s4 38 43 43c57 8 96 45 96 108c0 65 -44 112 -113 112c-106 0 -129 -93 -129 -164v-477c0 -44 -31 -52 -47 -52c-15 0 -47 8 -47 52z" />
    <glyph glyph-name="thorn" unicode="&#xfe;" horiz-adv-x="636" 
d="M586 238c0 -139 -93 -251 -239 -251c-67 0 -134 31 -168 85h-2v-268c0 -44 -31 -52 -47 -52c-15 0 -47 8 -47 52v908c0 44 32 52 47 52c16 0 47 -8 47 -52v-309h3c32 46 91 84 169 84c141 0 237 -109 237 -249zM489 238c0 89 -55 171 -158 171c-96 0 -160 -81 -160 -172
s64 -171 160 -171c103 0 158 83 158 172z" />
    <glyph glyph-name="ugrave" unicode="&#xf9;" horiz-adv-x="582" 
d="M411 42v36h-3c-23 -51 -86 -91 -154 -91c-122 0 -177 87 -177 193v250c0 44 31 52 47 52s47 -8 47 -52v-219c0 -77 21 -145 108 -145c74 0 127 62 127 156v208c0 44 31 52 47 52s47 -8 47 -52v-388c0 -43 -30 -50 -44 -50c-15 0 -45 7 -45 50zM245 703l75 -76
c16 -16 18 -26 18 -35c0 -18 -14 -36 -35 -36c-10 0 -21 2 -36 17l-77 73c-17 15 -21 29 -21 38c0 22 16 38 38 38c9 0 22 -3 38 -19z" />
    <glyph glyph-name="uacute" unicode="&#xfa;" horiz-adv-x="582" 
d="M411 42v36h-3c-23 -51 -86 -91 -154 -91c-122 0 -177 87 -177 193v250c0 44 31 52 47 52s47 -8 47 -52v-219c0 -77 21 -145 108 -145c74 0 127 62 127 156v208c0 44 31 52 47 52s47 -8 47 -52v-388c0 -43 -30 -50 -44 -50c-15 0 -45 7 -45 50zM263 627l75 76
c16 16 29 19 38 19c22 0 38 -16 38 -38c0 -9 -4 -23 -21 -38l-77 -73c-15 -15 -26 -17 -36 -17c-21 0 -35 18 -35 36c0 9 2 19 18 35z" />
    <glyph glyph-name="ucircumflex" unicode="&#xfb;" horiz-adv-x="582" 
d="M411 42v36h-3c-23 -51 -86 -91 -154 -91c-122 0 -177 87 -177 193v250c0 44 31 52 47 52s47 -8 47 -52v-219c0 -77 21 -145 108 -145c74 0 127 62 127 156v208c0 44 31 52 47 52s47 -8 47 -52v-388c0 -43 -30 -50 -44 -50c-15 0 -45 7 -45 50zM292 651l-86 -81
c-11 -10 -19 -14 -29 -14c-18 0 -32 14 -32 32c0 7 2 17 14 28l81 80c21 21 35 26 51 26c17 0 30 -6 51 -26l81 -79c12 -12 14 -21 14 -29c0 -18 -15 -32 -33 -32c-8 0 -18 3 -29 14z" />
    <glyph glyph-name="udieresis" unicode="&#xfc;" horiz-adv-x="582" 
d="M411 42v36h-3c-23 -51 -86 -91 -154 -91c-122 0 -177 87 -177 193v250c0 44 31 52 47 52s47 -8 47 -52v-219c0 -77 21 -145 108 -145c74 0 127 62 127 156v208c0 44 31 52 47 52s47 -8 47 -52v-388c0 -43 -30 -50 -44 -50c-15 0 -45 7 -45 50zM131 645c0 32 26 61 62 61
c35 0 62 -27 62 -61c0 -33 -27 -60 -62 -60c-36 0 -62 29 -62 60zM325 645c0 32 26 61 62 61c35 0 62 -27 62 -61c0 -33 -27 -60 -62 -60c-36 0 -62 29 -62 60z" />
    <glyph glyph-name="yacute" unicode="&#xfd;" horiz-adv-x="501" 
d="M477 413l-213 -525c-35 -86 -75 -128 -164 -128c-37 0 -67 15 -67 44c0 18 13 39 39 39c7 0 14 -1 24 -1c36 0 62 15 86 79l30 79l-184 410c-5 11 -6 21 -6 27c0 26 21 45 48 45c16 0 34 -6 47 -37l143 -342h2l127 340c12 32 31 39 47 39c27 0 47 -18 47 -43
c0 -6 -1 -13 -6 -26zM232 627l75 76c16 16 29 19 38 19c22 0 38 -16 38 -38c0 -9 -4 -23 -21 -38l-77 -73c-15 -15 -26 -17 -36 -17c-21 0 -35 18 -35 36c0 9 2 19 18 35z" />
    <glyph glyph-name="ydieresis" unicode="&#xff;" horiz-adv-x="501" 
d="M477 413l-213 -525c-35 -86 -75 -128 -164 -128c-37 0 -67 15 -67 44c0 18 13 39 39 39c7 0 14 -1 24 -1c36 0 62 15 86 79l30 79l-184 410c-5 11 -6 21 -6 27c0 26 21 45 48 45c16 0 34 -6 47 -37l143 -342h2l127 340c12 32 31 39 47 39c27 0 47 -18 47 -43
c0 -6 -1 -13 -6 -26zM101 645c0 32 26 61 62 61c35 0 62 -27 62 -61c0 -33 -27 -60 -62 -60c-36 0 -62 29 -62 60zM295 645c0 32 26 61 62 61c35 0 62 -27 62 -61c0 -33 -27 -60 -62 -60c-36 0 -62 29 -62 60z" />
    <glyph glyph-name="zcaron" unicode="&#x17e;" horiz-adv-x="462" 
d="M394 0h-318c-44 0 -51 32 -51 47c0 13 5 29 22 49l257 301h-223c-37 0 -44 26 -44 39c0 12 7 38 44 38h294c45 0 52 -32 52 -47c0 -13 -5 -29 -22 -49l-258 -299h247c38 0 44 -27 44 -39c0 -13 -6 -40 -44 -40zM235 627l86 81c11 10 19 14 29 14c18 0 32 -14 32 -32
c0 -7 -2 -17 -14 -28l-81 -80c-21 -21 -35 -26 -51 -26c-17 0 -30 6 -51 26l-81 79c-12 12 -14 21 -14 29c0 18 15 32 33 32c8 0 18 -3 29 -14z" />
    <glyph glyph-name="grave.cap" 
d="M86 903l75 -76c16 -16 18 -26 18 -35c0 -18 -14 -36 -35 -36c-10 0 -21 2 -36 17l-77 73c-17 15 -21 29 -21 38c0 22 16 38 38 38c9 0 22 -3 38 -19z" />
    <glyph glyph-name="acute" unicode="&#xb4;" 
d="M101 627l75 76c16 16 29 19 38 19c22 0 38 -16 38 -38c0 -9 -4 -23 -21 -38l-77 -73c-15 -15 -26 -17 -36 -17c-21 0 -35 18 -35 36c0 9 2 19 18 35z" />
    <glyph glyph-name="acute.cap" 
d="M89 827l75 76c16 16 29 19 38 19c22 0 38 -16 38 -38c0 -9 -4 -23 -21 -38l-77 -73c-15 -15 -26 -17 -36 -17c-21 0 -35 18 -35 36c0 9 2 19 18 35z" />
    <glyph glyph-name="circumflex" unicode="&#x2c6;" 
d="M126 651l-86 -81c-11 -10 -19 -14 -29 -14c-18 0 -32 14 -32 32c0 7 2 17 14 28l81 80c21 21 35 26 51 26c17 0 30 -6 51 -26l81 -79c12 -12 14 -21 14 -29c0 -18 -15 -32 -33 -32c-8 0 -18 3 -29 14z" />
    <glyph glyph-name="circumflex.cap" 
d="M126 851l-86 -81c-11 -10 -19 -14 -29 -14c-18 0 -32 14 -32 32c0 7 2 17 14 28l81 80c21 21 35 26 51 26c17 0 30 -6 51 -26l81 -79c12 -12 14 -21 14 -29c0 -18 -15 -32 -33 -32c-8 0 -18 3 -29 14z" />
    <glyph glyph-name="caron" unicode="&#x2c7;" 
d="M124 627l86 81c11 10 19 14 29 14c18 0 32 -14 32 -32c0 -7 -2 -17 -14 -28l-81 -80c-21 -21 -35 -26 -51 -26c-17 0 -30 6 -51 26l-81 79c-12 12 -14 21 -14 29c0 18 15 32 33 32c8 0 18 -3 29 -14z" />
    <glyph glyph-name="caron.cap" 
d="M124 827l86 81c11 10 19 14 29 14c18 0 32 -14 32 -32c0 -7 -2 -17 -14 -28l-81 -80c-21 -21 -35 -26 -51 -26c-17 0 -30 6 -51 26l-81 79c-12 12 -14 21 -14 29c0 18 15 32 33 32c8 0 18 -3 29 -14z" />
    <glyph glyph-name="caron.alt" 
d="M90 571l41 109c11 29 26 36 41 36c22 0 40 -14 40 -37c0 -7 -1 -15 -7 -29l-43 -109c-11 -28 -27 -33 -40 -33c-20 0 -38 13 -38 35c0 7 1 15 6 28z" />
    <glyph glyph-name="tilde" unicode="&#x2dc;" 
d="M194 576c-26 0 -50 10 -75 23c-28 14 -45 21 -62 21c-16 0 -28 -9 -38 -31c-8 -19 -19 -23 -30 -23c-19 0 -31 11 -31 31c0 4 1 13 5 23c15 39 45 68 93 68c26 0 48 -10 75 -23s44 -21 62 -21c16 0 28 9 38 31c8 19 19 23 30 23c18 0 30 -11 30 -30c0 -5 -1 -14 -5 -24
c-15 -39 -44 -68 -92 -68z" />
    <glyph glyph-name="tilde.cap" 
d="M194 776c-26 0 -50 10 -75 23c-28 14 -45 21 -62 21c-16 0 -28 -9 -38 -31c-8 -19 -19 -23 -30 -23c-19 0 -31 11 -31 31c0 4 1 13 5 23c15 39 45 68 93 68c26 0 48 -10 75 -23s44 -21 62 -21c16 0 28 9 38 31c8 19 19 23 30 23c18 0 30 -11 30 -30c0 -5 -1 -14 -5 -24
c-15 -39 -44 -68 -92 -68z" />
    <glyph glyph-name="dieresis" unicode="&#xa8;" 
d="M-34 645c0 32 26 61 62 61c35 0 62 -27 62 -61c0 -33 -27 -60 -62 -60c-36 0 -62 29 -62 60zM160 645c0 32 26 61 62 61c35 0 62 -27 62 -61c0 -33 -27 -60 -62 -60c-36 0 -62 29 -62 60z" />
    <glyph glyph-name="dieresis.cap" 
d="M-34 845c0 32 26 61 62 61c35 0 62 -27 62 -61c0 -33 -27 -60 -62 -60c-36 0 -62 29 -62 60zM160 845c0 32 26 61 62 61c35 0 62 -27 62 -61c0 -33 -27 -60 -62 -60c-36 0 -62 29 -62 60z" />
    <glyph glyph-name="macron" unicode="&#xaf;" 
d="M240 596h-230c-32 0 -38 24 -38 35s6 34 38 34h230c32 0 38 -23 38 -34s-6 -35 -38 -35z" />
    <glyph glyph-name="macron.cap" 
d="M240 796h-230c-32 0 -38 24 -38 35s6 34 38 34h230c32 0 38 -23 38 -34s-6 -35 -38 -35z" />
    <glyph glyph-name="uni02C9" unicode="&#x2c9;" 
d="M240 796h-230c-32 0 -38 24 -38 35s6 34 38 34h230c32 0 38 -23 38 -34s-6 -35 -38 -35z" />
    <glyph glyph-name="breve" unicode="&#x2d8;" 
d="M125 634c41 0 75 19 90 54c10 22 20 26 32 26c19 0 30 -15 30 -30c0 -6 -1 -13 -3 -19c-23 -69 -84 -95 -149 -95s-126 26 -149 95c-3 9 -3 15 -3 19c0 15 10 30 31 30c11 0 22 -4 32 -26c16 -36 48 -54 89 -54z" />
    <glyph glyph-name="breve.cap" 
d="M125 834c41 0 75 19 90 54c10 22 20 26 32 26c19 0 30 -15 30 -30c0 -6 -1 -13 -3 -19c-23 -69 -84 -95 -149 -95s-126 26 -149 95c-3 9 -3 15 -3 19c0 15 10 30 31 30c11 0 22 -4 32 -26c16 -36 48 -54 89 -54z" />
    <glyph glyph-name="ring" unicode="&#x2da;" 
d="M226 653c0 -57 -45 -99 -101 -99c-55 0 -100 42 -100 98c0 57 44 99 100 99s101 -42 101 -98zM185 653c0 33 -27 58 -60 58s-59 -26 -59 -59c0 -32 26 -57 59 -57s60 25 60 58z" />
    <glyph glyph-name="ring.cap" 
d="M226 853c0 -57 -45 -99 -101 -99c-55 0 -100 42 -100 98c0 57 44 99 100 99s101 -42 101 -98zM185 853c0 33 -27 58 -60 58s-59 -26 -59 -59c0 -32 26 -57 59 -57s60 25 60 58z" />
    <glyph glyph-name="hungarumlaut" unicode="&#x2dd;" 
d="M180 627l69 77c15 17 27 18 37 18c21 -1 36 -16 36 -36c0 -10 -2 -20 -18 -37l-71 -76c-14 -15 -26 -17 -35 -17c-20 0 -35 16 -35 35c0 9 2 20 17 36zM-9 627l69 77c15 17 27 18 37 18c21 -1 36 -16 36 -36c0 -10 -2 -20 -18 -37l-71 -76c-14 -15 -26 -17 -35 -17
c-20 0 -35 16 -35 35c0 9 2 20 17 36z" />
    <glyph glyph-name="hungarumlaut.cap" 
d="M180 827l69 77c15 17 27 18 37 18c21 -1 36 -16 36 -36c0 -10 -2 -20 -18 -37l-71 -76c-14 -15 -26 -17 -35 -17c-20 0 -35 16 -35 35c0 9 2 20 17 36zM-9 827l69 77c15 17 27 18 37 18c21 -1 36 -16 36 -36c0 -10 -2 -20 -18 -37l-71 -76c-14 -15 -26 -17 -35 -17
c-20 0 -35 16 -35 35c0 9 2 20 17 36z" />
    <glyph glyph-name="dotaccent" unicode="&#x2d9;" 
d="M188 645c0 -34 -29 -60 -63 -60s-62 27 -62 60c0 34 28 61 62 61s63 -26 63 -61z" />
    <glyph glyph-name="cedilla" unicode="&#xb8;" 
d="M40 -169c7 0 14 -2 23 -5c16 -5 33 -7 49 -7c33 0 58 11 58 36c0 22 -16 35 -44 35c-9 0 -16 -1 -22 -2c-10 -2 -15 -3 -21 -3c-17 0 -24 10 -24 21c0 6 2 11 8 21l52 80h59l-50 -74c8 1 18 2 27 2c43 0 87 -21 87 -79c0 -68 -67 -91 -127 -91c-28 0 -55 5 -76 12
c-20 7 -25 18 -25 28c0 12 10 26 26 26z" />
    <glyph glyph-name="ogonek" unicode="&#x2db;" 
d="M188 -202c-23 -15 -50 -24 -77 -24c-50 0 -97 33 -97 87c0 56 50 111 98 149h58c-42 -39 -87 -85 -87 -129c0 -26 20 -46 48 -46c12 0 21 4 30 8s14 5 19 5c13 0 24 -10 24 -24c0 -7 -3 -17 -16 -26z" />
    <glyph glyph-name="ellipsis" unicode="&#x2026;" horiz-adv-x="1000" 
d="M234 60c0 -35 -29 -66 -67 -66c-37 0 -67 30 -67 65c0 36 29 66 67 66s67 -29 67 -65zM567 60c0 -35 -29 -66 -67 -66c-37 0 -67 30 -67 65c0 36 29 66 67 66s67 -29 67 -65zM900 60c0 -35 -29 -66 -67 -66c-37 0 -67 30 -67 65c0 36 29 66 67 66s67 -29 67 -65z" />
    <glyph glyph-name="uni00AD" unicode="&#xad;" horiz-adv-x="320" 
d="M239 204h-158c-38 0 -45 27 -45 41c0 13 7 39 45 39h158c38 0 45 -26 45 -39c0 -14 -7 -41 -45 -41z" />
    <glyph glyph-name="exclamdown" unicode="&#xa1;" horiz-adv-x="334" 
d="M217 232v-405c0 -48 -34 -56 -50 -56c-15 0 -49 8 -49 56v405c0 48 34 56 49 56c16 0 50 -8 50 -56zM100 427c0 35 29 66 67 66c37 0 67 -30 67 -65c0 -36 -29 -66 -67 -66s-67 29 -67 65z" />
    <glyph glyph-name="questiondown" unicode="&#xbf;" horiz-adv-x="501" 
d="M180 427c0 35 29 66 67 66c37 0 67 -30 67 -65c0 -36 -29 -66 -67 -66s-67 29 -67 65zM205 241c0 46 32 53 47 53s47 -7 47 -53c0 -73 -26 -109 -73 -152l-37 -35c-27 -26 -51 -51 -51 -99c0 -64 45 -105 109 -105c52 0 91 30 109 79c11 28 29 35 45 35
c26 0 46 -18 46 -46c0 -6 -1 -20 -8 -34c-35 -75 -106 -120 -198 -120c-111 0 -203 65 -203 185c0 85 39 123 96 171c39 33 71 59 71 121z" />
    <glyph glyph-name="quoteleft" unicode="&#x2018;" horiz-adv-x="246" 
d="M193 653l-50 -165c-9 -31 -29 -38 -43 -38c-23 0 -43 17 -43 42c0 4 1 14 5 27l52 160c10 31 28 37 42 37c21 0 41 -15 41 -39c0 -3 0 -11 -4 -24z" />
    <glyph glyph-name="quoteright" unicode="&#x2019;" horiz-adv-x="246" 
d="M53 513l50 165c9 31 29 38 43 38c23 0 43 -17 43 -42c0 -4 -1 -14 -5 -27l-52 -160c-10 -31 -28 -37 -42 -37c-21 0 -41 15 -41 39c0 3 0 11 4 24z" />
    <glyph glyph-name="quotedblleft" unicode="&#x201c;" horiz-adv-x="426" 
d="M193 653l-50 -165c-9 -31 -29 -38 -43 -38c-23 0 -43 17 -43 42c0 4 1 14 5 27l52 160c10 31 28 37 42 37c21 0 41 -15 41 -39c0 -3 0 -11 -4 -24zM373 653l-50 -165c-9 -31 -29 -38 -43 -38c-23 0 -43 17 -43 42c0 4 1 14 5 27l52 160c10 31 28 37 42 37
c21 0 41 -15 41 -39c0 -3 0 -11 -4 -24z" />
    <glyph glyph-name="quotedblright" unicode="&#x201d;" horiz-adv-x="426" 
d="M53 513l50 165c9 31 29 38 43 38c23 0 43 -17 43 -42c0 -4 -1 -14 -5 -27l-52 -160c-10 -31 -28 -37 -42 -37c-21 0 -41 15 -41 39c0 3 0 11 4 24zM233 513l50 165c9 31 29 38 43 38c23 0 43 -17 43 -42c0 -4 -1 -14 -5 -27l-52 -160c-10 -31 -28 -37 -42 -37
c-21 0 -41 15 -41 39c0 3 0 11 4 24z" />
    <glyph glyph-name="quotesinglbase" unicode="&#x201a;" horiz-adv-x="246" 
d="M53 -78l50 165c9 31 29 38 43 38c23 0 43 -17 43 -42c0 -4 -1 -14 -5 -27l-52 -160c-10 -31 -28 -37 -42 -37c-21 0 -41 15 -41 39c0 3 0 11 4 24z" />
    <glyph glyph-name="quotedblbase" unicode="&#x201e;" horiz-adv-x="426" 
d="M53 -78l50 165c9 31 29 38 43 38c23 0 42 -17 42 -42c0 -4 0 -14 -4 -27l-52 -160c-10 -31 -28 -37 -42 -37c-21 0 -41 15 -41 39c0 3 0 11 4 24zM233 -78l50 165c9 31 29 38 43 38c23 0 43 -17 43 -42c0 -4 -1 -14 -5 -27l-52 -160c-10 -31 -28 -37 -42 -37
c-21 0 -41 15 -41 39c0 3 0 11 4 24z" />
    <glyph glyph-name="guilsinglleft" unicode="&#x2039;" horiz-adv-x="298" 
d="M166 58l-105 154c-10 15 -12 24 -12 32s2 17 12 32l105 155c11 16 24 21 34 21c20 0 37 -15 37 -37c0 -6 -1 -15 -9 -27l-95 -144l95 -144c8 -12 9 -21 9 -27c0 -22 -17 -37 -37 -37c-10 0 -23 5 -34 22z" />
    <glyph glyph-name="guilsinglright" unicode="&#x203a;" horiz-adv-x="298" 
d="M237 212l-105 -154c-11 -17 -24 -22 -34 -22c-20 0 -37 15 -37 37c0 6 1 15 9 27l95 144l-95 144c-8 12 -9 21 -9 27c0 22 17 37 37 37c10 0 23 -5 34 -21l105 -155c10 -15 12 -24 12 -32s-2 -17 -12 -32z" />
    <glyph glyph-name="guillemotleft" unicode="&#xab;" horiz-adv-x="500" 
d="M166 58l-105 154c-10 15 -12 24 -12 32s2 17 12 32l105 155c11 16 24 21 34 21c20 0 37 -15 37 -37c0 -6 -1 -15 -9 -27l-95 -144l95 -144c8 -12 9 -21 9 -27c0 -22 -17 -37 -37 -37c-10 0 -23 5 -34 22zM368 58l-105 154c-10 15 -12 24 -12 32s2 17 12 32l105 155
c11 16 24 21 34 21c20 0 37 -15 37 -37c0 -6 -1 -15 -9 -27l-95 -144l95 -144c8 -12 9 -21 9 -27c0 -22 -17 -37 -37 -37c-10 0 -23 5 -34 22z" />
    <glyph glyph-name="guillemotright" unicode="&#xbb;" horiz-adv-x="500" 
d="M334 430l105 -154c10 -15 12 -24 12 -32s-2 -17 -12 -32l-105 -155c-11 -16 -24 -21 -34 -21c-20 0 -37 15 -37 37c0 6 1 15 9 27l95 144l-95 144c-8 12 -9 21 -9 27c0 22 17 37 37 37c10 0 23 -5 34 -22zM132 430l105 -154c10 -15 12 -24 12 -32s-2 -17 -12 -32
l-105 -155c-11 -16 -24 -21 -34 -21c-20 0 -37 15 -37 37c0 6 1 15 9 27l95 144l-95 144c-8 12 -9 21 -9 27c0 22 17 37 37 37c10 0 23 -5 34 -22z" />
    <glyph glyph-name="endash" unicode="&#x2013;" horiz-adv-x="400" 
d="M336 207h-272c-35 0 -42 25 -42 38c0 12 7 37 42 37h272c35 0 42 -25 42 -37c0 -13 -7 -38 -42 -38z" />
    <glyph glyph-name="emdash" unicode="&#x2014;" horiz-adv-x="600" 
d="M536 207h-472c-35 0 -42 25 -42 38c0 12 7 37 42 37h472c35 0 42 -25 42 -37c0 -13 -7 -38 -42 -38z" />
    <glyph glyph-name="bullet" unicode="&#x2022;" horiz-adv-x="500" 
d="M73 354c0 98 79 177 177 177s177 -79 177 -177s-79 -177 -177 -177s-177 79 -177 177z" />
    <glyph glyph-name="periodcentered" unicode="&#xb7;" horiz-adv-x="260" 
d="M198 303c0 -35 -29 -66 -67 -66s-68 30 -68 65c0 36 29 67 68 67c37 0 67 -30 67 -66z" />
    <glyph glyph-name="uni2219" unicode="&#x2219;" horiz-adv-x="260" 
d="M198 303c0 -35 -29 -66 -67 -66s-68 30 -68 65c0 36 29 67 68 67c37 0 67 -30 67 -66z" />
    <glyph glyph-name="dagger" unicode="&#x2020;" horiz-adv-x="575" 
d="M498 426h-166v-510c0 -43 -30 -50 -45 -50c-14 0 -45 7 -45 50v510h-165c-38 0 -44 27 -44 39c0 13 6 40 44 40h165v161c0 43 31 50 45 50c15 0 45 -7 45 -50v-161h166c38 0 44 -27 44 -40c0 -12 -6 -39 -44 -39z" />
    <glyph glyph-name="daggerdbl" unicode="&#x2021;" horiz-adv-x="575" 
d="M494 63h-162v-147c0 -43 -30 -50 -45 -50c-14 0 -45 7 -45 50v147h-161c-38 0 -44 27 -44 39c0 13 6 39 44 39h161v300h-161c-38 0 -44 27 -44 39c0 13 6 40 44 40h161v146c0 43 31 50 45 50c15 0 45 -7 45 -50v-146h162c37 0 43 -27 43 -40c0 -12 -6 -39 -43 -39h-162
v-300h162c37 0 43 -26 43 -39c0 -12 -6 -39 -43 -39z" />
    <glyph glyph-name="section" unicode="&#xa7;" horiz-adv-x="595" 
d="M491 33c0 -117 -102 -172 -203 -172c-70 0 -139 25 -179 71c-15 17 -17 29 -17 38c0 26 19 45 45 45c12 0 24 -3 39 -21c30 -36 70 -51 112 -51c44 0 105 21 105 84c0 57 -41 76 -144 120c-86 38 -156 71 -156 161c0 69 45 117 100 139c-36 23 -69 58 -69 117
c0 110 99 162 195 162c69 0 125 -23 155 -58c11 -13 14 -25 14 -33c0 -24 -18 -42 -43 -42c-10 0 -20 2 -37 18c-24 22 -49 37 -88 37c-52 0 -99 -27 -99 -78c0 -54 45 -80 128 -114c94 -39 166 -81 166 -173c0 -60 -38 -109 -85 -130c42 -28 61 -68 61 -120zM334 369
l-75 33c-33 -9 -74 -32 -74 -80c0 -51 43 -72 95 -94l84 -36c30 10 59 39 59 78c0 55 -44 78 -89 99z" />
    <glyph glyph-name="paragraph" unicode="&#xb6;" horiz-adv-x="600" 
d="M251 -90v417c-126 0 -212 80 -212 184c0 132 91 197 231 197h206c32 0 47 -15 47 -47v-751c0 -38 -26 -44 -39 -44s-39 6 -39 44v735h-115v-735c0 -38 -26 -44 -39 -44c-14 0 -40 6 -40 44z" />
    <glyph glyph-name="brokenbar" unicode="&#xa6;" horiz-adv-x="222" 
d="M70 362v276c0 38 27 45 41 45c13 0 41 -7 41 -45v-276c0 -38 -28 -45 -41 -45c-14 0 -41 7 -41 45zM70 -138v276c0 38 27 45 41 45c13 0 41 -7 41 -45v-276c0 -38 -28 -45 -41 -45c-14 0 -41 7 -41 45z" />
    <glyph glyph-name="copyright" unicode="&#xa9;" horiz-adv-x="800" 
d="M20 353c0 210 171 377 381 377c209 0 379 -167 379 -377c0 -209 -170 -375 -379 -375c-210 0 -381 166 -381 375zM80 353c0 -176 144 -319 321 -319c176 0 319 143 319 319c0 177 -143 321 -319 321c-177 0 -321 -144 -321 -321zM550 184c-33 -30 -81 -50 -136 -50
c-128 0 -228 87 -228 225c0 135 100 224 228 224c51 0 100 -17 131 -44c15 -12 18 -24 18 -34c0 -23 -17 -38 -38 -38c-7 0 -19 2 -33 13c-22 18 -50 28 -77 28c-89 0 -141 -71 -141 -148c0 -78 52 -150 144 -150c31 0 58 11 79 29c13 11 23 14 32 14c21 0 37 -15 37 -36
c0 -10 -3 -21 -16 -33z" />
    <glyph glyph-name="registered" unicode="&#xae;" horiz-adv-x="600" 
d="M72 493c0 126 103 227 229 227c125 0 227 -101 227 -227c0 -125 -102 -224 -227 -224c-126 0 -229 99 -229 224zM108 493c0 -105 86 -191 193 -191c106 0 191 86 191 191c0 107 -85 193 -191 193c-107 0 -193 -86 -193 -193zM264 511h47c22 0 37 13 37 33s-17 30 -37 30
h-47v-63zM359 476l49 -69c6 -8 8 -15 8 -20c0 -16 -12 -28 -28 -28c-8 0 -18 3 -27 17l-61 91h-36v-73c0 -28 -21 -34 -30 -34c-11 0 -31 6 -31 34v196c0 23 11 34 34 34h76c47 0 97 -19 97 -80c0 -34 -22 -58 -51 -68z" />
    <glyph glyph-name="trademark" unicode="&#x2122;" horiz-adv-x="1000" 
d="M185 636h-97c-35 0 -40 24 -40 36s5 36 40 36h273c35 0 40 -24 40 -36s-5 -36 -40 -36h-95v-303c0 -38 -27 -45 -41 -45c-13 0 -40 7 -40 45v303zM476 333v328c0 46 33 54 49 54c18 0 38 -7 53 -41l129 -285l128 285c15 33 35 41 52 41c16 0 50 -8 50 -54v-328
c0 -38 -27 -45 -41 -45s-41 7 -41 45v211h-1l-103 -221c-14 -30 -31 -36 -45 -36s-31 6 -45 36l-102 221h-2v-211c0 -38 -27 -45 -41 -45c-13 0 -40 7 -40 45z" />
    <glyph glyph-name="currency" unicode="&#xa4;" horiz-adv-x="890" 
d="M446 478c-98 0 -163 -77 -163 -169c0 -94 65 -171 163 -171c100 0 163 77 163 171c0 92 -64 169 -163 169zM668 25l-68 68c-42 -30 -95 -47 -154 -47c-57 0 -108 16 -154 49l-68 -68c-14 -13 -24 -15 -32 -15c-24 0 -41 18 -41 40c0 7 2 19 16 33l66 66
c-31 41 -49 95 -49 158c0 60 17 112 47 153l-65 65c-15 14 -16 26 -16 33c0 22 17 40 40 40c8 0 19 -2 32 -15l66 -66c43 32 97 50 158 50s115 -17 157 -49l65 66c13 13 24 15 32 15c23 0 40 -18 40 -40c0 -8 -1 -19 -16 -34l-62 -62c30 -42 48 -94 48 -156
c0 -63 -19 -118 -51 -161l65 -65c14 -14 16 -26 16 -33c0 -22 -17 -40 -41 -40c-8 0 -18 2 -31 15z" />
    <glyph glyph-name="Euro" unicode="&#x20ac;" horiz-adv-x="595" 
d="M485 629c-24 8 -53 13 -86 13c-97 0 -177 -62 -205 -164h250c34 0 40 -24 40 -35c0 -12 -6 -36 -40 -36h-264c-2 -17 -4 -37 -4 -57c0 -14 1 -35 3 -50h212c34 0 40 -24 40 -35c0 -12 -6 -36 -40 -36h-201c20 -95 102 -162 208 -162c38 0 69 6 101 21c9 4 16 6 23 6
c22 0 39 -17 39 -41c0 -13 -5 -28 -29 -42c-35 -19 -85 -29 -140 -29c-172 0 -271 117 -298 247h-36c-34 0 -40 24 -40 36c0 11 6 35 40 35h27c-1 15 -2 34 -2 50c0 19 1 42 3 57h-25c-34 0 -40 24 -40 36c0 11 6 35 40 35h36c38 154 155 248 307 248c40 0 87 -7 115 -18
c29 -11 35 -28 35 -41c0 -23 -15 -43 -41 -43c-7 0 -19 2 -28 5z" />
    <glyph glyph-name="cent" unicode="&#xa2;" horiz-adv-x="595" 
d="M299 71v332c-80 -15 -123 -83 -123 -166c0 -82 45 -150 123 -166zM350 -58c0 -24 -17 -28 -25 -28c-9 0 -26 4 -26 28v47c-134 13 -216 117 -216 249c0 134 82 231 216 247v44c0 24 17 29 26 29c8 0 25 -5 25 -29v-43c50 -2 93 -17 127 -43c18 -14 24 -29 24 -41
c0 -22 -16 -42 -41 -42c-10 0 -19 3 -38 18c-20 15 -44 25 -72 26v-334c29 1 57 13 79 31c12 9 22 13 32 13c25 0 41 -18 41 -40c0 -12 -5 -26 -23 -40c-36 -29 -83 -43 -129 -46v-46z" />
    <glyph glyph-name="sterling" unicode="&#xa3;" horiz-adv-x="595" 
d="M477 621c-21 15 -48 24 -80 24c-107 0 -129 -100 -129 -166v-82h134c34 0 40 -25 40 -36c0 -12 -6 -36 -40 -36h-134v-241h225c40 0 46 -29 46 -42s-6 -42 -46 -42h-384c-40 0 -47 29 -47 42s7 42 47 42h61v241h-65c-34 0 -40 24 -40 36c0 11 6 36 40 36h65v88
c0 107 56 241 229 241c45 0 88 -10 122 -32c23 -15 29 -29 29 -43c0 -21 -16 -41 -41 -41c-8 0 -19 2 -32 11z" />
    <glyph glyph-name="florin" unicode="&#x192;" horiz-adv-x="595" 
d="M281 31c-20 -100 -66 -170 -172 -170c-16 0 -33 2 -47 7c-29 10 -35 28 -35 40c0 21 15 40 39 40c6 0 12 -1 18 -3c7 -2 14 -3 21 -3c57 0 74 50 84 105l58 303h-79c-34 0 -40 24 -40 36s6 37 40 37h93l25 127c18 91 57 170 165 170c23 0 46 -4 64 -11
c28 -11 33 -27 33 -40c0 -20 -14 -42 -40 -42c-5 0 -12 2 -21 5s-16 4 -26 4c-58 0 -74 -57 -84 -109l-21 -104h83c34 0 40 -25 40 -37s-6 -36 -40 -36h-96z" />
    <glyph glyph-name="yen" unicode="&#xa5;" horiz-adv-x="595" 
d="M551 640l-177 -255h113c31 0 37 -22 37 -33s-6 -33 -37 -33h-142v-91h142c31 0 37 -22 37 -33s-6 -33 -37 -33h-142v-118c0 -44 -32 -52 -47 -52c-16 0 -48 8 -48 52v118h-142c-30 0 -36 22 -36 33s6 33 36 33h142v91h-142c-30 0 -36 22 -36 33s6 33 36 33h117l-178 252
c-9 14 -12 24 -12 33c0 26 20 46 47 46c12 0 28 -4 43 -26l177 -275l174 276c13 21 29 25 41 25c26 0 46 -19 46 -43c0 -9 -4 -21 -12 -33z" />
    <glyph glyph-name="ordfeminine" unicode="&#xaa;" horiz-adv-x="380" 
d="M246 608v7c0 34 -27 52 -65 52c-19 0 -42 -6 -62 -19c-7 -5 -15 -7 -20 -7c-15 0 -27 11 -27 26c0 10 5 20 17 28c25 17 61 28 98 28c93 0 127 -53 127 -120v-144c0 -31 -22 -36 -34 -36c-11 0 -33 5 -33 36v9h-1c-15 -25 -48 -44 -89 -44c-45 0 -106 21 -106 88
c0 84 106 96 195 96zM246 550v10h-16c-45 0 -108 -5 -108 -47c0 -28 25 -36 50 -36c48 0 74 28 74 73z" />
    <glyph glyph-name="ordmasculine" unicode="&#xba;" horiz-adv-x="380" 
d="M342 574c0 -86 -64 -148 -152 -148s-152 62 -152 148c0 87 64 148 152 148s152 -61 152 -148zM267 574c0 44 -27 82 -77 82s-76 -38 -76 -82c0 -43 26 -82 76 -82s77 39 77 82z" />
    <glyph glyph-name="onesuperior" unicode="&#xb9;" horiz-adv-x="385" 
d="M82 628l88 73c14 12 26 15 35 15c13 0 42 -6 42 -47v-351c0 -38 -26 -44 -38 -44c-13 0 -40 6 -40 44v296l-45 -40c-10 -8 -19 -10 -26 -10c-18 0 -33 14 -33 33c0 8 2 18 17 31z" />
    <glyph glyph-name="twosuperior" unicode="&#xb2;" horiz-adv-x="385" 
d="M304 286h-218c-38 0 -44 25 -44 37s4 25 24 45l148 150c21 22 40 46 40 78c0 34 -26 55 -60 55c-30 0 -50 -18 -62 -45c-10 -20 -22 -26 -36 -26c-20 0 -36 13 -36 34c0 9 2 18 7 28c24 47 71 77 127 77c73 0 138 -41 138 -123c0 -57 -34 -94 -70 -129l-113 -112h155
c32 0 37 -23 37 -34s-5 -35 -37 -35z" />
    <glyph glyph-name="threesuperior" unicode="&#xb3;" horiz-adv-x="385" 
d="M122 383c16 -23 37 -36 67 -36c36 0 73 20 73 65c0 48 -45 63 -90 63c-31 0 -37 22 -37 32s6 32 37 32c44 0 78 17 78 62c0 32 -28 53 -61 53c-23 0 -41 -11 -58 -33c-9 -13 -20 -16 -30 -16c-19 0 -34 13 -34 33c0 7 1 15 12 29c28 35 69 53 112 53
c75 0 135 -38 135 -116c0 -41 -23 -75 -61 -93c43 -15 72 -52 72 -101c0 -87 -72 -130 -146 -130c-53 0 -98 18 -127 60c-9 12 -11 22 -11 31c0 19 16 34 35 34c12 0 23 -5 34 -22z" />
    <glyph glyph-name="fraction" unicode="&#x2044;" horiz-adv-x="100" 
d="M-191 33l398 678c11 19 24 23 34 23c19 0 37 -13 37 -35c0 -4 -1 -12 -7 -23l-398 -678c-11 -19 -23 -23 -34 -23c-19 0 -37 13 -37 35c0 4 1 12 7 23z" />
    <glyph glyph-name="uni2215" unicode="&#x2215;" horiz-adv-x="100" 
d="M-191 33l398 678c11 19 24 23 34 23c19 0 37 -13 37 -35c0 -4 -1 -12 -7 -23l-398 -678c-11 -19 -23 -23 -34 -23c-19 0 -37 13 -37 35c0 4 1 12 7 23z" />
    <glyph glyph-name="onequarter" unicode="&#xbc;" horiz-adv-x="871" 
d="M675 158v165h-2l-109 -165h111zM492 164l163 241c17 25 34 29 46 29c14 0 45 -7 45 -50v-226h30c32 0 37 -22 37 -34c0 -10 -5 -33 -37 -33h-30v-59c0 -34 -24 -40 -35 -40c-12 0 -36 6 -36 40v59h-154c-37 0 -43 25 -43 38c0 9 3 19 14 35zM82 628l88 73
c14 12 26 15 35 15c13 0 42 -6 42 -47v-351c0 -38 -26 -44 -38 -44c-13 0 -40 6 -40 44v296l-45 -40c-10 -8 -19 -10 -26 -10c-18 0 -33 14 -33 33c0 8 2 18 17 31zM194 33l398 678c11 19 24 23 34 23c19 0 37 -13 37 -35c0 -4 -1 -12 -7 -23l-398 -678
c-11 -19 -23 -23 -34 -23c-19 0 -37 13 -37 35c0 4 1 12 7 23z" />
    <glyph glyph-name="onehalf" unicode="&#xbd;" horiz-adv-x="871" 
d="M82 628l88 73c14 12 26 15 35 15c13 0 42 -6 42 -47v-351c0 -38 -26 -44 -38 -44c-13 0 -40 6 -40 44v296l-45 -40c-10 -8 -19 -10 -26 -10c-18 0 -33 14 -33 33c0 8 2 18 17 31zM194 33l398 678c11 19 24 23 34 23c19 0 37 -13 37 -35c0 -4 -1 -12 -7 -23l-398 -678
c-11 -19 -23 -23 -34 -23c-19 0 -37 13 -37 35c0 4 1 12 7 23zM782 0h-218c-38 0 -44 25 -44 37s4 25 24 45l148 150c21 22 40 46 40 78c0 34 -26 55 -60 55c-30 0 -50 -18 -62 -45c-10 -20 -22 -26 -36 -26c-20 0 -36 13 -36 34c0 9 2 18 7 28c24 47 71 77 127 77
c73 0 138 -41 138 -123c0 -57 -34 -94 -70 -129l-113 -112h155c32 0 37 -23 37 -34s-5 -35 -37 -35z" />
    <glyph glyph-name="threequarters" unicode="&#xbe;" horiz-adv-x="871" 
d="M675 158v165h-2l-109 -165h111zM492 164l163 241c17 25 34 29 46 29c14 0 45 -7 45 -50v-226h30c32 0 37 -22 37 -34c0 -10 -5 -33 -37 -33h-30v-59c0 -34 -24 -40 -35 -40c-12 0 -36 6 -36 40v59h-154c-37 0 -43 25 -43 38c0 9 3 19 14 35zM122 383
c16 -23 37 -36 67 -36c36 0 73 20 73 65c0 48 -45 63 -90 63c-31 0 -37 22 -37 32s6 32 37 32c44 0 78 17 78 62c0 32 -28 53 -61 53c-23 0 -41 -11 -58 -33c-9 -13 -20 -16 -30 -16c-19 0 -34 13 -34 33c0 7 1 15 12 29c28 35 69 53 112 53c75 0 135 -38 135 -116
c0 -41 -23 -75 -61 -93c43 -15 72 -52 72 -101c0 -87 -72 -130 -146 -130c-53 0 -97 18 -127 60c-9 12 -11 22 -11 31c0 19 16 34 35 34c12 0 23 -5 34 -22zM194 33l398 678c11 19 24 23 34 23c19 0 37 -13 37 -35c0 -4 -1 -12 -7 -23l-398 -678c-11 -19 -23 -23 -34 -23
c-19 0 -37 13 -37 35c0 4 1 12 7 23z" />
    <glyph glyph-name="perthousand" unicode="&#x2030;" horiz-adv-x="1048" 
d="M596 681l-436 -687c-11 -17 -22 -21 -31 -21c-17 0 -33 12 -33 31c0 5 1 12 8 23l436 687c11 17 22 21 31 21c17 0 33 -12 33 -31c0 -5 -1 -12 -8 -23zM39 563c0 88 71 159 159 159c89 0 160 -71 160 -159s-71 -159 -160 -159c-88 0 -159 71 -159 159zM283 563
c0 47 -38 84 -85 84c-46 0 -84 -37 -84 -84s38 -85 84 -85c47 0 85 38 85 85zM344 148c0 88 71 159 159 159c89 0 160 -71 160 -159s-71 -159 -160 -159c-88 0 -159 71 -159 159zM588 148c0 47 -38 84 -85 84c-46 0 -84 -37 -84 -84s38 -85 84 -85c47 0 85 38 85 85z
M696 148c0 88 71 159 159 159c89 0 160 -71 160 -159s-71 -159 -160 -159c-88 0 -159 71 -159 159zM940 148c0 47 -38 84 -85 84c-46 0 -84 -37 -84 -84s38 -85 84 -85c47 0 85 38 85 85z" />
    <glyph glyph-name="minus" unicode="&#x2212;" horiz-adv-x="666" 
d="M559 262h-452c-39 0 -45 28 -45 41s6 41 45 41h452c39 0 45 -28 45 -41s-6 -41 -45 -41z" />
    <glyph glyph-name="plusminus" unicode="&#xb1;" horiz-adv-x="666" 
d="M550 40h-434c-38 0 -45 27 -45 41c0 13 7 40 45 40h434c38 0 45 -27 45 -40c0 -14 -7 -41 -45 -41zM293 338h-177c-38 0 -45 27 -45 41c0 13 7 40 45 40h177v113c0 38 27 45 40 45c14 0 41 -7 41 -45v-113h176c38 0 45 -27 45 -40c0 -14 -7 -41 -45 -41h-176v-110
c0 -38 -27 -45 -41 -45c-13 0 -40 7 -40 45v110z" />
    <glyph glyph-name="multiply" unicode="&#xd7;" horiz-adv-x="666" 
d="M532 447l-142 -143l144 -145c12 -12 15 -24 15 -34c0 -23 -17 -41 -40 -41c-9 0 -20 3 -33 16l-144 143l-143 -143c-12 -13 -23 -16 -33 -16c-23 0 -40 18 -40 40c0 10 3 22 16 34l144 143l-143 145c-14 15 -17 26 -17 35c0 21 16 39 39 39c10 0 21 -3 34 -16l144 -144
l144 144c12 13 23 16 32 16c23 0 40 -16 40 -38c0 -10 -3 -21 -17 -35z" />
    <glyph glyph-name="divide" unicode="&#xf7;" horiz-adv-x="666" 
d="M398 469c0 -34 -28 -65 -65 -65s-65 31 -65 65c0 35 28 65 65 65s65 -30 65 -65zM398 132c0 -35 -28 -65 -65 -65s-65 30 -65 65c0 34 28 65 65 65s65 -31 65 -65zM550 262h-434c-38 0 -45 27 -45 41s7 41 45 41h434c38 0 45 -27 45 -41s-7 -41 -45 -41z" />
    <glyph glyph-name="notequal" unicode="&#x2260;" horiz-adv-x="666" 
d="M486 483l-39 -75h101c38 0 45 -28 45 -41s-7 -41 -45 -41h-143l-54 -103h197c38 0 45 -28 45 -41s-7 -41 -45 -41h-239l-57 -110c-11 -21 -25 -26 -37 -26c-21 0 -39 14 -39 39c0 6 1 15 6 25l37 72h-101c-38 0 -45 28 -45 41s7 41 45 41h143l53 103h-196
c-38 0 -45 28 -45 41s7 41 45 41h239l57 112c11 21 26 26 38 26c21 0 40 -14 40 -38c0 -7 -2 -17 -6 -25z" />
    <glyph glyph-name="approxequal" unicode="&#x2248;" horiz-adv-x="666" 
d="M201 353c-33 0 -51 -18 -62 -49c-8 -23 -22 -27 -32 -27c-18 0 -35 12 -35 33c0 4 1 13 5 25c18 58 58 103 126 103c42 0 90 -17 136 -34c45 -17 89 -34 127 -34c33 0 51 19 62 49c8 23 22 27 32 27c18 0 35 -12 35 -33c0 -4 -1 -13 -5 -25c-19 -58 -58 -103 -126 -103
c-41 0 -91 17 -137 35c-46 17 -89 33 -126 33zM466 167c33 0 51 18 62 49c8 23 22 27 32 27c18 0 35 -12 35 -33c0 -4 -1 -13 -5 -25c-18 -58 -58 -103 -126 -103c-42 0 -90 17 -136 34c-45 17 -89 34 -127 34c-33 0 -51 -19 -62 -49c-8 -23 -22 -27 -32 -27
c-18 0 -35 12 -35 33c0 4 1 13 5 25c19 58 58 103 126 103c41 0 90 -17 137 -35c45 -17 89 -33 126 -33z" />
    <glyph glyph-name="lessequal" unicode="&#x2264;" horiz-adv-x="666" 
d="M546 5h-426c-40 0 -47 29 -47 42s7 41 47 41h426c40 0 47 -28 47 -41s-7 -42 -47 -42zM525 147l-412 153c-34 13 -40 34 -40 49s6 36 40 49l412 155c13 5 21 7 27 7c24 0 41 -17 41 -41c0 -12 -4 -32 -30 -41l-353 -130l353 -125c26 -9 30 -29 30 -40
c0 -25 -17 -42 -41 -42c-6 0 -14 1 -27 6z" />
    <glyph glyph-name="greaterequal" unicode="&#x2265;" horiz-adv-x="666" 
d="M546 5h-426c-40 0 -47 29 -47 42s7 41 47 41h426c40 0 47 -28 47 -41s-7 -42 -47 -42zM553 300l-412 -153c-13 -5 -21 -6 -27 -6c-24 0 -41 17 -41 42c0 11 4 31 30 40l353 125l-353 130c-26 9 -30 29 -30 41c0 24 17 41 41 41c6 0 14 -2 27 -7l412 -155
c34 -13 40 -34 40 -49s-6 -36 -40 -49z" />
    <glyph glyph-name="logicalnot" unicode="&#xac;" horiz-adv-x="666" 
d="M596 378v-202c0 -39 -27 -45 -41 -45c-13 0 -40 6 -40 45v169h-408c-39 0 -45 28 -45 41s6 40 45 40h441c33 0 48 -16 48 -48z" />
    <glyph glyph-name="Delta" unicode="&#x2206;" horiz-adv-x="678" 
d="M550 83l-217 527l-209 -527h426zM398 669l244 -582c10 -25 10 -33 10 -40c0 -15 -8 -47 -56 -47h-515c-48 0 -56 32 -56 47c0 7 0 15 10 40l236 582c18 45 45 51 64 51c18 0 46 -6 63 -51z" />
    <glyph glyph-name="uni0394" unicode="&#x394;" horiz-adv-x="678" 
d="M550 83l-217 527l-209 -527h426zM398 669l244 -582c10 -25 10 -33 10 -40c0 -15 -8 -47 -56 -47h-515c-48 0 -56 32 -56 47c0 7 0 15 10 40l236 582c18 45 45 51 64 51c18 0 46 -6 63 -51z" />
    <glyph glyph-name="Omega" unicode="&#x2126;" horiz-adv-x="752" 
d="M285 194c22 -9 31 -23 31 -50v-96c0 -32 -15 -48 -49 -48h-175c-39 0 -47 28 -47 41c0 14 8 41 47 41h146v57c-123 36 -185 146 -185 271c0 181 147 311 324 311c178 0 323 -127 323 -309c0 -127 -60 -236 -185 -273v-57h146c39 0 46 -27 46 -41c0 -13 -7 -41 -46 -41
h-176c-33 0 -49 16 -49 48v96c0 27 10 42 32 50c95 35 139 116 139 212c0 131 -97 232 -229 232c-133 0 -230 -101 -230 -233c0 -101 45 -177 137 -211z" />
    <glyph glyph-name="uni03A9" unicode="&#x3a9;" horiz-adv-x="752" 
d="M285 194c22 -9 31 -23 31 -50v-96c0 -32 -15 -48 -49 -48h-175c-39 0 -47 28 -47 41c0 14 8 41 47 41h146v57c-123 36 -185 146 -185 271c0 181 147 311 324 311c178 0 323 -127 323 -309c0 -127 -60 -236 -185 -273v-57h146c39 0 46 -27 46 -41c0 -13 -7 -41 -46 -41
h-176c-33 0 -49 16 -49 48v96c0 27 10 42 32 50c95 35 139 116 139 212c0 131 -97 232 -229 232c-133 0 -230 -101 -230 -233c0 -101 45 -177 137 -211z" />
    <glyph glyph-name="mu" unicode="&#xb5;" horiz-adv-x="578" 
d="M498 430v-388c0 -43 -30 -50 -44 -50c-15 0 -45 7 -45 50v36h-2c-26 -52 -86 -91 -155 -91c-35 0 -64 12 -83 30v-213c0 -44 -31 -52 -47 -52s-47 8 -47 52v626c0 44 31 52 47 52s47 -8 47 -52v-219c0 -77 21 -145 108 -145c74 0 127 62 127 156v208c0 44 31 52 47 52
s47 -8 47 -52z" />
    <glyph glyph-name="uni03BC" unicode="&#x3bc;" horiz-adv-x="578" 
d="M498 430v-388c0 -43 -30 -50 -44 -50c-15 0 -45 7 -45 50v36h-2c-26 -52 -86 -91 -155 -91c-35 0 -64 12 -83 30v-213c0 -44 -31 -52 -47 -52s-47 8 -47 52v626c0 44 31 52 47 52s47 -8 47 -52v-219c0 -77 21 -145 108 -145c74 0 127 62 127 156v208c0 44 31 52 47 52
s47 -8 47 -52z" />
    <glyph glyph-name="pi" unicode="&#x3c0;" horiz-adv-x="578" 
d="M101 39v354h-32c-39 0 -46 27 -46 41c0 13 7 40 46 40h436c38 0 45 -27 45 -40c0 -14 -7 -41 -45 -41h-41v-270c0 -31 4 -50 28 -50c11 0 17 4 27 4c20 0 34 -12 34 -35c0 -10 -5 -23 -21 -33c-20 -12 -41 -16 -62 -16c-79 0 -92 56 -92 124v276h-191v-354
c0 -40 -28 -47 -43 -47s-43 7 -43 47z" />
    <glyph glyph-name="degree" unicode="&#xb0;" horiz-adv-x="400" 
d="M355 565c0 -87 -68 -154 -155 -154s-155 67 -155 154s68 155 155 155s155 -68 155 -155zM291 565c0 51 -41 92 -91 92s-91 -41 -91 -92c0 -50 41 -91 91 -91s91 41 91 91z" />
    <glyph glyph-name="afii61289" unicode="&#x2113;" horiz-adv-x="500" 
d="M339 579c0 46 -20 79 -48 79s-55 -35 -55 -103v-203c68 76 103 157 103 227zM285 -14c-85 0 -138 49 -138 135v89l-39 -38c-8 -8 -16 -10 -22 -10c-17 0 -30 12 -30 29c0 8 3 17 13 26l77 70v251c0 111 62 183 146 183c73 0 123 -52 123 -136c0 -99 -61 -202 -179 -314
v-135c0 -63 39 -81 71 -81c21 0 45 8 67 22c13 8 19 9 24 9c17 0 28 -13 28 -29c0 -7 -2 -17 -17 -28c-38 -29 -78 -43 -124 -43z" />
    <glyph glyph-name="estimated" unicode="&#x212e;" horiz-adv-x="605" 
d="M561 259h-404v-181c39 -39 87 -59 145 -59c83 0 143 36 193 120l35 -21c-61 -95 -123 -135 -228 -135c-157 0 -258 122 -258 276c0 155 101 276 258 276c154 0 258 -114 259 -276zM157 295h291v145c-42 40 -91 60 -147 60c-57 0 -105 -21 -144 -60v-145z" />
    <glyph glyph-name="infinity" unicode="&#x221e;" horiz-adv-x="778" 
d="M736 258c0 -93 -59 -166 -155 -166c-80 0 -139 56 -191 110c-70 -68 -118 -109 -191 -109c-95 0 -156 70 -156 163c0 90 58 163 153 163c82 0 141 -59 194 -115c52 55 108 116 190 116c95 0 156 -71 156 -162zM660 255c0 49 -27 91 -80 91c-54 0 -107 -55 -142 -92
c38 -39 87 -86 145 -86c50 0 77 39 77 87zM342 254c-37 36 -93 91 -147 91c-49 0 -77 -44 -77 -90c0 -50 30 -87 81 -87c52 0 109 51 143 86z" />
    <glyph glyph-name="partialdiff" unicode="&#x2202;" horiz-adv-x="523" 
d="M142 620c-12 -7 -21 -11 -30 -11c-20 0 -36 16 -36 37c0 11 5 22 19 33c31 25 77 42 130 42c200 0 256 -195 256 -361c0 -158 -36 -372 -237 -372c-129 0 -209 102 -209 226c0 122 79 216 205 216c60 0 114 -26 156 -69v27c0 125 -55 259 -166 259c-34 0 -57 -8 -88 -27z
M392 283c-36 43 -83 77 -142 77c-86 0 -132 -71 -132 -151c0 -74 44 -149 129 -149c105 0 145 126 145 223z" />
    <glyph glyph-name="integral" unicode="&#x222b;" horiz-adv-x="578" 
d="M442 723c0 -25 -19 -42 -44 -42c-48 0 -40 51 -63 51c-25 0 -26 -46 -26 -82c0 -34 2 -67 2 -86v-568c0 -94 -17 -209 -132 -209c-34 0 -83 14 -83 60c0 23 19 41 42 41c47 0 39 -50 61 -50c25 0 25 61 25 85c0 25 -1 50 -1 77v574c0 98 12 212 131 212
c31 0 88 -18 88 -63z" />
    <glyph glyph-name="radical" unicode="&#x221a;" horiz-adv-x="515" 
d="M136 173l122 -256l172 838c7 33 29 39 44 39c24 0 43 -15 43 -42c0 -3 0 -8 -2 -19l-191 -906c-9 -42 -37 -49 -55 -49c-19 0 -40 7 -55 38l-143 298l-16 -8c-9 -4 -16 -6 -22 -6c-22 0 -38 17 -38 39c0 10 4 27 25 36l47 22c12 6 21 8 29 8c17 0 29 -9 40 -32z" />
    <glyph glyph-name="summation" unicode="&#x2211;" horiz-adv-x="626" 
d="M563 -214h-494c-43 0 -52 30 -52 47c0 11 4 24 21 46l303 412l-290 402c-16 23 -21 36 -21 47c0 17 9 46 52 46h469c39 0 46 -28 46 -41c0 -14 -7 -42 -46 -42h-398l269 -373c12 -17 14 -30 14 -38c0 -9 -2 -22 -15 -39l-286 -385h428c40 0 46 -28 46 -40
c0 -14 -6 -42 -46 -42z" />
    <glyph glyph-name="product" unicode="&#x220f;" horiz-adv-x="726" 
d="M660 731v-902c0 -44 -30 -51 -45 -51s-45 7 -45 51v874h-413v-874c0 -44 -30 -51 -45 -51s-46 7 -46 51v902c0 36 19 55 56 55h483c37 0 55 -19 55 -55z" />
    <glyph glyph-name="lozenge" unicode="&#x25ca;" horiz-adv-x="593" 
d="M424 356l-128 303l-127 -303l127 -304zM495 320l-146 -322c-16 -35 -36 -41 -53 -41s-37 6 -53 41l-145 322c-8 17 -9 28 -9 36s1 19 9 36l145 322c15 35 35 41 52 41c18 0 37 -6 53 -41l147 -322c8 -17 9 -28 9 -36s-1 -19 -9 -36z" />
    <glyph glyph-name="uniF8FF" unicode="&#xf8ff;" horiz-adv-x="512" 
d="M222 146v8c0 27 19 32 28 32s28 -5 28 -32v-8c0 -27 -19 -32 -28 -32s-28 5 -28 32zM50 50h412v617h-412v-617zM0 32v654c0 22 10 32 31 32h450c21 0 31 -10 31 -32v-654c0 -22 -10 -32 -31 -32h-450c-21 0 -31 10 -31 32zM223 254c0 69 16 97 59 137c45 42 48 64 48 89
c0 47 -33 79 -74 79c-36 0 -66 -20 -79 -75c-5 -20 -18 -23 -26 -23c-15 0 -25 12 -25 25c0 3 0 5 2 14c17 76 66 109 131 109c71 0 124 -47 124 -125c0 -43 -9 -75 -65 -128c-40 -38 -47 -47 -47 -102c0 -23 -16 -27 -24 -27s-24 4 -24 27z" />
    <glyph glyph-name="exclam.sc" horiz-adv-x="320" 
d="M225 59c0 -35 -27 -65 -65 -65c-37 0 -66 29 -66 64c0 36 27 65 66 65c37 0 65 -28 65 -64zM208 490v-272c0 -46 -32 -53 -48 -53s-48 7 -48 53v272c0 46 32 54 48 54s48 -8 48 -54z" />
    <glyph glyph-name="dollar.sc" horiz-adv-x="504" 
d="M229 536v41c0 24 17 28 24 28s24 -4 24 -28v-41c38 -2 79 -13 107 -33c17 -11 22 -25 22 -37c0 -23 -17 -40 -39 -40c-10 0 -19 3 -34 14c-18 13 -39 19 -56 20v-149c111 -32 157 -84 157 -160c0 -84 -60 -147 -157 -151v-43c0 -24 -17 -28 -24 -28s-24 4 -24 28v43
c-47 2 -94 18 -131 46c-17 13 -21 27 -21 39c0 23 17 41 41 41c13 0 24 -6 40 -19c23 -19 48 -30 71 -31v166c-99 29 -153 67 -153 150s60 138 153 144zM277 229v-153c41 4 67 30 67 71c0 37 -24 66 -67 82zM229 325v135c-39 -3 -64 -27 -64 -64c0 -39 22 -58 64 -71z" />
    <glyph glyph-name="percent.sc" horiz-adv-x="706" 
d="M532 498l-291 -498c-11 -20 -25 -24 -36 -24c-19 0 -36 14 -36 34c0 5 1 15 8 26l291 497c11 20 25 25 35 25c20 0 37 -14 37 -34c0 -6 -1 -14 -8 -26zM45 412c0 81 61 132 140 132c81 0 141 -51 141 -132c0 -79 -60 -134 -141 -134c-79 0 -140 55 -140 134zM126 412
c0 -38 24 -63 59 -63c36 0 60 25 60 63c0 37 -23 62 -60 62c-35 0 -59 -25 -59 -62zM384 122c0 81 61 132 140 132c81 0 141 -51 141 -132c0 -79 -60 -134 -141 -134c-79 0 -140 55 -140 134zM465 122c0 -38 24 -63 59 -63c36 0 60 25 60 63c0 37 -23 62 -60 62
c-35 0 -59 -25 -59 -62z" />
    <glyph glyph-name="ampersand.sc" horiz-adv-x="619" 
d="M526 219l-55 -85l63 -60c17 -16 19 -28 19 -38c0 -23 -17 -44 -43 -44c-10 0 -23 3 -36 16l-56 55c-46 -57 -99 -77 -167 -77c-94 0 -181 51 -181 155c0 73 42 121 110 157c-38 40 -52 77 -52 117c0 84 70 135 149 135s146 -48 146 -130c0 -63 -42 -106 -106 -140l91 -87
l46 73c13 21 28 26 41 26c24 0 42 -18 42 -42c0 -7 -2 -18 -11 -31zM250 64c43 0 80 16 107 59l-120 118c-53 -23 -71 -56 -71 -98c0 -46 35 -79 84 -79zM220 414c0 -22 10 -47 42 -82c55 27 72 58 72 87c0 33 -24 53 -56 53c-34 0 -58 -25 -58 -58z" />
    <glyph glyph-name="zero.sc" horiz-adv-x="504" 
d="M252 548c131 0 194 -121 194 -281s-63 -281 -194 -281c-133 0 -194 121 -194 281s61 281 194 281zM252 462c-69 0 -96 -94 -96 -195c0 -102 27 -195 96 -195s96 93 96 195c0 101 -28 195 -96 195z" />
    <glyph glyph-name="one.sc" horiz-adv-x="504" 
d="M333 485v-440c0 -45 -32 -53 -47 -53c-16 0 -48 8 -48 53v371l-61 -51c-14 -12 -26 -15 -34 -15c-23 0 -40 18 -40 41c0 11 3 25 22 40l109 91c20 17 34 22 48 22c17 0 51 -8 51 -59z" />
    <glyph glyph-name="two.sc" horiz-adv-x="504" 
d="M424 396c0 -62 -32 -117 -90 -174l-144 -141h200c39 0 46 -28 46 -40c0 -13 -7 -41 -46 -41h-265c-53 0 -60 33 -60 49c0 14 6 30 29 53l175 176c40 41 58 76 58 115c0 40 -28 75 -76 75c-36 0 -62 -18 -78 -53c-14 -29 -30 -35 -46 -35c-23 0 -44 16 -44 43
c0 15 8 34 16 47c33 52 88 80 152 80c97 0 173 -52 173 -154z" />
    <glyph glyph-name="three.sc" horiz-adv-x="504" 
d="M432 154c0 -110 -89 -168 -184 -168c-67 0 -119 22 -157 71c-12 15 -17 29 -17 40c0 26 20 43 45 43c14 0 28 -5 44 -28c21 -30 49 -44 83 -44c46 0 92 27 92 86c0 64 -57 87 -114 87c-37 0 -44 26 -44 39s7 39 44 39c50 0 101 20 101 77c0 43 -36 73 -79 73
c-29 0 -51 -12 -72 -38c-11 -14 -25 -21 -39 -21c-24 0 -42 17 -42 41c0 8 3 22 16 37c35 40 80 62 140 62c93 0 170 -52 170 -149c0 -55 -32 -99 -87 -119c-1 0 0 0 0 -1c62 -16 100 -65 100 -127z" />
    <glyph glyph-name="four.sc" horiz-adv-x="504" 
d="M292 194v221h-2l-145 -221h147zM63 209l197 292c25 38 48 43 66 43s58 -11 58 -71v-279h35c38 0 46 -27 46 -40s-8 -40 -46 -40h-35v-70c0 -45 -31 -52 -45 -52c-16 0 -47 7 -47 52v70h-190c-48 0 -56 33 -56 49c0 13 6 29 17 46z" />
    <glyph glyph-name="five.sc" horiz-adv-x="504" 
d="M157 110c20 -29 48 -43 82 -43c58 0 100 41 100 101c0 69 -43 104 -109 104c-15 0 -35 -3 -55 -9c-13 -4 -27 -8 -35 -8c-12 0 -38 5 -37 42l5 184c1 39 18 55 56 55h210c39 0 45 -27 45 -40s-6 -40 -45 -40h-176l-4 -116c18 5 39 8 56 8c107 0 184 -65 184 -174
c0 -110 -80 -188 -196 -188c-67 0 -119 25 -152 70c-10 13 -13 25 -13 35c0 24 18 43 44 43c12 0 26 -4 40 -24z" />
    <glyph glyph-name="six.sc" horiz-adv-x="504" 
d="M275 338c97 0 169 -65 169 -169c0 -109 -82 -183 -190 -183c-110 0 -191 73 -191 178c0 57 24 115 60 169l121 183c15 23 29 28 45 28c25 0 44 -19 44 -43c0 -7 -2 -19 -14 -35l-97 -137l1 -2c17 8 36 11 52 11zM158 165c0 -59 42 -99 96 -99c55 0 95 42 95 100
c0 56 -37 98 -95 98c-56 0 -96 -42 -96 -99z" />
    <glyph glyph-name="seven.sc" horiz-adv-x="504" 
d="M420 442l-197 -416c-14 -28 -31 -34 -46 -34c-27 0 -49 18 -49 46c0 6 1 16 8 29l190 384h-215c-40 0 -47 29 -47 42c0 14 7 43 47 43h270c45 0 53 -32 53 -47c0 -12 -3 -23 -14 -47z" />
    <glyph glyph-name="eight.sc" horiz-adv-x="504" 
d="M419 401c0 -51 -29 -97 -80 -117v-2c62 -21 100 -68 100 -132c0 -105 -84 -164 -187 -164c-104 0 -188 59 -188 164c0 64 37 111 97 132v2c-47 19 -77 63 -77 115c0 92 75 151 168 151c92 0 167 -56 167 -149zM160 153c0 -53 38 -88 92 -88c53 0 91 35 91 88
c0 52 -39 91 -91 91c-53 0 -92 -39 -92 -91zM176 394c0 -45 34 -74 76 -74c40 0 75 29 75 74c0 46 -34 77 -75 77c-43 0 -76 -31 -76 -77z" />
    <glyph glyph-name="nine.sc" horiz-adv-x="504" 
d="M348 374c0 59 -43 96 -97 96c-55 0 -94 -39 -94 -97c0 -56 37 -98 95 -98c56 0 96 42 96 99zM382 203l-121 -183c-15 -23 -29 -28 -45 -28c-25 0 -44 19 -44 43c0 7 3 19 14 35l99 141l-1 1c-16 -7 -37 -11 -52 -11c-97 0 -170 65 -170 169c0 109 81 180 189 180
c110 0 191 -73 191 -178c0 -54 -24 -115 -60 -169z" />
    <glyph glyph-name="question.sc" horiz-adv-x="440" 
d="M286 59c0 -36 -28 -65 -66 -65c-37 0 -65 28 -65 64c0 35 27 64 65 64s66 -28 66 -63zM157 426c-14 -24 -29 -32 -46 -32c-24 0 -45 15 -45 42c0 10 4 25 13 40c30 48 79 74 148 74c106 0 159 -68 159 -147c0 -44 -17 -84 -69 -126c-35 -29 -50 -45 -53 -71
c-4 -34 -31 -41 -46 -41c-18 0 -47 10 -47 49c0 34 14 65 60 103l21 18c26 22 36 38 36 67c0 34 -23 64 -67 64c-28 0 -50 -12 -64 -40z" />
    <glyph glyph-name="a.sc" horiz-adv-x="550" 
d="M445 27l-42 97h-261l-42 -98c-12 -28 -32 -34 -46 -34c-25 0 -45 18 -45 45c0 7 2 17 7 28l196 429c19 43 45 50 64 50c20 0 44 -7 64 -50l194 -427c5 -12 6 -20 6 -27c0 -27 -22 -48 -48 -48c-15 0 -35 7 -47 35zM273 425l-97 -224h194z" />
    <glyph glyph-name="b.sc" horiz-adv-x="539" 
d="M271 0h-129c-40 0 -58 18 -58 57v421c0 40 18 58 58 58h141c88 0 170 -37 170 -138c0 -55 -30 -95 -77 -115v-2c61 -15 101 -58 101 -126c0 -110 -97 -155 -206 -155zM178 456v-141h89c52 0 90 25 90 74c0 44 -32 67 -97 67h-82zM178 238v-157h90c61 0 112 21 112 80
c0 51 -34 77 -104 77h-98z" />
    <glyph glyph-name="c.sc" horiz-adv-x="566" 
d="M451 117c14 13 25 17 36 17c25 0 45 -19 45 -45c0 -14 -7 -29 -25 -44c-41 -36 -99 -59 -174 -59c-168 0 -281 114 -281 283s124 281 289 281c61 0 120 -18 161 -51c19 -14 23 -29 23 -41c0 -26 -21 -46 -47 -46c-11 0 -21 4 -36 15c-28 23 -66 38 -104 38
c-111 0 -183 -86 -183 -196c0 -106 74 -197 180 -197c42 0 83 15 116 45z" />
    <glyph glyph-name="d.sc" horiz-adv-x="619" 
d="M275 0h-133c-40 0 -58 18 -58 57v421c0 40 18 58 58 58h135c144 0 290 -73 290 -267c0 -185 -148 -269 -292 -269zM180 456v-375h80c114 0 205 59 205 188c0 134 -90 187 -205 187h-80z" />
    <glyph glyph-name="e.sc" horiz-adv-x="507" 
d="M414 0h-272c-40 0 -58 18 -58 57v421c0 40 18 58 58 58h260c39 0 46 -27 46 -40c0 -14 -7 -40 -46 -40h-223v-141h210c38 0 45 -26 45 -38c0 -14 -7 -39 -45 -39h-210v-157h235c40 0 46 -27 46 -40c0 -14 -6 -41 -46 -41z" />
    <glyph glyph-name="f.sc" horiz-adv-x="476" 
d="M378 228h-198v-182c0 -46 -32 -54 -48 -54s-48 8 -48 54v432c0 40 18 58 58 58h260c39 0 46 -27 46 -40c0 -14 -7 -40 -46 -40h-222v-150h198c39 0 46 -26 46 -39c0 -14 -7 -39 -46 -39z" />
    <glyph glyph-name="g.sc" horiz-adv-x="625" 
d="M548 243v-166c0 -33 -13 -52 -49 -64c-46 -17 -98 -27 -157 -27c-172 0 -290 118 -290 283c0 169 124 281 287 281c63 0 128 -16 167 -45c21 -15 26 -29 26 -42c0 -25 -18 -46 -45 -46c-9 0 -20 2 -34 12c-30 21 -69 36 -113 36c-115 0 -185 -87 -185 -195
c0 -111 74 -199 190 -199c43 0 78 7 107 21v132h-77c-37 0 -44 27 -44 40c0 12 7 38 44 38h114c40 0 59 -19 59 -59z" />
    <glyph glyph-name="h.sc" horiz-adv-x="607" 
d="M523 46c0 -46 -32 -54 -48 -54s-48 8 -48 54v191h-247v-191c0 -46 -32 -54 -48 -54s-48 8 -48 54v444c0 46 32 54 48 54s48 -8 48 -54v-174h247v174c0 46 32 54 48 54s48 -8 48 -54v-444z" />
    <glyph glyph-name="i.sc" horiz-adv-x="264" 
d="M180 490v-444c0 -46 -32 -54 -48 -54s-48 8 -48 54v444c0 46 32 54 48 54s48 -8 48 -54z" />
    <glyph glyph-name="j.sc" horiz-adv-x="407" 
d="M233 172v318c0 46 32 54 48 54s48 -8 48 -54v-322c0 -76 -28 -182 -160 -182c-65 0 -113 30 -137 73c-7 12 -9 22 -9 30c0 25 19 44 46 44c12 0 27 -4 42 -26c16 -23 34 -35 56 -35c50 0 66 35 66 100z" />
    <glyph glyph-name="k.sc" horiz-adv-x="543" 
d="M430 12l-248 253h-2v-219c0 -46 -32 -54 -48 -54s-48 8 -48 54v444c0 46 32 54 48 54s48 -8 48 -54v-183h2l236 219c14 14 27 18 38 18c24 0 44 -18 44 -44c0 -10 -4 -24 -20 -39l-195 -172l214 -212c15 -14 18 -28 18 -39c0 -25 -19 -46 -46 -46c-12 0 -26 4 -41 20z
" />
    <glyph glyph-name="l.sc" horiz-adv-x="420" 
d="M180 81h192c40 0 46 -27 46 -40c0 -14 -6 -41 -46 -41h-230c-40 0 -58 18 -58 57v433c0 46 32 54 48 54s48 -8 48 -54v-409z" />
    <glyph glyph-name="m.sc" horiz-adv-x="737" 
d="M653 479v-435c0 -44 -31 -52 -47 -52s-47 8 -47 52v303h-2l-133 -311c-15 -37 -38 -44 -55 -44c-18 0 -40 7 -56 44l-133 310h-2v-302c0 -44 -31 -52 -47 -52s-47 8 -47 52v435c0 55 39 65 58 65c20 0 45 -6 65 -54l164 -385h2l160 385c19 48 44 54 64 54
c19 0 56 -10 56 -65z" />
    <glyph glyph-name="n.sc" horiz-adv-x="618" 
d="M441 153v338c0 45 32 53 46 53c15 0 47 -8 47 -53v-429c0 -59 -39 -70 -59 -70c-22 0 -43 9 -70 50l-227 345h-1v-342c0 -45 -32 -53 -47 -53c-14 0 -46 8 -46 53v429c0 59 39 70 59 70c22 0 41 -9 69 -50l227 -341h2z" />
    <glyph glyph-name="o.sc" horiz-adv-x="681" 
d="M629 269c0 -165 -124 -283 -290 -283c-163 0 -287 118 -287 283c0 168 124 281 287 281c166 0 290 -113 290 -281zM526 269c0 111 -73 196 -187 196c-113 0 -184 -85 -184 -196c0 -113 72 -198 184 -198c114 0 187 85 187 198z" />
    <glyph glyph-name="p.sc" horiz-adv-x="505" 
d="M143 536h127c123 0 199 -59 199 -164c0 -109 -80 -169 -202 -169h-87v-157c0 -46 -32 -54 -48 -54s-48 8 -48 54v433c0 40 19 57 59 57zM180 456v-175h81c68 0 112 29 112 89c0 56 -39 86 -108 86h-85z" />
    <glyph glyph-name="q.sc" horiz-adv-x="687" 
d="M614 0h-279c-167 0 -283 105 -283 275c0 161 121 275 283 275s282 -109 282 -271c0 -87 -37 -153 -94 -195v-3h91c39 0 46 -28 46 -40c0 -13 -7 -41 -46 -41zM155 275c0 -112 73 -194 180 -194c108 0 181 82 181 194c0 107 -74 191 -181 191c-105 0 -180 -84 -180 -191z
" />
    <glyph glyph-name="r.sc" horiz-adv-x="525" 
d="M354 240l111 -167c11 -16 12 -27 12 -34c0 -25 -18 -47 -46 -47c-13 0 -31 4 -45 27l-129 207h-77v-180c0 -46 -32 -54 -48 -54s-48 8 -48 54v433c0 40 18 57 58 57h133c107 0 196 -36 196 -149c0 -78 -48 -129 -117 -147zM180 456v-152h83c59 0 111 20 111 80
c0 57 -49 72 -105 72h-89z" />
    <glyph glyph-name="s.sc" horiz-adv-x="465" 
d="M242 468c-48 0 -87 -26 -87 -72c0 -49 36 -63 97 -83c75 -24 158 -58 158 -160c0 -114 -86 -167 -189 -167c-56 0 -110 17 -150 48c-20 16 -27 32 -27 45c0 24 18 45 46 45c11 0 23 -4 35 -15c32 -26 65 -39 98 -39c50 0 93 23 93 71c0 53 -43 74 -117 97
c-70 22 -139 53 -139 151c0 110 94 161 188 161c49 0 92 -14 131 -41c21 -14 28 -31 28 -43c0 -23 -17 -43 -43 -43c-10 0 -22 3 -38 15c-23 17 -55 30 -84 30z" />
    <glyph glyph-name="t.sc" horiz-adv-x="442" 
d="M172 456h-126c-39 0 -46 26 -46 40c0 13 7 40 46 40h350c39 0 46 -27 46 -40c0 -14 -7 -40 -46 -40h-128v-410c0 -46 -32 -54 -48 -54s-48 8 -48 54v410z" />
    <glyph glyph-name="u.sc" horiz-adv-x="595" 
d="M78 200v290c0 46 32 54 48 54s48 -8 48 -54v-283c0 -71 33 -135 123 -135s124 64 124 135v283c0 46 32 54 48 54s48 -8 48 -54v-290c0 -122 -81 -214 -220 -214s-219 92 -219 214z" />
    <glyph glyph-name="v.sc" horiz-adv-x="504" 
d="M491 470l-173 -425c-19 -47 -45 -53 -66 -53s-48 6 -67 53l-172 422c-5 13 -6 24 -6 30c0 27 20 47 48 47c16 0 35 -6 48 -40l149 -381h3l150 383c12 31 31 38 46 38c27 0 47 -19 47 -46c0 -5 -2 -16 -7 -28z" />
    <glyph glyph-name="w.sc" horiz-adv-x="796" 
d="M776 471l-137 -425c-15 -48 -43 -54 -64 -54c-19 0 -48 7 -63 54l-113 357h-1l-113 -357c-15 -47 -44 -54 -64 -54c-19 0 -49 7 -64 54l-138 425c-3 12 -4 19 -4 25c0 28 22 48 50 48c18 0 40 -7 51 -46l108 -368h2l108 356c16 51 46 58 64 58c19 0 49 -6 65 -58
l110 -356h2l107 369c11 39 34 45 50 45c27 0 49 -18 49 -47c0 -6 -1 -14 -5 -26z" />
    <glyph glyph-name="x.sc" horiz-adv-x="508" 
d="M398 16l-146 194l-144 -194c-14 -19 -29 -24 -41 -24c-27 0 -46 19 -46 44c0 7 2 20 13 35l159 213l-139 180c-12 15 -14 26 -14 35c0 26 20 45 46 45c12 0 27 -4 42 -24l127 -169l129 171c14 19 28 22 39 22c25 0 45 -18 45 -44c0 -8 -2 -18 -12 -32l-144 -186l162 -209
c11 -14 13 -27 13 -35c0 -26 -19 -46 -46 -46c-13 0 -28 4 -43 24z" />
    <glyph glyph-name="y.sc" horiz-adv-x="473" 
d="M462 466l-178 -241v-179c0 -46 -32 -54 -48 -54s-48 8 -48 54v179l-177 241c-10 13 -12 25 -12 32c0 26 22 46 47 46c14 0 28 -5 43 -26l149 -212l148 212c13 19 27 26 42 26c26 0 46 -19 46 -45c0 -8 -3 -20 -12 -33z" />
    <glyph glyph-name="z.sc" horiz-adv-x="496" 
d="M412 0h-319c-47 0 -55 32 -55 48c0 15 6 30 25 53l266 355h-241c-40 0 -46 27 -46 40s6 40 46 40h314c45 0 52 -33 52 -48s-6 -29 -23 -52l-267 -355h248c40 0 46 -28 46 -40c0 -13 -6 -41 -46 -41z" />
    <glyph glyph-name="agrave.sc" horiz-adv-x="550" 
d="M445 27l-42 97h-261l-42 -98c-12 -28 -32 -34 -46 -34c-25 0 -45 18 -45 45c0 7 2 17 7 28l196 429c19 43 45 50 64 50c20 0 44 -7 64 -50l194 -427c5 -12 6 -20 6 -27c0 -27 -22 -48 -48 -48c-15 0 -35 7 -47 35zM273 425l-97 -224h194zM212 733l75 -76
c16 -16 18 -26 18 -35c0 -18 -14 -36 -35 -36c-10 0 -21 2 -36 17l-77 73c-17 15 -21 29 -21 38c0 22 16 38 38 38c9 0 22 -3 38 -19z" />
    <glyph glyph-name="aacute.sc" horiz-adv-x="550" 
d="M445 27l-42 97h-261l-42 -98c-12 -28 -32 -34 -46 -34c-25 0 -45 18 -45 45c0 7 2 17 7 28l196 429c19 43 45 50 64 50c20 0 44 -7 64 -50l194 -427c5 -12 6 -20 6 -27c0 -27 -22 -48 -48 -48c-15 0 -35 7 -47 35zM273 425l-97 -224h194zM265 657l75 76
c16 16 29 19 38 19c22 0 38 -16 38 -38c0 -9 -4 -23 -21 -38l-77 -73c-15 -15 -26 -17 -36 -17c-21 0 -35 18 -35 36c0 9 2 19 18 35z" />
    <glyph glyph-name="acircumflex.sc" horiz-adv-x="550" 
d="M445 27l-42 97h-261l-42 -98c-12 -28 -32 -34 -46 -34c-25 0 -45 18 -45 45c0 7 2 17 7 28l196 429c19 43 45 50 64 50c20 0 44 -7 64 -50l194 -427c5 -12 6 -20 6 -27c0 -27 -22 -48 -48 -48c-15 0 -35 7 -47 35zM273 425l-97 -224h194zM275 681l-86 -81
c-11 -10 -19 -14 -29 -14c-18 0 -32 14 -32 32c0 7 2 17 14 28l81 80c21 21 35 26 51 26c17 0 30 -6 51 -26l81 -79c12 -12 14 -21 14 -29c0 -18 -15 -32 -33 -32c-8 0 -18 3 -29 14z" />
    <glyph glyph-name="atilde.sc" horiz-adv-x="550" 
d="M445 27l-42 97h-261l-42 -98c-12 -28 -32 -34 -46 -34c-25 0 -45 18 -45 45c0 7 2 17 7 28l196 429c19 43 45 50 64 50c20 0 44 -7 64 -50l194 -427c5 -12 6 -20 6 -27c0 -27 -22 -48 -48 -48c-15 0 -35 7 -47 35zM273 425l-97 -224h194zM344 606c-26 0 -50 10 -75 23
c-28 14 -45 21 -62 21c-16 0 -28 -9 -38 -31c-8 -19 -19 -23 -30 -23c-19 0 -31 11 -31 31c0 4 1 13 5 23c15 39 45 68 93 68c26 0 48 -10 75 -23s44 -21 62 -21c16 0 28 9 38 31c8 19 19 23 30 23c18 0 30 -11 30 -30c0 -5 -1 -14 -5 -24c-15 -39 -44 -68 -92 -68z" />
    <glyph glyph-name="adieresis.sc" horiz-adv-x="550" 
d="M445 27l-42 97h-261l-42 -98c-12 -28 -32 -34 -46 -34c-25 0 -45 18 -45 45c0 7 2 17 7 28l196 429c19 43 45 50 64 50c20 0 44 -7 64 -50l194 -427c5 -12 6 -20 6 -27c0 -27 -22 -48 -48 -48c-15 0 -35 7 -47 35zM273 425l-97 -224h194zM116 675c0 32 26 61 62 61
c35 0 62 -27 62 -61c0 -33 -27 -60 -62 -60c-36 0 -62 29 -62 60zM310 675c0 32 26 61 62 61c35 0 62 -27 62 -61c0 -33 -27 -60 -62 -60c-36 0 -62 29 -62 60z" />
    <glyph glyph-name="aring.sc" horiz-adv-x="550" 
d="M445 27l-42 97h-261l-42 -98c-12 -28 -32 -34 -46 -34c-25 0 -45 18 -45 45c0 7 2 17 7 28l196 429c19 43 45 50 64 50c20 0 44 -7 64 -50l194 -427c5 -12 6 -20 6 -27c0 -27 -22 -48 -48 -48c-15 0 -35 7 -47 35zM273 425l-97 -224h194zM376 683c0 -57 -45 -99 -101 -99
c-55 0 -100 42 -100 98c0 57 44 99 100 99s101 -42 101 -98zM335 683c0 33 -27 58 -60 58s-59 -26 -59 -59c0 -32 26 -57 59 -57s60 25 60 58z" />
    <glyph glyph-name="ae.sc" horiz-adv-x="840" 
d="M387 536h348c39 0 46 -27 46 -40c0 -14 -7 -40 -46 -40h-222v-141h209c38 0 45 -26 45 -38c0 -14 -7 -39 -45 -39h-209v-157h234c40 0 46 -27 46 -40c0 -14 -6 -41 -46 -41h-272c-40 0 -58 18 -58 57v77h-226l-75 -114c-15 -22 -32 -28 -46 -28c-24 0 -46 19 -46 46
c0 8 2 20 11 34l294 432c14 20 29 32 58 32zM407 462l-166 -251h176v251h-10z" />
    <glyph glyph-name="ccedilla.sc" horiz-adv-x="566" 
d="M238 -169c7 0 14 -2 23 -5c16 -5 33 -7 49 -7c33 0 58 11 58 36c0 22 -16 35 -44 35c-9 0 -16 -1 -22 -2c-10 -2 -15 -3 -21 -3c-17 0 -24 10 -24 21c0 6 2 11 8 21l39 61c-152 12 -252 122 -252 281c0 169 124 281 289 281c61 0 120 -19 161 -52c19 -14 23 -28 23 -40
c0 -26 -21 -46 -47 -46c-11 0 -21 4 -36 15c-28 23 -66 38 -104 38c-111 0 -183 -86 -183 -196c0 -106 74 -197 180 -197c42 0 83 15 116 45c14 13 25 17 36 17c25 0 45 -19 45 -45c0 -14 -7 -29 -25 -44c-36 -31 -84 -53 -145 -58l-36 -54c8 1 18 2 27 2
c43 0 87 -21 87 -79c0 -68 -67 -91 -127 -91c-28 0 -55 5 -76 12c-20 7 -25 18 -25 28c0 12 10 26 26 26z" />
    <glyph glyph-name="eth.sc" horiz-adv-x="619" 
d="M275 0h-133c-40 0 -58 18 -58 57v187h-37c-34 0 -40 23 -40 35s6 35 40 35h37v164c0 40 18 58 58 58h135c144 0 290 -73 290 -267c0 -185 -148 -269 -292 -269zM180 456v-142h99c34 0 40 -23 40 -35s-6 -35 -40 -35h-99v-163h80c114 0 205 59 205 188
c0 134 -90 187 -205 187h-80z" />
    <glyph glyph-name="egrave.sc" horiz-adv-x="507" 
d="M414 0h-272c-40 0 -58 18 -58 57v421c0 40 18 58 58 58h260c39 0 46 -27 46 -40c0 -14 -7 -40 -46 -40h-223v-141h210c38 0 45 -26 45 -38c0 -14 -7 -39 -45 -39h-210v-157h235c40 0 46 -27 46 -40c0 -14 -6 -41 -46 -41zM233 733l75 -76c16 -16 18 -26 18 -35
c0 -18 -14 -36 -35 -36c-10 0 -21 2 -36 17l-77 73c-17 15 -21 29 -21 38c0 22 16 38 38 38c9 0 22 -3 38 -19z" />
    <glyph glyph-name="eacute.sc" horiz-adv-x="507" 
d="M414 0h-272c-40 0 -58 18 -58 57v421c0 40 18 58 58 58h260c39 0 46 -27 46 -40c0 -14 -7 -40 -46 -40h-223v-141h210c38 0 45 -26 45 -38c0 -14 -7 -39 -45 -39h-210v-157h235c40 0 46 -27 46 -40c0 -14 -6 -41 -46 -41zM236 657l75 76c16 16 29 19 38 19
c22 0 38 -16 38 -38c0 -9 -4 -23 -21 -38l-77 -73c-15 -15 -26 -17 -36 -17c-21 0 -35 18 -35 36c0 9 2 19 18 35z" />
    <glyph glyph-name="ecircumflex.sc" horiz-adv-x="507" 
d="M414 0h-272c-40 0 -58 18 -58 57v421c0 40 18 58 58 58h260c39 0 46 -27 46 -40c0 -14 -7 -40 -46 -40h-223v-141h210c38 0 45 -26 45 -38c0 -14 -7 -39 -45 -39h-210v-157h235c40 0 46 -27 46 -40c0 -14 -6 -41 -46 -41zM266 681l-86 -81c-11 -10 -19 -14 -29 -14
c-18 0 -32 14 -32 32c0 7 2 17 14 28l81 80c21 21 35 26 51 26c17 0 30 -6 51 -26l81 -79c12 -12 14 -21 14 -29c0 -18 -15 -32 -33 -32c-8 0 -18 3 -29 14z" />
    <glyph glyph-name="edieresis.sc" horiz-adv-x="507" 
d="M414 0h-272c-40 0 -58 18 -58 57v421c0 40 18 58 58 58h260c39 0 46 -27 46 -40c0 -14 -7 -40 -46 -40h-223v-141h210c38 0 45 -26 45 -38c0 -14 -7 -39 -45 -39h-210v-157h235c40 0 46 -27 46 -40c0 -14 -6 -41 -46 -41zM108 675c0 32 26 61 62 61c35 0 62 -27 62 -61
c0 -33 -27 -60 -62 -60c-36 0 -62 29 -62 60zM302 675c0 32 26 61 62 61c35 0 62 -27 62 -61c0 -33 -27 -60 -62 -60c-36 0 -62 29 -62 60z" />
    <glyph glyph-name="igrave.sc" horiz-adv-x="264" 
d="M180 490v-444c0 -46 -32 -54 -48 -54s-48 8 -48 54v444c0 46 32 54 48 54s48 -8 48 -54zM72 733l75 -76c16 -16 18 -26 18 -35c0 -18 -14 -36 -35 -36c-10 0 -21 2 -36 17l-77 73c-17 15 -21 29 -21 38c0 22 16 38 38 38c9 0 22 -3 38 -19z" />
    <glyph glyph-name="iacute.sc" horiz-adv-x="264" 
d="M180 490v-444c0 -46 -32 -54 -48 -54s-48 8 -48 54v444c0 46 32 54 48 54s48 -8 48 -54zM118 657l75 76c16 16 29 19 38 19c22 0 38 -16 38 -38c0 -9 -4 -23 -21 -38l-77 -73c-15 -15 -26 -17 -36 -17c-21 0 -35 18 -35 36c0 9 2 19 18 35z" />
    <glyph glyph-name="icircumflex.sc" horiz-adv-x="264" 
d="M180 490v-444c0 -46 -32 -54 -48 -54s-48 8 -48 54v444c0 46 32 54 48 54s48 -8 48 -54zM133 681l-86 -81c-11 -10 -19 -14 -29 -14c-18 0 -32 14 -32 32c0 7 2 17 14 28l81 80c21 21 35 26 51 26c17 0 30 -6 51 -26l81 -79c12 -12 14 -21 14 -29c0 -18 -15 -32 -33 -32
c-8 0 -18 3 -29 14z" />
    <glyph glyph-name="idieresis.sc" horiz-adv-x="264" 
d="M180 490v-444c0 -46 -32 -54 -48 -54s-48 8 -48 54v444c0 46 32 54 48 54s48 -8 48 -54zM-27 675c0 32 26 61 62 61c35 0 62 -27 62 -61c0 -33 -27 -60 -62 -60c-36 0 -62 29 -62 60zM167 675c0 32 26 61 62 61c35 0 62 -27 62 -61c0 -33 -27 -60 -62 -60
c-36 0 -62 29 -62 60z" />
    <glyph glyph-name="lslash.sc" horiz-adv-x="420" 
d="M16 252l68 57v181c0 46 32 54 48 54s48 -8 48 -54v-101l56 48c14 12 23 13 29 13c19 0 33 -14 33 -33c0 -9 -2 -20 -16 -31l-102 -85v-220h192c40 0 46 -27 46 -40c0 -14 -6 -41 -46 -41h-230c-40 0 -58 18 -58 57v163l-23 -19c-13 -11 -22 -13 -28 -13
c-19 0 -33 15 -33 35c0 8 3 19 16 29z" />
    <glyph glyph-name="ntilde.sc" horiz-adv-x="618" 
d="M441 153v338c0 45 32 53 46 53c15 0 47 -8 47 -53v-429c0 -59 -39 -70 -59 -70c-22 0 -43 9 -70 50l-227 345h-1v-342c0 -45 -32 -53 -47 -53c-14 0 -46 8 -46 53v429c0 59 39 70 59 70c22 0 41 -9 69 -50l227 -341h2zM376 606c-26 0 -50 10 -75 23c-28 14 -45 21 -62 21
c-16 0 -28 -9 -38 -31c-8 -19 -19 -23 -30 -23c-19 0 -31 11 -31 31c0 4 1 13 5 23c15 39 45 68 93 68c26 0 48 -10 75 -23s44 -21 62 -21c16 0 28 9 38 31c8 19 19 23 30 23c18 0 30 -11 30 -30c0 -5 -1 -14 -5 -24c-15 -39 -44 -68 -92 -68z" />
    <glyph glyph-name="ograve.sc" horiz-adv-x="681" 
d="M629 269c0 -165 -124 -283 -290 -283c-163 0 -287 118 -287 283c0 168 124 281 287 281c166 0 290 -113 290 -281zM526 269c0 111 -73 196 -187 196c-113 0 -184 -85 -184 -196c0 -113 72 -198 184 -198c114 0 187 85 187 198zM286 733l75 -76c16 -16 18 -26 18 -35
c0 -18 -14 -36 -35 -36c-10 0 -21 2 -36 17l-77 73c-17 15 -21 29 -21 38c0 22 16 38 38 38c9 0 22 -3 38 -19z" />
    <glyph glyph-name="oacute.sc" horiz-adv-x="681" 
d="M629 269c0 -165 -124 -283 -290 -283c-163 0 -287 118 -287 283c0 168 124 281 287 281c166 0 290 -113 290 -281zM526 269c0 111 -73 196 -187 196c-113 0 -184 -85 -184 -196c0 -113 72 -198 184 -198c114 0 187 85 187 198zM311 657l75 76c16 16 29 19 38 19
c22 0 38 -16 38 -38c0 -9 -4 -23 -21 -38l-77 -73c-15 -15 -26 -17 -36 -17c-21 0 -35 18 -35 36c0 9 2 19 18 35z" />
    <glyph glyph-name="ocircumflex.sc" horiz-adv-x="681" 
d="M629 269c0 -165 -124 -283 -290 -283c-163 0 -287 118 -287 283c0 168 124 281 287 281c166 0 290 -113 290 -281zM526 269c0 111 -73 196 -187 196c-113 0 -184 -85 -184 -196c0 -113 72 -198 184 -198c114 0 187 85 187 198zM340 681l-86 -81c-11 -10 -19 -14 -29 -14
c-18 0 -32 14 -32 32c0 7 2 17 14 28l81 80c21 21 35 26 51 26c17 0 30 -6 51 -26l81 -79c12 -12 14 -21 14 -29c0 -18 -15 -32 -33 -32c-8 0 -18 3 -29 14z" />
    <glyph glyph-name="otilde.sc" horiz-adv-x="681" 
d="M629 269c0 -165 -124 -283 -290 -283c-163 0 -287 118 -287 283c0 168 124 281 287 281c166 0 290 -113 290 -281zM526 269c0 111 -73 196 -187 196c-113 0 -184 -85 -184 -196c0 -113 72 -198 184 -198c114 0 187 85 187 198zM407 606c-26 0 -50 10 -75 23
c-28 14 -45 21 -62 21c-16 0 -28 -9 -38 -31c-8 -19 -19 -23 -30 -23c-19 0 -31 11 -31 31c0 4 1 13 5 23c15 39 45 68 93 68c26 0 48 -10 75 -23s44 -21 62 -21c16 0 28 9 38 31c8 19 19 23 30 23c18 0 30 -11 30 -30c0 -5 -1 -14 -5 -24c-15 -39 -44 -68 -92 -68z" />
    <glyph glyph-name="odieresis.sc" horiz-adv-x="681" 
d="M629 269c0 -165 -124 -283 -290 -283c-163 0 -287 118 -287 283c0 168 124 281 287 281c166 0 290 -113 290 -281zM526 269c0 111 -73 196 -187 196c-113 0 -184 -85 -184 -196c0 -113 72 -198 184 -198c114 0 187 85 187 198zM179 675c0 32 26 61 62 61
c35 0 62 -27 62 -61c0 -33 -27 -60 -62 -60c-36 0 -62 29 -62 60zM373 675c0 32 26 61 62 61c35 0 62 -27 62 -61c0 -33 -27 -60 -62 -60c-36 0 -62 29 -62 60z" />
    <glyph glyph-name="oslash.sc" horiz-adv-x="681" 
d="M525 269c0 44 -12 85 -34 118l-268 -276c30 -25 70 -39 116 -39c113 0 186 85 186 197zM156 269c0 -46 12 -87 33 -119l267 275c-30 24 -70 39 -117 39c-112 0 -183 -85 -183 -195zM158 44l-57 -59c-9 -9 -16 -10 -21 -10c-14 0 -25 11 -25 25c0 5 1 12 10 22l56 57
c-44 48 -69 115 -69 190c0 169 124 281 287 281c71 0 134 -21 183 -58l54 56c9 9 16 10 21 10c14 0 25 -11 25 -25c0 -5 -1 -12 -10 -22l-52 -53c43 -48 69 -113 69 -189c0 -166 -124 -283 -290 -283c-70 0 -132 21 -181 58z" />
    <glyph glyph-name="oe.sc" horiz-adv-x="808" 
d="M354 536h349c39 0 46 -27 46 -40c0 -14 -7 -40 -46 -40h-222v-141h209c38 0 45 -26 45 -38c0 -14 -7 -39 -45 -39h-209v-157h234c40 0 46 -27 46 -40c0 -14 -6 -41 -46 -41h-361c-163 0 -293 103 -293 268c0 168 130 268 293 268zM165 268c0 -112 78 -182 189 -182h31
v364h-31c-112 0 -189 -72 -189 -182z" />
    <glyph glyph-name="scaron.sc" horiz-adv-x="465" 
d="M242 468c-48 0 -87 -26 -87 -72c0 -49 36 -63 97 -83c75 -24 158 -58 158 -160c0 -114 -86 -167 -189 -167c-56 0 -110 17 -150 48c-20 16 -27 32 -27 45c0 24 18 45 46 45c11 0 23 -4 35 -15c32 -26 65 -39 98 -39c50 0 93 23 93 71c0 53 -43 74 -117 97
c-70 22 -139 53 -139 151c0 110 94 161 188 161c49 0 92 -14 131 -41c21 -14 28 -31 28 -43c0 -23 -17 -43 -43 -43c-10 0 -22 3 -38 15c-23 17 -55 30 -84 30zM245 657l86 81c11 10 19 14 29 14c18 0 32 -14 32 -32c0 -7 -2 -17 -14 -28l-81 -80c-21 -21 -35 -26 -51 -26
c-17 0 -30 6 -51 26l-81 79c-12 12 -14 21 -14 29c0 18 15 32 33 32c8 0 18 -3 29 -14z" />
    <glyph glyph-name="germandbls.sc" horiz-adv-x="930" 
d="M242 468c-48 0 -87 -26 -87 -72c0 -49 36 -63 97 -83c75 -24 158 -58 158 -160c0 -114 -86 -167 -189 -167c-56 0 -110 17 -150 48c-20 16 -27 32 -27 45c0 24 18 45 46 45c11 0 23 -4 35 -15c32 -26 65 -39 98 -39c50 0 93 23 93 71c0 53 -43 74 -117 97
c-70 22 -139 53 -139 151c0 110 94 161 188 161c49 0 92 -14 131 -41c21 -14 28 -31 28 -43c0 -23 -17 -43 -43 -43c-10 0 -22 3 -38 15c-23 17 -55 30 -84 30zM707 468c-48 0 -87 -26 -87 -72c0 -49 36 -63 97 -83c75 -24 158 -58 158 -160c0 -114 -86 -167 -189 -167
c-56 0 -110 17 -150 48c-20 16 -27 32 -27 45c0 24 18 45 46 45c11 0 23 -4 35 -15c32 -26 65 -39 98 -39c50 0 93 23 93 71c0 53 -43 74 -117 97c-70 22 -139 53 -139 151c0 110 94 161 188 161c49 0 92 -14 131 -41c21 -14 28 -31 28 -43c0 -23 -17 -43 -43 -43
c-10 0 -22 3 -38 15c-23 17 -55 30 -84 30z" />
    <glyph glyph-name="thorn.sc" horiz-adv-x="505" 
d="M180 361v-152h80c80 0 111 30 111 80c0 48 -28 72 -108 72h-83zM84 46v444c0 46 32 54 48 54s48 -8 48 -54v-49h92c134 0 197 -54 197 -152c0 -96 -74 -158 -203 -158h-86v-85c0 -46 -32 -54 -48 -54s-48 8 -48 54z" />
    <glyph glyph-name="ugrave.sc" horiz-adv-x="595" 
d="M78 200v290c0 46 32 54 48 54s48 -8 48 -54v-283c0 -71 33 -135 123 -135s124 64 124 135v283c0 46 32 54 48 54s48 -8 48 -54v-290c0 -122 -81 -214 -220 -214s-219 92 -219 214zM246 733l75 -76c16 -16 18 -26 18 -35c0 -18 -14 -36 -35 -36c-10 0 -21 2 -36 17l-77 73
c-17 15 -21 29 -21 38c0 22 16 38 38 38c9 0 22 -3 38 -19z" />
    <glyph glyph-name="uacute.sc" horiz-adv-x="595" 
d="M78 200v290c0 46 32 54 48 54s48 -8 48 -54v-283c0 -71 33 -135 123 -135s124 64 124 135v283c0 46 32 54 48 54s48 -8 48 -54v-290c0 -122 -81 -214 -220 -214s-219 92 -219 214zM276 657l75 76c16 16 29 19 38 19c22 0 38 -16 38 -38c0 -9 -4 -23 -21 -38l-77 -73
c-15 -15 -26 -17 -36 -17c-21 0 -35 18 -35 36c0 9 2 19 18 35z" />
    <glyph glyph-name="ucircumflex.sc" horiz-adv-x="595" 
d="M78 200v290c0 46 32 54 48 54s48 -8 48 -54v-283c0 -71 33 -135 123 -135s124 64 124 135v283c0 46 32 54 48 54s48 -8 48 -54v-290c0 -122 -81 -214 -220 -214s-219 92 -219 214zM301 681l-86 -81c-11 -10 -19 -14 -29 -14c-18 0 -32 14 -32 32c0 7 2 17 14 28l81 80
c21 21 35 26 51 26c17 0 30 -6 51 -26l81 -79c12 -12 14 -21 14 -29c0 -18 -15 -32 -33 -32c-8 0 -18 3 -29 14z" />
    <glyph glyph-name="udieresis.sc" horiz-adv-x="595" 
d="M78 200v290c0 46 32 54 48 54s48 -8 48 -54v-283c0 -71 33 -135 123 -135s124 64 124 135v283c0 46 32 54 48 54s48 -8 48 -54v-290c0 -122 -81 -214 -220 -214s-219 92 -219 214zM141 675c0 32 26 61 62 61c35 0 62 -27 62 -61c0 -33 -27 -60 -62 -60
c-36 0 -62 29 -62 60zM335 675c0 32 26 61 62 61c35 0 62 -27 62 -61c0 -33 -27 -60 -62 -60c-36 0 -62 29 -62 60z" />
    <glyph glyph-name="yacute.sc" horiz-adv-x="473" 
d="M462 466l-178 -241v-179c0 -46 -32 -54 -48 -54s-48 8 -48 54v179l-177 241c-10 13 -12 25 -12 32c0 26 22 46 47 46c14 0 28 -5 43 -26l149 -212l148 212c13 19 27 26 42 26c26 0 46 -19 46 -45c0 -8 -3 -20 -12 -33zM207 657l75 76c16 16 29 19 38 19
c22 0 38 -16 38 -38c0 -9 -4 -23 -21 -38l-77 -73c-15 -15 -26 -17 -36 -17c-21 0 -35 18 -35 36c0 9 2 19 18 35z" />
    <glyph glyph-name="ydieresis.sc" horiz-adv-x="473" 
d="M462 466l-178 -241v-179c0 -46 -32 -54 -48 -54s-48 8 -48 54v179l-177 241c-10 13 -12 25 -12 32c0 26 22 46 47 46c14 0 28 -5 43 -26l149 -212l148 212c13 19 27 26 42 26c26 0 46 -19 46 -45c0 -8 -3 -20 -12 -33zM80 675c0 32 26 61 62 61c35 0 62 -27 62 -61
c0 -33 -27 -60 -62 -60c-36 0 -62 29 -62 60zM274 675c0 32 26 61 62 61c35 0 62 -27 62 -61c0 -33 -27 -60 -62 -60c-36 0 -62 29 -62 60z" />
    <glyph glyph-name="zcaron.sc" horiz-adv-x="496" 
d="M412 0h-319c-47 0 -55 32 -55 48c0 15 6 30 25 53l266 355h-241c-40 0 -46 27 -46 40s6 40 46 40h314c45 0 52 -33 52 -48s-6 -29 -23 -52l-267 -355h248c40 0 46 -28 46 -40c0 -13 -6 -41 -46 -41zM255 657l86 81c11 10 19 14 29 14c18 0 32 -14 32 -32
c0 -7 -2 -17 -14 -28l-81 -80c-21 -21 -35 -26 -51 -26c-17 0 -30 6 -51 26l-81 79c-12 12 -14 21 -14 29c0 18 15 32 33 32c8 0 18 -3 29 -14z" />
    <glyph glyph-name="grave.sc" 
d="M74 733l75 -76c16 -16 18 -26 18 -35c0 -18 -14 -36 -35 -36c-10 0 -21 2 -36 17l-77 73c-17 15 -21 29 -21 38c0 22 16 38 38 38c9 0 22 -3 38 -19z" />
    <glyph glyph-name="acute.sc" 
d="M101 657l75 76c16 16 29 19 38 19c22 0 38 -16 38 -38c0 -9 -4 -23 -21 -38l-77 -73c-15 -15 -26 -17 -36 -17c-21 0 -35 18 -35 36c0 9 2 19 18 35z" />
    <glyph glyph-name="circumflex.sc" 
d="M126 681l-86 -81c-11 -10 -19 -14 -29 -14c-18 0 -32 14 -32 32c0 7 2 17 14 28l81 80c21 21 35 26 51 26c17 0 30 -6 51 -26l81 -79c12 -12 14 -21 14 -29c0 -18 -15 -32 -33 -32c-8 0 -18 3 -29 14z" />
    <glyph glyph-name="caron.sc" 
d="M124 657l86 81c11 10 19 14 29 14c18 0 32 -14 32 -32c0 -7 -2 -17 -14 -28l-81 -80c-21 -21 -35 -26 -51 -26c-17 0 -30 6 -51 26l-81 79c-12 12 -14 21 -14 29c0 18 15 32 33 32c8 0 18 -3 29 -14z" />
    <glyph glyph-name="tilde.sc" 
d="M194 606c-26 0 -50 10 -75 23c-28 14 -45 21 -62 21c-16 0 -28 -9 -38 -31c-8 -19 -19 -23 -30 -23c-19 0 -31 11 -31 31c0 4 1 13 5 23c15 39 45 68 93 68c26 0 48 -10 75 -23s44 -21 62 -21c16 0 28 9 38 31c8 19 19 23 30 23c18 0 30 -11 30 -30c0 -5 -1 -14 -5 -24
c-15 -39 -44 -68 -92 -68z" />
    <glyph glyph-name="dieresis.sc" 
d="M-34 675c0 32 26 61 62 61c35 0 62 -27 62 -61c0 -33 -27 -60 -62 -60c-36 0 -62 29 -62 60zM160 675c0 32 26 61 62 61c35 0 62 -27 62 -61c0 -33 -27 -60 -62 -60c-36 0 -62 29 -62 60z" />
    <glyph glyph-name="macron.sc" 
d="M240 626h-230c-32 0 -38 24 -38 35s6 34 38 34h230c32 0 38 -23 38 -34s-6 -35 -38 -35z" />
    <glyph glyph-name="breve.sc" 
d="M125 664c41 0 75 19 90 54c10 22 20 26 32 26c19 0 30 -15 30 -30c0 -6 -1 -13 -3 -19c-23 -69 -84 -95 -149 -95s-126 26 -149 95c-3 9 -3 15 -3 19c0 15 10 30 31 30c11 0 22 -4 32 -26c16 -36 48 -54 89 -54z" />
    <glyph glyph-name="ring.sc" 
d="M226 683c0 -57 -45 -99 -101 -99c-55 0 -100 42 -100 98c0 57 44 99 100 99s101 -42 101 -98zM185 683c0 33 -27 58 -60 58s-59 -26 -59 -59c0 -32 26 -57 59 -57s60 25 60 58z" />
    <glyph glyph-name="hungarumlaut.sc" 
d="M180 657l69 77c15 17 27 18 37 18c21 -1 36 -16 36 -36c0 -10 -2 -20 -18 -37l-71 -76c-14 -15 -26 -17 -35 -17c-20 0 -35 16 -35 35c0 9 2 20 17 36zM-9 657l69 77c15 17 27 18 37 18c21 -1 36 -16 36 -36c0 -10 -2 -20 -18 -37l-71 -76c-14 -15 -26 -17 -35 -17
c-20 0 -35 16 -35 35c0 9 2 20 17 36z" />
    <glyph glyph-name="exclamdown.sc" horiz-adv-x="297" 
d="M95 477c0 35 27 65 65 65c37 0 66 -29 66 -64c0 -36 -27 -65 -66 -65c-37 0 -65 28 -65 64zM112 46v272c0 46 32 53 48 53s48 -7 48 -53v-272c0 -46 -32 -54 -48 -54s-48 8 -48 54z" />
    <glyph glyph-name="questiondown.sc" horiz-adv-x="410" 
d="M154 477c0 36 28 65 66 65c37 0 65 -28 65 -64c0 -35 -27 -64 -65 -64s-66 28 -66 63zM283 110c14 24 29 32 46 32c24 0 45 -15 45 -42c0 -10 -4 -25 -13 -40c-30 -48 -79 -74 -148 -74c-106 0 -159 68 -159 147c0 44 17 84 69 126c35 29 50 45 53 71c4 34 31 41 46 41
c18 0 47 -10 47 -49c0 -34 -14 -65 -60 -103l-21 -18c-26 -22 -36 -38 -36 -67c0 -34 23 -64 67 -64c28 0 50 12 64 40z" />
    <glyph glyph-name="Euro.sc" horiz-adv-x="504" 
d="M332 -14c-118 0 -200 73 -222 179h-26c-32 0 -38 22 -38 34c0 10 6 33 38 33h15c-1 3 -1 18 -1 27c0 13 1 31 2 38h-13c-32 0 -38 23 -38 34c0 10 6 33 38 33h23c30 116 119 186 234 186c32 0 68 -5 96 -20c16 -9 22 -22 22 -36c0 -22 -15 -40 -39 -40c-8 0 -16 2 -27 6
c-16 5 -35 8 -56 8c-65 0 -118 -38 -138 -104h170c32 0 37 -23 37 -33c0 -11 -5 -34 -37 -34h-181c-2 -11 -3 -25 -3 -36c0 -9 0 -21 2 -29h142c32 0 37 -23 37 -33c0 -12 -5 -34 -37 -34h-129c16 -61 71 -98 131 -98c23 0 39 3 63 13c10 4 18 6 25 6c23 0 38 -17 38 -37
c0 -13 -3 -27 -25 -40c-30 -18 -65 -23 -103 -23z" />
    <glyph glyph-name="cent.sc" horiz-adv-x="504" 
d="M274 71v332c-80 -15 -123 -83 -123 -166c0 -82 45 -150 123 -166zM454 34c-35 -30 -83 -43 -129 -46v-46c0 -24 -17 -28 -25 -28c-9 0 -26 4 -26 28v47c-134 13 -216 117 -216 249c0 134 82 231 216 247v44c0 24 17 29 26 29c8 0 25 -5 25 -29v-43c50 -2 93 -17 127 -43
c18 -14 24 -29 24 -41c0 -22 -16 -42 -41 -42c-10 0 -19 3 -38 18c-20 15 -44 25 -72 26v-334c29 1 57 13 79 31c12 9 22 13 32 13c25 0 41 -18 41 -40c0 -12 -5 -26 -23 -40z" />
    <glyph glyph-name="sterling.sc" horiz-adv-x="504" 
d="M146 237h-31c-33 0 -39 24 -39 35s6 35 39 35h31v61c0 98 64 180 179 180c32 0 59 -7 83 -19c23 -12 32 -27 32 -43c0 -22 -16 -40 -40 -40c-9 0 -17 2 -26 8c-18 11 -35 15 -52 15c-47 0 -81 -34 -81 -107v-55h83c33 0 39 -24 39 -35s-6 -35 -39 -35h-83v-156h149
c39 0 46 -28 46 -40c0 -13 -7 -41 -46 -41h-270c-40 0 -47 28 -47 41c0 12 7 40 47 40h26v156z" />
    <glyph glyph-name="florin.sc" horiz-adv-x="504" 
d="M346 270h-61l-44 -224c-16 -84 -63 -132 -140 -132c-15 0 -33 3 -46 8c-25 9 -31 28 -31 40c0 19 14 38 38 38c6 0 11 -1 18 -3c6 -2 12 -3 18 -3c22 0 45 18 54 67l39 209h-47c-34 0 -40 23 -40 35c0 11 6 35 40 35h59l13 73c13 78 52 137 133 137c20 0 38 -3 54 -10
c26 -12 30 -27 30 -39c0 -21 -14 -40 -39 -40c-6 0 -11 1 -17 3s-14 4 -23 4c-24 0 -39 -20 -45 -58l-12 -70h49c33 0 39 -24 39 -35c0 -12 -6 -35 -39 -35z" />
    <glyph glyph-name="yen.sc" horiz-adv-x="504" 
d="M205 228h-92c-30 0 -35 21 -35 32c0 10 5 32 35 32h72l-132 179c-9 13 -11 23 -11 31c0 22 17 42 44 42c13 0 27 -6 40 -26l130 -188l126 189c13 19 27 25 40 25c24 0 42 -17 42 -39c0 -7 -2 -19 -11 -31l-131 -182h69c30 0 35 -22 35 -32c0 -11 -5 -32 -35 -32h-93v-60
h93c30 0 35 -22 35 -32c0 -11 -5 -32 -35 -32h-93v-60c0 -44 -31 -52 -47 -52c-15 0 -46 8 -46 52v60h-92c-30 0 -35 21 -35 32c0 10 5 32 35 32h92v60z" />
    <glyph glyph-name="perthousand.sc" horiz-adv-x="1020" 
d="M532 498l-291 -498c-11 -20 -24 -24 -35 -24c-19 0 -37 14 -37 34c0 5 1 14 8 25l291 498c11 20 25 25 35 25c19 0 37 -14 37 -34c0 -6 -2 -14 -8 -26zM45 412c0 81 61 132 140 132c81 0 141 -51 141 -132c0 -79 -60 -134 -141 -134c-79 0 -140 55 -140 134zM126 412
c0 -38 24 -63 59 -63c36 0 60 25 60 63c0 37 -23 62 -60 62c-35 0 -59 -25 -59 -62zM385 122c0 81 61 132 140 132c81 0 141 -51 141 -132c0 -79 -60 -134 -141 -134c-79 0 -140 55 -140 134zM466 122c0 -38 24 -63 59 -63c36 0 60 25 60 63c0 37 -23 62 -60 62
c-35 0 -59 -25 -59 -62zM700 122c0 81 61 132 140 132c81 0 141 -51 141 -132c0 -79 -60 -134 -141 -134c-79 0 -140 55 -140 134zM781 122c0 -38 24 -63 59 -63c36 0 60 25 60 63c0 37 -23 62 -60 62c-35 0 -59 -25 -59 -62z" />
    <glyph glyph-name="zero.onum" horiz-adv-x="697" 
d="M637 270c0 -165 -124 -283 -290 -283c-163 0 -287 118 -287 283c0 168 124 280 287 280c166 0 290 -112 290 -280zM534 270c0 111 -73 195 -187 195c-113 0 -184 -84 -184 -195c0 -113 72 -198 184 -198c114 0 187 85 187 198z" />
    <glyph glyph-name="one.onum" horiz-adv-x="400" 
d="M67 427l113 96c20 17 36 21 49 21c18 0 51 -7 51 -57v-442c0 -45 -32 -53 -48 -53c-15 0 -47 8 -47 53v372l-66 -56c-13 -11 -24 -13 -33 -13c-22 0 -41 17 -41 42c0 10 4 23 22 37z" />
    <glyph glyph-name="two.onum" horiz-adv-x="540" 
d="M207 83h234c39 0 46 -28 46 -42c0 -13 -7 -41 -46 -41h-325c-49 0 -56 31 -56 47s8 36 34 53c196 126 283 192 283 273c0 55 -37 95 -114 95c-44 0 -85 -21 -113 -54c-15 -18 -28 -23 -41 -23c-24 0 -41 18 -41 41c0 11 4 23 16 37c44 53 112 81 181 81
c131 0 208 -65 208 -174c0 -115 -109 -186 -223 -262l-43 -28v-3z" />
    <glyph glyph-name="three.onum" horiz-adv-x="550" 
d="M194 -170c-22 0 -55 1 -78 5c-35 6 -42 28 -42 43c0 23 17 41 43 41c12 0 37 -6 74 -6c125 0 195 57 195 157c0 77 -53 133 -167 133c-20 0 -35 -2 -47 -4c-14 -2 -24 -4 -32 -4c-26 0 -42 20 -42 41c0 11 3 25 23 40c79 59 164 129 217 175v4h-225c-38 0 -45 27 -45 40
s7 41 45 41h293c49 0 58 -34 58 -51c0 -16 -7 -35 -33 -56c-58 -49 -134 -111 -194 -156l1 -3c8 2 17 3 32 3c125 0 214 -86 214 -197c0 -155 -119 -246 -290 -246z" />
    <glyph glyph-name="four.onum" horiz-adv-x="586" 
d="M518 6h-74v-132c0 -44 -31 -52 -46 -52s-46 8 -46 52v132h-258c-52 0 -61 36 -61 52c0 15 6 31 18 51l254 425c13 22 29 27 42 27c24 0 43 -16 43 -40c0 -8 -2 -18 -9 -29l-246 -403h217v196c0 44 31 52 46 52s46 -8 46 -52v-196h74c39 0 46 -28 46 -42
c0 -13 -7 -41 -46 -41z" />
    <glyph glyph-name="five.onum" horiz-adv-x="544" 
d="M120 -165c-33 5 -41 27 -41 43c0 23 16 41 40 41c9 0 19 -2 31 -4c11 -2 19 -3 36 -3c121 0 188 54 188 162c0 96 -74 140 -164 140c-17 0 -34 -2 -46 -4c-17 -3 -27 -5 -36 -5c-10 0 -39 6 -35 44l27 231c4 38 19 56 57 56h260c41 0 48 -29 48 -43s-7 -43 -48 -43h-231
l-23 -166c20 5 39 7 61 7c126 0 226 -77 226 -214c0 -164 -119 -247 -275 -247c-26 0 -53 1 -75 5z" />
    <glyph glyph-name="six.onum" horiz-adv-x="609" 
d="M212 410l3 -2c25 20 66 31 113 31c124 0 221 -93 221 -222c0 -141 -105 -236 -244 -236c-141 0 -245 92 -245 245c0 159 148 349 292 470c14 11 25 16 39 16c24 0 42 -18 42 -43c0 -9 -3 -23 -21 -38c-81 -69 -159 -146 -200 -221zM158 213c0 -83 59 -150 147 -150
c87 0 146 63 146 151c0 85 -57 148 -145 148c-89 0 -148 -62 -148 -149z" />
    <glyph glyph-name="seven.onum" horiz-adv-x="530" 
d="M478 448c-107 -214 -203 -431 -272 -595c-12 -28 -32 -34 -47 -34c-26 0 -50 17 -50 47c0 7 1 16 8 31c75 167 187 402 263 553h-295c-42 0 -49 29 -49 43s7 43 49 43h343c52 0 60 -38 60 -52c0 -8 -2 -20 -10 -36z" />
    <glyph glyph-name="eight.onum" horiz-adv-x="595" 
d="M401 373c76 -19 134 -89 134 -180c0 -133 -109 -211 -237 -211c-129 0 -238 78 -238 211c0 94 61 160 134 180v2c-63 22 -109 80 -109 158c0 117 96 193 213 193c116 0 212 -73 212 -191c0 -77 -45 -139 -109 -160v-2zM182 530c0 -65 49 -115 116 -115
c64 0 116 50 116 115c0 68 -53 116 -116 116c-67 0 -116 -48 -116 -116zM159 198c0 -80 57 -135 139 -135c80 0 138 55 138 135c0 77 -58 134 -138 134c-81 0 -139 -56 -139 -134z" />
    <glyph glyph-name="nine.onum" horiz-adv-x="609" 
d="M451 318c0 83 -59 150 -147 150c-87 0 -146 -63 -146 -151c0 -85 57 -148 145 -148c89 0 148 62 148 149zM257 -165c-14 -11 -25 -16 -38 -16c-24 0 -43 18 -43 43c0 9 3 23 21 38c82 69 159 146 200 221l-3 2c-25 -20 -66 -31 -113 -31c-124 0 -221 93 -221 222
c0 141 105 236 244 236c141 0 245 -93 245 -246c0 -147 -137 -344 -292 -469z" />
    </font>
</defs>
</svg>
